<svg width="48" height="48" viewBox="0 0 48 48" fill="none" xmlns="http://www.w3.org/2000/svg">
    <defs>
        <linearGradient id="paint0_linear" x1="41.8941" y1="9.29066" x2="6.18205" y2="39.3387" gradientUnits="userSpaceOnUse">
            <stop stop-color="#B6509E"/>
            <stop offset="1" stop-color="#2EBAC6"/>
        </linearGradient>
    </defs>
    <circle cx="24" cy="24" r="24" fill="url(#paint0_linear)"/>
    <path d="M34.188 33.6231L26.316 14.5911C25.872 13.6071 25.212 13.1271 24.342 13.1271H23.646C22.776 13.1271 22.116 13.6071 21.672 14.5911L18.246 22.8831H15.654C14.88 22.8891 14.25 23.5131 14.244 24.2931V24.3111C14.25 25.0851 14.88 25.7151 15.654 25.7211H17.046L13.776 33.6231C13.716 33.7971 13.68 33.9771 13.68 34.1631C13.68 34.6071 13.818 34.9551 14.064 35.2251C14.31 35.4951 14.664 35.6271 15.108 35.6271C15.402 35.6211 15.684 35.5311 15.918 35.3571C16.17 35.1831 16.344 34.9311 16.482 34.6431L20.082 25.7151H22.578C23.352 25.7091 23.982 25.0851 23.988 24.3051V24.2691C23.982 23.4951 23.352 22.8651 22.578 22.8591H21.246L23.994 16.0131L31.482 34.6371C31.62 34.9251 31.794 35.1772 32.046 35.3512C32.28 35.5252 32.568 35.6152 32.856 35.6212C33.3 35.6212 33.648 35.4892 33.9 35.2192C34.152 34.9492 34.284 34.6011 34.284 34.1571C34.29 33.9771 34.26 33.7911 34.188 33.6231Z" fill="#FFF"/>
</svg>
