<svg id="ada" width="48" height="48" viewBox="0 0 48 48" fill="none" xmlns="http://www.w3.org/2000/svg">
<circle cx="24" cy="24" r="24" fill="#FFF"/>
<path d="M16.7723 23.8933C16.704 25.0795 17.6171 26.0949 18.8032 26.1632C18.8459 26.1632 18.8885 26.1632 18.9312 26.1632C20.1259 26.1632 21.0901 25.1989 21.0816 24.0043C21.0816 22.8096 20.1173 21.8453 18.9227 21.8539C17.7792 21.8539 16.832 22.7499 16.7723 23.8933Z" fill="#0033AD"/>
<path d="M8.73388 23.3387C8.34988 23.3131 8.01708 23.6118 8.00001 23.9958C7.98295 24.3798 8.27308 24.7126 8.65708 24.7296C9.04108 24.7552 9.36535 24.4566 9.39095 24.0726C9.41655 23.6886 9.11788 23.3643 8.73388 23.3387Z" fill="#0033AD"/>
<path d="M16.6358 11.3835C16.9771 11.2128 17.1136 10.7862 16.943 10.4448C16.7723 10.1035 16.3456 9.96696 16.0043 10.1376C15.663 10.3083 15.5264 10.7264 15.6971 11.0678C15.8678 11.4176 16.2859 11.5627 16.6358 11.3835C16.6358 11.3835 16.6272 11.3835 16.6358 11.3835Z" fill="#0033AD"/>
<path d="M18.8203 15.1978C19.3493 14.9333 19.5627 14.2848 19.2981 13.7557C19.0336 13.2266 18.3851 13.0133 17.856 13.2778C17.3269 13.5424 17.1136 14.1909 17.3781 14.72C17.6427 15.249 18.2912 15.4624 18.8203 15.1978Z" fill="#0033AD"/>
<path d="M11.4645 17.8176C11.8741 18.0821 12.4203 17.9712 12.6933 17.5616C12.9579 17.152 12.8469 16.6059 12.4373 16.3328C12.0277 16.0683 11.4816 16.1792 11.2085 16.5888C10.9355 16.9984 11.0549 17.5531 11.4645 17.8176Z" fill="#0033AD"/>
<path d="M12.7701 22.9547C12.1728 22.9206 11.6693 23.3728 11.6352 23.9702C11.6011 24.5675 12.0533 25.071 12.6507 25.1051C13.248 25.1392 13.7515 24.687 13.7856 24.0896C13.8197 23.5008 13.3675 22.9888 12.7701 22.9547Z" fill="#0033AD"/>
<path d="M11.584 30.1824C11.1488 30.4043 10.9696 30.9334 11.1915 31.3771C11.4133 31.8123 11.9424 31.9915 12.3861 31.7696C12.8213 31.5478 13.0005 31.0187 12.7787 30.5749C12.5568 30.1397 12.0192 29.9605 11.584 30.1824Z" fill="#0033AD"/>
<path d="M15.7653 20.7274C16.3541 21.1114 17.1392 20.9493 17.5147 20.3605C17.8987 19.7717 17.7365 18.9866 17.1477 18.6112C16.5589 18.2272 15.7739 18.3893 15.3984 18.9781C15.0144 19.5584 15.1765 20.3434 15.7653 20.7274Z" fill="#0033AD"/>
<path d="M29.0347 15.1125C29.5296 15.4368 30.2037 15.3003 30.528 14.8053C30.8523 14.3104 30.7157 13.6363 30.2208 13.312C29.7259 12.9877 29.0517 13.1243 28.7275 13.6192C28.3947 14.1227 28.5312 14.7883 29.0347 15.1125Z" fill="#0033AD"/>
<path d="M31.2363 11.3152C31.5605 11.5285 31.9872 11.4346 32.2005 11.1104C32.4139 10.7861 32.32 10.3594 31.9957 10.1461C31.6715 9.93276 31.2448 10.0266 31.0315 10.3424C30.8267 10.6666 30.9205 11.1018 31.2363 11.3152Z" fill="#0033AD"/>
<path d="M29.1968 21.8368C28.0107 21.7685 26.9867 22.6816 26.9269 23.8677C26.8587 25.0538 27.7717 26.0778 28.9579 26.1376C29.0005 26.1376 29.0432 26.1376 29.0773 26.1376C30.2635 26.1376 31.2277 25.1733 31.2277 23.9786C31.2363 22.8437 30.3403 21.8965 29.1968 21.8368Z" fill="#0033AD"/>
<path d="M19.5285 20.5739C19.8955 21.2992 20.6379 21.76 21.4571 21.76C22.6432 21.76 23.6075 20.7957 23.6075 19.6011C23.6075 19.2683 23.5307 18.9355 23.3771 18.6283C22.8395 17.5616 21.5424 17.1349 20.4843 17.6725C19.4176 18.2187 18.9909 19.5157 19.5285 20.5739Z" fill="#0033AD"/>
<path d="M36.416 17.8176C36.8512 17.5957 37.0219 17.0581 36.8 16.6229C36.5781 16.1877 36.0405 16.0171 35.6053 16.2389C35.1702 16.4608 34.9995 16.9899 35.2128 17.4251C35.4432 17.8603 35.9723 18.0395 36.416 17.8176Z" fill="#0033AD"/>
<path d="M30.9547 18.5003C30.3317 18.816 30.0757 19.5755 30.3915 20.1984C30.7072 20.8213 31.4667 21.0773 32.0896 20.7616C32.7125 20.4459 32.9685 19.6864 32.6528 19.0635C32.3371 18.4406 31.5776 18.1931 30.9547 18.5003Z" fill="#0033AD"/>
<path d="M23.9147 10.9909C24.4011 11.0165 24.8192 10.6411 24.8534 10.1547C24.8875 9.66825 24.5035 9.25012 24.0171 9.21598C23.5307 9.19038 23.1125 9.55732 23.0784 10.0437C23.0528 10.5387 23.4283 10.9568 23.9147 10.9909Z" fill="#0033AD"/>
<path d="M23.9061 16.5632C24.6059 16.6059 25.2032 16.0683 25.2373 15.3685C25.28 14.6688 24.7424 14.0715 24.0427 14.0373C23.3429 13.9947 22.7456 14.5323 22.7115 15.232C22.6773 15.9317 23.2064 16.5291 23.9061 16.5632Z" fill="#0033AD"/>
<path d="M17.0454 29.4997C17.6683 29.184 17.9243 28.4245 17.6086 27.8016C17.2928 27.1787 16.5334 26.9227 15.9104 27.2384C15.2875 27.5541 15.0315 28.3136 15.3472 28.9365C15.663 29.5595 16.4224 29.8155 17.0454 29.4997Z" fill="#0033AD"/>
<path d="M24.7253 18.4149C24.0768 19.4133 24.3499 20.7445 25.3483 21.3931C26.3467 22.0416 27.6779 21.7685 28.3264 20.7701C28.9749 19.7717 28.7019 18.4405 27.7035 17.792C27.3536 17.5616 26.944 17.4421 26.5259 17.4421C25.8005 17.4421 25.1264 17.8091 24.7253 18.4149Z" fill="#0033AD"/>
<path d="M28.4715 27.4261C27.9339 26.3595 26.6368 25.9328 25.5787 26.4704C24.512 27.008 24.0853 28.3051 24.6229 29.3632C25.1605 30.4299 26.4576 30.8565 27.5157 30.3189C28.5739 29.7899 29.0091 28.5099 28.48 27.4432C28.48 27.4347 28.48 27.4347 28.4715 27.4261Z" fill="#0033AD"/>
<path d="M32.2347 27.2725C31.6459 26.8885 30.8608 27.0506 30.4853 27.6394C30.1013 28.2282 30.2635 29.0133 30.8523 29.3887C31.4411 29.7727 32.2261 29.6106 32.6016 29.0218C32.9856 28.4415 32.8235 27.6565 32.2347 27.2725Z" fill="#0033AD"/>
<path d="M36.3648 24.0384C36.3989 23.441 35.9467 22.9376 35.3493 22.9034C34.752 22.8693 34.2485 23.3216 34.2144 23.9189C34.1803 24.5162 34.6325 25.0197 35.2299 25.0538C35.8187 25.0879 36.3307 24.6271 36.3648 24.0384Z" fill="#0033AD"/>
<path d="M39.3429 23.2704C38.9589 23.2448 38.6262 23.5435 38.6091 23.9275C38.592 24.3115 38.8821 24.6443 39.2661 24.6613C39.6501 24.6869 39.9744 24.3883 40 24.0043C40.0171 23.6203 39.7269 23.296 39.3429 23.2704Z" fill="#0033AD"/>
<path d="M36.5355 30.1824C36.1259 29.9179 35.5798 30.0288 35.3067 30.4384C35.0421 30.848 35.1531 31.3941 35.5627 31.6672C35.9723 31.9317 36.5184 31.8208 36.7915 31.4112C37.0646 31.0016 36.9451 30.4469 36.5355 30.1824Z" fill="#0033AD"/>
<path d="M16.7552 36.6848C16.4309 36.4715 16.0043 36.5653 15.7909 36.8811C15.5776 37.2053 15.6715 37.632 15.9872 37.8453C16.3115 38.0587 16.7381 37.9648 16.9515 37.6491C17.1733 37.3333 17.0795 36.8981 16.7552 36.6848Z" fill="#0033AD"/>
<path d="M31.3643 36.6165C31.023 36.7872 30.8864 37.2138 31.0571 37.5552C31.2278 37.8965 31.6544 38.033 31.9957 37.8624C32.3371 37.6917 32.4736 37.2736 32.3029 36.9322C32.1323 36.5824 31.7141 36.4373 31.3643 36.6165C31.3643 36.6165 31.3728 36.6165 31.3643 36.6165Z" fill="#0033AD"/>
<path d="M23.2747 29.585C23.9232 28.5866 23.6502 27.2554 22.6518 26.5984C21.6534 25.9498 20.3222 26.2229 19.6651 27.2213C19.008 28.2197 19.2896 29.5509 20.288 30.208C20.6379 30.4384 21.0475 30.5578 21.4656 30.5578C22.1995 30.5664 22.8736 30.1994 23.2747 29.585Z" fill="#0033AD"/>
<path d="M18.9653 32.8874C18.4704 32.5632 17.7963 32.6997 17.472 33.1946C17.1477 33.6896 17.2843 34.3637 17.7792 34.688C18.2741 35.0122 18.9483 34.8757 19.2725 34.3808C19.6053 33.8858 19.4688 33.2117 18.9653 32.8874Z" fill="#0033AD"/>
<path d="M23.9915 37.009C23.5051 36.9834 23.087 37.3589 23.0528 37.8453C23.0187 38.3317 23.4027 38.7498 23.8891 38.784C24.3755 38.8096 24.7936 38.4426 24.8278 37.9562C24.8534 37.4613 24.4779 37.0432 23.9915 37.009Z" fill="#0033AD"/>
<path d="M24 31.4368C23.3003 31.3941 22.7029 31.9317 22.6688 32.6314C22.6261 33.3312 23.1637 33.9285 23.8635 33.9626C24.5632 33.9968 25.1605 33.4677 25.1947 32.768C25.2373 32.0768 24.6997 31.4709 24 31.4368Z" fill="#0033AD"/>
<path d="M29.1798 32.8021C28.6507 33.0752 28.4374 33.7237 28.7104 34.2528C28.9835 34.7818 29.632 34.9952 30.1611 34.7221C30.6902 34.4576 30.9035 33.809 30.639 33.28C30.3659 32.7509 29.7174 32.529 29.1798 32.8021Z" fill="#0033AD"/>
</svg>
