<svg width="48" height="48" viewBox="0 0 48 48" fill="none" xmlns="http://www.w3.org/2000/svg">
<path d="M24 48C37.2548 48 48 37.2548 48 24C48 10.7452 37.2548 0 24 0C10.7452 0 0 10.7452 0 24C0 37.2548 10.7452 48 24 48Z" fill="white"/>
<path fill-rule="evenodd" clip-rule="evenodd" d="M26.2128 7.51L37.3617 13.205C38.9787 14.055 40 15.67 40 17.54V20.175H35.9149V17.54C35.9149 17.285 35.7447 17.03 35.4894 16.86L24.3404 11.165C24.1702 11.08 23.9149 11.08 23.6596 11.165L12.5106 16.86C12.2553 16.945 12.0851 17.2 12.0851 17.54V20.175H8V17.54C8 15.755 9.02128 14.055 10.6383 13.205L21.7872 7.51C23.1489 6.83 24.766 6.83 26.2128 7.51ZM27.4894 23.83C27.4894 21.875 25.8723 20.345 24 20.345C22.0426 20.345 20.5106 21.875 20.5106 23.83C20.5106 25.785 22.1277 27.315 24 27.315C25.8723 27.315 27.4894 25.785 27.4894 23.83ZM35.4043 31.14C35.6596 31.055 35.8298 30.8 35.8298 30.46V27.825H39.9149V30.46C39.9149 32.245 38.8936 33.945 37.2766 34.795L26.1277 40.49C25.4468 40.83 24.6809 41 23.9149 41C23.1489 41 22.383 40.83 21.7021 40.49L10.6383 34.795C9.02128 33.945 8 32.33 8 30.46V27.825H12.0851V30.46C12.0851 30.715 12.2553 30.97 12.5106 31.14L21.9574 35.9V31.14C18.7234 30.205 16.4255 27.315 16.4255 23.83C16.4255 19.665 19.8298 16.18 24.0851 16.18C28.2553 16.18 31.7447 19.58 31.7447 23.83C31.7447 27.315 29.3617 30.29 26.2128 31.14V35.9L35.4043 31.14Z" fill="#245AE5" fill-opacity="0.9"/>
</svg>
