<svg width="48" height="48" viewBox="0 0 48 48" fill="none" xmlns="http://www.w3.org/2000/svg">
<path d="M24 48C37.2548 48 48 37.2548 48 24C48 10.7452 37.2548 0 24 0C10.7452 0 0 10.7452 0 24C0 37.2548 10.7452 48 24 48Z" fill="white"/>
<path d="M27.2256 20.2693C28.3082 19.1896 29.3909 18.1409 30.4735 17.0633C32.289 15.2838 34.0713 13.4755 35.8846 11.696C37.0314 10.5854 38.7827 10.8393 39.4824 12.2059C39.6354 12.4884 39.7124 12.8056 39.7059 13.1266V30.8408C39.7045 31.393 39.4931 31.9241 39.1142 32.3268C38.7354 32.7295 38.2174 32.9739 37.6649 33.0105H14.6149C14.6459 32.9795 14.6459 32.9155 14.679 32.8846L16.4924 31.0741C16.8961 30.7139 17.2693 30.321 17.6082 29.8995C17.6885 29.8441 17.7627 29.7804 17.8297 29.7096L20.1874 27.35C20.4421 27.0961 20.411 27.0961 20.6015 27.381C21.0796 28.1427 21.5247 28.8735 22.0029 29.6352C22.067 29.7302 22.0981 29.7942 22.2264 29.7942C22.8619 29.7942 23.4685 29.7942 24.104 29.7612C24.6438 29.8042 25.1857 29.8152 25.7269 29.7942C26.226 29.8152 26.7259 29.8042 27.2235 29.7612C27.2877 29.7612 27.3519 29.7942 27.414 29.7942H36.3338C36.5553 29.7942 36.5884 29.6992 36.5884 29.5073V15.7648C36.5884 15.6678 36.6526 15.5728 36.5243 15.5109C36.3959 15.449 36.3649 15.5728 36.3007 15.6368L30.755 21.1611C29.5772 22.3047 28.4324 23.4793 27.2546 24.6209C27.2281 24.5613 27.2168 24.4961 27.2215 24.431V20.4282C27.1904 20.4592 27.1904 20.3642 27.2256 20.2693Z" fill="#1D2939"/>
<path d="M27.1904 29.8583C26.6927 29.8995 26.1928 29.9099 25.6938 29.8892C25.1527 29.9099 24.6108 29.8996 24.0709 29.8583V20.4283C23.9584 20.4776 23.8597 20.5534 23.7831 20.6492C22.51 21.9208 21.237 23.1904 19.9308 24.46C18.2126 26.1755 16.4614 27.8889 14.7411 29.6353C14.679 29.6993 14.5838 29.7303 14.6149 29.8252C14.6459 29.9202 14.7743 29.8892 14.8695 29.8892H17.2894C17.3846 29.8892 17.4798 29.8583 17.575 29.9532C17.2369 30.3747 16.8644 30.7676 16.4614 31.1279L14.6397 32.9362C14.6087 32.9693 14.6087 33.0002 14.5755 33.0642H7.25999C7.16476 33.0642 7.03849 33.1282 7.00537 33.0002C6.97225 32.8722 7.10059 32.8413 7.16476 32.7773L20.2495 19.7285C21.3011 18.6818 22.3506 17.6331 23.4022 16.6175C23.6172 16.3774 23.8826 16.1876 24.1796 16.0616C24.4766 15.9356 24.7979 15.8766 25.1204 15.8888C25.668 15.9025 26.1898 16.1235 26.58 16.5068C26.9702 16.8902 27.1996 17.4073 27.2215 17.9531C27.2546 18.7479 27.2215 19.5097 27.2546 20.3024C27.2546 20.3973 27.2215 20.4944 27.2215 20.5563V24.5467C27.2168 24.6117 27.2281 24.677 27.2546 24.7366V27.8806C27.1904 28.5247 27.1904 29.1915 27.1904 29.8583Z" fill="#3DD4ED"/>
</svg>
