<svg width="48" height="48" viewBox="0 0 48 48" fill="none" xmlns="http://www.w3.org/2000/svg">
<path d="M24 48C37.2548 48 48 37.2548 48 24C48 10.7452 37.2548 0 24 0C10.7452 0 0 10.7452 0 24C0 37.2548 10.7452 48 24 48Z" fill="#2E3148"/>
<path d="M24.0069 35.9733C30.6157 35.9733 35.9731 30.6158 35.9731 24.0071C35.9731 17.3983 30.6157 12.0409 24.0069 12.0409C17.3982 12.0409 12.0408 17.3983 12.0408 24.0071C12.0408 30.6158 17.3982 35.9733 24.0069 35.9733Z" fill="#1B1E36"/>
<path d="M24.0493 6.0155C21.8232 6.0155 20.0182 14.0896 20.0182 24.0497C20.0182 34.0097 21.8232 42.0838 24.0493 42.0838C26.2754 42.0838 28.0804 34.0097 28.0804 24.0497C28.0804 14.0896 26.2754 6.0155 24.0493 6.0155ZM24.3276 41.066C24.0731 41.4056 23.8185 41.1508 23.8185 41.1508C22.7933 39.963 22.2807 37.7562 22.2807 37.7562C20.4876 31.9854 20.9144 19.5949 20.9144 19.5949C21.7571 9.75808 23.2901 7.43433 23.8117 6.91844C23.865 6.86579 23.9352 6.83361 24.0098 6.82758C24.0845 6.82154 24.1589 6.84203 24.2199 6.88544C24.9768 7.42179 25.6117 9.66486 25.6117 9.66486C27.4863 16.6239 27.3166 23.1586 27.3166 23.1586C27.4863 28.8446 26.3772 35.2096 26.3772 35.2096C25.5234 40.0468 24.3276 41.066 24.3276 41.066Z" fill="#6F7390"/>
<path d="M39.6919 15.0747C38.5836 13.1432 30.6825 15.5957 22.039 20.5521C13.3956 25.5084 7.29856 31.0925 8.40607 33.0233C9.51358 34.954 17.4155 32.5023 26.059 27.5459C34.7024 22.5896 40.7994 17.0055 39.6919 15.0747V15.0747ZM9.42862 32.7583C9.00429 32.7048 9.10014 32.3561 9.10014 32.3561C9.62066 30.876 11.2771 29.3331 11.2771 29.3331C15.3922 24.9057 26.3528 19.1102 26.3528 19.1102C35.3036 14.9457 38.0839 15.1214 38.7892 15.3156C38.8615 15.3358 38.9245 15.381 38.9667 15.4431C39.009 15.5053 39.0279 15.5804 39.0201 15.6551C38.9353 16.579 37.3015 18.2453 37.3015 18.2453C32.2017 23.3365 26.4486 26.4417 26.4486 26.4417C21.601 29.4196 15.5281 31.6236 15.5281 31.6236C10.9072 33.2887 9.42878 32.7583 9.42878 32.7583H9.42862Z" fill="#6F7390"/>
<path d="M39.6527 33.0875C40.7696 31.1611 34.688 25.5514 26.0749 20.5578C17.4618 15.5642 9.56174 13.0813 8.44582 15.0111C7.3299 16.9408 13.4106 22.5472 22.0286 27.5408C30.6466 32.5343 38.5368 35.0175 39.6527 33.0875ZM9.18592 15.7555C9.02094 15.3643 9.36921 15.2701 9.36921 15.2701C10.9111 14.9789 13.077 15.6424 13.077 15.6424C18.9692 16.9842 29.4759 23.5656 29.4759 23.5656C37.5654 29.2262 38.806 31.7195 38.992 32.4273C39.0109 32.4999 39.0035 32.5768 38.9712 32.6445C38.9389 32.7122 38.8838 32.7663 38.8154 32.7973C37.9719 33.1835 35.7127 32.6081 35.7127 32.6081C28.7494 30.741 23.1805 27.3202 23.1805 27.3202C18.1768 24.6214 13.2291 20.4689 13.2291 20.4689C9.46952 17.3035 9.18707 15.7597 9.18707 15.7597L9.18592 15.7555Z" fill="#6F7390"/>
<path d="M24.0069 26.1287C25.1787 26.1287 26.1285 25.1788 26.1285 24.007C26.1285 22.8353 25.1787 21.8854 24.0069 21.8854C22.8351 21.8854 21.8853 22.8353 21.8853 24.007C21.8853 25.1788 22.8351 26.1287 24.0069 26.1287Z" fill="#B7B9C8"/>
<path d="M32.7057 17.1328C33.3853 17.1328 33.9363 16.5628 33.9363 15.8598C33.9363 15.1567 33.3853 14.5868 32.7057 14.5868C32.026 14.5868 31.4751 15.1567 31.4751 15.8598C31.4751 16.5628 32.026 17.1328 32.7057 17.1328Z" fill="#B7B9C8"/>
<path d="M12.5074 21.461C13.1871 21.461 13.738 20.8911 13.738 20.188C13.738 19.485 13.1871 18.915 12.5074 18.915C11.8278 18.915 11.2769 19.485 11.2769 20.188C11.2769 20.8911 11.8278 21.461 12.5074 21.461Z" fill="#B7B9C8"/>
<path d="M21.5034 37.0764C22.183 37.0764 22.7339 36.5064 22.7339 35.8034C22.7339 35.1003 22.183 34.5304 21.5034 34.5304C20.8238 34.5304 20.2728 35.1003 20.2728 35.8034C20.2728 36.5064 20.8238 37.0764 21.5034 37.0764Z" fill="#B7B9C8"/>
</svg>
