<svg width="48" height="48" viewBox="0 0 48 48" fill="none" xmlns="http://www.w3.org/2000/svg">
<path d="M24 48C37.2548 48 48 37.2548 48 24C48 10.7452 37.2548 0 24 0C10.7452 0 0 10.7452 0 24C0 37.2548 10.7452 48 24 48Z" fill="#E84142"/>
<path d="M30.9874 24.0229C31.6737 22.8375 32.781 22.8375 33.4673 24.0229L37.7408 31.5249C38.4271 32.7103 37.8656 33.6773 36.4931 33.6773H27.8836C26.5267 33.6773 25.9652 32.7103 26.6359 31.5249L30.9874 24.0229ZM22.7211 9.58018C23.4073 8.39482 24.4991 8.39482 25.1854 9.58018L26.1368 11.2958L28.3827 15.2418C28.9286 16.3648 28.9286 17.6905 28.3827 18.8135L20.8495 31.8681C20.1632 32.9287 19.0246 33.5993 17.7613 33.6773H11.5069C10.1344 33.6773 9.57294 32.7259 10.2592 31.5249L22.7211 9.58018Z" fill="#FFF"/>
</svg>
