<svg width="48" height="48" viewBox="0 0 48 48" fill="none" xmlns="http://www.w3.org/2000/svg">
<path fill-rule="evenodd" clip-rule="evenodd" d="M24 0C37.2528 0 48 10.7472 48 24C48 37.2528 37.2528 48 24 48C10.7472 48 0 37.2528 0 24C0 10.7472 10.7472 0 24 0Z" fill="#0055D5"/>
<path fill-rule="evenodd" clip-rule="evenodd" d="M13.056 15.8785C13.056 15.8785 10.4736 13.8145 10.296 18.9121C10.1184 22.8625 10.1232 30.5329 11.952 34.1569C12.7248 35.5201 13.7568 35.1025 15.6768 33.7441C17.3472 32.5105 23.3904 26.9425 25.9488 24.4993C28.5072 22.0561 33.696 15.0481 34.776 19.8097C35.2032 21.8113 35.7312 23.5105 35.328 27.9505C35.2032 29.3185 34.6176 30.3553 31.9488 28.5025C29.9328 27.2065 28.0176 25.8145 28.0176 25.8145C28.0176 25.8145 27.648 25.1521 26.7744 26.2273C26.088 27.0865 25.7424 27.2977 26.8416 27.9505C27.9456 28.6033 33.528 32.4529 35.6688 33.0529C37.4352 33.5665 38.4432 33.5569 38.496 30.0865C38.4864 27.3313 38.328 19.4449 37.3248 16.0849C36.5664 13.9921 35.4528 13.0417 33.048 15.3937C30.6432 17.7457 23.0592 25.0993 18.912 28.4305C16.1616 30.4945 14.9856 32.3569 13.9488 28.9153C13.2192 26.3089 12.2736 18.1969 15.2592 19.7425C17.1264 20.6353 18.0576 20.6305 17.328 21.1921C16.5984 21.7489 14.5008 23.6737 14.5008 23.6737C14.5008 23.6737 13.8528 24.1969 14.1552 25.3297C14.4576 26.1217 14.4576 26.5153 16.0848 24.9841C17.712 23.4529 18.912 22.2961 18.912 22.2961C18.912 22.2961 19.1712 21.8881 19.944 22.6417C20.7168 23.3953 20.8416 23.6065 20.8416 23.6065C20.8416 23.6065 21.048 24.1681 21.8736 23.1937C22.704 22.2193 23.2368 21.6241 21.6672 20.7121C20.1024 19.7905 13.056 15.8785 13.056 15.8785Z" fill="white"/>
</svg>
