<svg id="bch" width="48" height="48" viewBox="0 0 48 48" fill="none" xmlns="http://www.w3.org/2000/svg">
<path d="M24 48C37.2548 48 48 37.2548 48 24C48 10.7452 37.2548 0 24 0C10.7452 0 0 10.7452 0 24C0 37.2548 10.7452 48 24 48Z" fill="#8DC351"/>
<path d="M31.8 15.75C30.6 12.75 27.75 12.6 24.3 13.2L23.1 9L20.55 9.75L21.75 13.8C21.15 13.95 20.4 14.25 19.65 14.4L18.45 10.2L15.9 10.95L17.1 15.15C16.5 15.3 16.05 15.45 15.45 15.6L12 16.8L12.75 19.5C12.75 19.5 14.7 18.9 14.55 18.9C15.6 18.6 16.05 19.05 16.35 19.65L17.7 24.45C17.7 24.45 17.85 24.45 18 24.45L17.7 24.6L19.65 31.35C19.65 31.65 19.65 32.25 18.9 32.55L17.1 33.15L17.4 36.3L20.7 35.4C21.3 35.25 21.9 35.1 22.5 34.95L23.7 39.15L26.25 38.4L25.05 34.2C25.8 34.05 26.4 33.9 27.15 33.6L28.35 37.8L30.9 37.05L29.7 32.85C33.9 31.35 36.6 29.4 35.85 25.2C35.25 21.9 33.3 20.85 30.6 21C32.1 19.5 32.7 18 31.8 15.75ZM30.9 25.95C31.8 29.1 26.25 30.3 24.45 30.9L22.8 25.2C24.6 24.75 29.85 22.65 30.9 25.95ZM27.3 18.3C28.2 21.15 23.55 22.2 22.05 22.65L20.55 17.55C22.05 17.1 26.55 15.3 27.3 18.3Z" fill="#FFF"/>
</svg>
