<svg width="64" height="64" viewBox="0 0 64 64" fill="none" xmlns="http://www.w3.org/2000/svg">
<circle cx="32" cy="32" r="32" fill="#05BF68"/>
<path d="M30.4316 40.439H26.5855V24.561H30.3248V17H25.5171C21.9915 17 19 19.9164 19 23.4808V41.5192C19 45.0836 21.9915 48 25.5171 48H30.3248L30.4316 40.439ZM37.4829 17H32.5684V24.561H36.4145V26.6132C36.4145 27.1533 36.9487 27.6934 37.4829 27.6934H42.9316C43.5726 27.6934 44 27.1533 44 26.6132V23.4808C44 19.9164 41.1154 17 37.4829 17ZM36.4145 40.439H32.5684V48H37.4829C41.1154 48 44 45.0836 44 41.5192V38.3868C44 37.8467 43.4658 37.3066 42.9316 37.3066H37.4829C36.8419 37.3066 36.4145 37.8467 36.4145 38.3868V40.439V40.439Z" fill="white"/>
</svg>
