<svg width="48" height="48" viewBox="0 0 48 48" fill="none" xmlns="http://www.w3.org/2000/svg">
<path d="M24 48C37.2548 48 48 37.2548 48 24C48 10.7452 37.2548 0 24 0C10.7452 0 0 10.7452 0 24C0 37.2548 10.7452 48 24 48Z" fill="#414143"/>
<path d="M24 46C36.1503 46 46 36.1503 46 24C46 11.8497 36.1503 2 24 2C11.8497 2 2 11.8497 2 24C2 36.1503 11.8497 46 24 46Z" fill="white"/>
<path d="M24 44C35.0457 44 44 35.0457 44 24C44 12.9543 35.0457 4 24 4C12.9543 4 4 12.9543 4 24C4 35.0457 12.9543 44 24 44Z" fill="#414143"/>
<path d="M14.3203 24.7256H16.2002C16.1501 25.391 15.9655 25.9811 15.6465 26.4961C15.3275 27.0065 14.8831 27.4076 14.3135 27.6992C13.7438 27.9909 13.0534 28.1367 12.2422 28.1367C11.6178 28.1367 11.055 28.0273 10.5537 27.8086C10.057 27.5853 9.63086 27.2686 9.27539 26.8584C8.92448 26.4437 8.6556 25.9469 8.46875 25.3682C8.2819 24.7848 8.18848 24.1309 8.18848 23.4062V22.6475C8.18848 21.9229 8.28418 21.2689 8.47559 20.6855C8.66699 20.1022 8.94043 19.6055 9.2959 19.1953C9.65592 18.7806 10.0866 18.4616 10.5879 18.2383C11.0938 18.015 11.6589 17.9033 12.2832 17.9033C13.0944 17.9033 13.7803 18.0537 14.3408 18.3545C14.9014 18.6507 15.3366 19.0586 15.6465 19.5781C15.9564 20.0977 16.1432 20.6947 16.207 21.3691H14.3271C14.2907 20.9499 14.1995 20.5944 14.0537 20.3027C13.9124 20.0111 13.6982 19.79 13.4111 19.6396C13.1286 19.4847 12.7526 19.4072 12.2832 19.4072C11.9186 19.4072 11.5973 19.4756 11.3193 19.6123C11.0459 19.749 10.818 19.9541 10.6357 20.2275C10.4535 20.4964 10.3167 20.8337 10.2256 21.2393C10.1344 21.6403 10.0889 22.1051 10.0889 22.6338V23.4062C10.0889 23.9121 10.1299 24.3656 10.2119 24.7666C10.2939 25.1676 10.4215 25.5072 10.5947 25.7852C10.7679 26.0632 10.9912 26.2751 11.2646 26.4209C11.5381 26.5667 11.8639 26.6396 12.2422 26.6396C12.7025 26.6396 13.0762 26.5667 13.3633 26.4209C13.6549 26.2751 13.876 26.0609 14.0264 25.7783C14.1813 25.4958 14.2793 25.1449 14.3203 24.7256ZM20.8418 28.1367C20.2812 28.1367 19.7777 28.0456 19.3311 27.8633C18.8844 27.681 18.5039 27.4281 18.1895 27.1045C17.8796 26.7764 17.6403 26.3958 17.4717 25.9629C17.3076 25.5254 17.2256 25.056 17.2256 24.5547V24.2812C17.2256 23.7116 17.3076 23.1943 17.4717 22.7295C17.6357 22.2601 17.8682 21.8568 18.1689 21.5195C18.4697 21.1823 18.8298 20.9225 19.249 20.7402C19.6683 20.5579 20.1309 20.4668 20.6367 20.4668C21.1608 20.4668 21.6234 20.5557 22.0244 20.7334C22.4255 20.9066 22.7604 21.1527 23.0293 21.4717C23.2982 21.7907 23.501 22.1735 23.6377 22.6201C23.7744 23.0622 23.8428 23.5521 23.8428 24.0898V24.8486H18.0459V23.6045H22.0654V23.4678C22.0563 23.1807 22.0016 22.9186 21.9014 22.6816C21.8011 22.4401 21.6462 22.2487 21.4365 22.1074C21.2269 21.9616 20.9557 21.8887 20.623 21.8887C20.3542 21.8887 20.1195 21.9479 19.9189 22.0664C19.723 22.1803 19.5589 22.3444 19.4268 22.5586C19.2992 22.7682 19.2035 23.0189 19.1396 23.3105C19.0758 23.6022 19.0439 23.9258 19.0439 24.2812V24.5547C19.0439 24.8646 19.085 25.1517 19.167 25.416C19.2536 25.6803 19.3789 25.9105 19.543 26.1064C19.7116 26.2979 19.9121 26.4482 20.1445 26.5576C20.3815 26.6624 20.6504 26.7148 20.9512 26.7148C21.3294 26.7148 21.6712 26.6419 21.9766 26.4961C22.2865 26.3457 22.5553 26.1247 22.7832 25.833L23.6924 26.7764C23.5374 27.0042 23.3278 27.223 23.0635 27.4326C22.8037 27.6423 22.4893 27.8132 22.1201 27.9453C21.751 28.0729 21.3249 28.1367 20.8418 28.1367ZM26.9668 17.5V28H25.1553V17.5H26.9668ZM32.0117 28.1367C31.4512 28.1367 30.9476 28.0456 30.501 27.8633C30.0544 27.681 29.6738 27.4281 29.3594 27.1045C29.0495 26.7764 28.8102 26.3958 28.6416 25.9629C28.4775 25.5254 28.3955 25.056 28.3955 24.5547V24.2812C28.3955 23.7116 28.4775 23.1943 28.6416 22.7295C28.8057 22.2601 29.0381 21.8568 29.3389 21.5195C29.6396 21.1823 29.9997 20.9225 30.4189 20.7402C30.8382 20.5579 31.3008 20.4668 31.8066 20.4668C32.3307 20.4668 32.7933 20.5557 33.1943 20.7334C33.5954 20.9066 33.9303 21.1527 34.1992 21.4717C34.4681 21.7907 34.6709 22.1735 34.8076 22.6201C34.9443 23.0622 35.0127 23.5521 35.0127 24.0898V24.8486H29.2158V23.6045H33.2354V23.4678C33.2262 23.1807 33.1715 22.9186 33.0713 22.6816C32.971 22.4401 32.8161 22.2487 32.6064 22.1074C32.3968 21.9616 32.1257 21.8887 31.793 21.8887C31.5241 21.8887 31.2894 21.9479 31.0889 22.0664C30.8929 22.1803 30.7288 22.3444 30.5967 22.5586C30.4691 22.7682 30.3734 23.0189 30.3096 23.3105C30.2458 23.6022 30.2139 23.9258 30.2139 24.2812V24.5547C30.2139 24.8646 30.2549 25.1517 30.3369 25.416C30.4235 25.6803 30.5488 25.9105 30.7129 26.1064C30.8815 26.2979 31.082 26.4482 31.3145 26.5576C31.5514 26.6624 31.8203 26.7148 32.1211 26.7148C32.4993 26.7148 32.8411 26.6419 33.1465 26.4961C33.4564 26.3457 33.7253 26.1247 33.9531 25.833L34.8623 26.7764C34.7074 27.0042 34.4977 27.223 34.2334 27.4326C33.9736 27.6423 33.6592 27.8132 33.29 27.9453C32.9209 28.0729 32.4948 28.1367 32.0117 28.1367ZM38.0273 22.1143V28H36.2227V20.6035H37.9316L38.0273 22.1143ZM40.2764 20.5557L40.249 22.2373C40.1488 22.2191 40.0348 22.2054 39.9072 22.1963C39.7842 22.1872 39.668 22.1826 39.5586 22.1826C39.2806 22.1826 39.0368 22.2214 38.8271 22.2988C38.6175 22.3717 38.4421 22.4788 38.3008 22.6201C38.1641 22.7614 38.0592 22.9346 37.9863 23.1396C37.9134 23.3402 37.8724 23.568 37.8633 23.8232L37.4736 23.7754C37.4736 23.306 37.5215 22.8708 37.6172 22.4697C37.7129 22.0687 37.8519 21.7178 38.0342 21.417C38.2165 21.1162 38.4443 20.8838 38.7178 20.7197C38.9958 20.5511 39.3148 20.4668 39.6748 20.4668C39.7751 20.4668 39.8822 20.4759 39.9961 20.4941C40.1146 20.5078 40.208 20.5283 40.2764 20.5557Z" fill="white"/>
</svg>
