<svg width="48" height="48" viewBox="0 0 48 48" fill="none" xmlns="http://www.w3.org/2000/svg">
<path d="M24 48C37.2548 48 48 37.2548 48 24C48 10.7452 37.2548 0 24 0C10.7452 0 0 10.7452 0 24C0 37.2548 10.7452 48 24 48Z" fill="black"/>
<path d="M29.6028 27.8418C28.4547 30.0178 26.1794 31.502 23.5555 31.502C19.7776 31.502 16.7151 28.4274 16.7151 24.6347C16.7151 20.8421 19.7776 17.7675 23.5555 17.7675C26.1794 17.7675 28.4547 19.2517 29.6028 21.4277H36.7239C35.2952 15.4492 29.9497 11 23.5555 11C16.0689 11 10 17.0928 10 24.6081C10 32.1238 16.0689 38.216 23.5555 38.216C29.9303 38.216 35.2626 33.7932 36.7104 27.8418H29.6028Z" fill="#FFB0C2"/>
<path d="M34.2727 16.1212C35.8015 14.8693 36.7779 12.9629 36.7779 10.8278C36.7779 7.05684 33.7328 4 29.9765 4C26.2199 4 23.1748 7.05684 23.1748 10.8278V10.833C23.3011 10.8296 23.4275 10.8276 23.5546 10.8276C27.9205 10.8276 31.7975 12.9021 34.2727 16.1212Z" fill="#CC91F0"/>
<path d="M29.9811 17.6633C31.6107 17.663 33.1064 17.0879 34.2776 16.1285C31.8029 12.9096 27.926 10.8355 23.5598 10.8361C23.4328 10.8359 23.3064 10.8378 23.1804 10.8414C23.1826 14.6099 26.2265 17.6636 29.9811 17.6633Z" fill="#CC66B8"/>
</svg>
