<svg width="48" height="48" viewBox="0 0 48 48" fill="none" xmlns="http://www.w3.org/2000/svg">
    <circle cx="24" cy="24" r="20" fill="#FFF"/>

    <path d="M28.48 25.12C28.48 24.8 28.48 24.64 28.16 24.48C27.04 23.68 25.76 22.88 24.64 22.08C24.5216 22.0009 24.3824 21.9587 24.24 21.9587C24.0976 21.9587 23.9584 22.0009 23.84 22.08L20.32 24.64C20.1731 24.715 20.0501 24.8297 19.9653 24.9712C19.8804 25.1126 19.837 25.2751 19.84 25.44C19.8325 25.7849 19.721 26.1196 19.52 26.4C19.4409 26.5184 19.3987 26.6576 19.3987 26.8C19.3987 26.9424 19.4409 27.0816 19.52 27.2C20.8 29.76 21.92 32.32 23.2 34.88C23.68 35.68 24 36.64 24.48 37.6C24.64 37.44 24.64 37.28 24.8 37.12C26.24 33.92 27.52 30.72 28.96 27.52C29.12 27.2 29.12 27.04 28.8 26.88C28.6201 26.6284 28.4982 26.3402 28.4428 26.0359C28.3875 25.7316 28.4002 25.4188 28.48 25.12V25.12Z" fill="#CD0124"/>
<path d="M23.0401 20.96C19.8401 18.72 16.6401 16.48 13.6001 14.4L13.4401 14.56C13.6001 14.88 13.6001 15.04 13.7601 15.36L17.1201 22.56C17.4401 23.2 17.6001 23.84 18.5601 24C18.8366 24.0249 19.1144 23.9694 19.3601 23.84C20.3201 23.04 21.4401 22.4 22.4001 21.6L23.0401 20.96Z" fill="#CD0124"/>
<path d="M24 0C19.2533 0 14.6131 1.40758 10.6663 4.04473C6.71955 6.68188 3.64341 10.4302 1.8269 14.8156C0.0103989 19.201 -0.464881 24.0266 0.461164 28.6822C1.38721 33.3377 3.67299 37.6141 7.02945 40.9706C10.3859 44.327 14.6623 46.6128 19.3178 47.5388C23.9734 48.4649 28.799 47.9896 33.1844 46.1731C37.5698 44.3566 41.3181 41.2805 43.9553 37.3337C46.5924 33.3869 48 28.7468 48 24C48 17.6348 45.4714 11.5303 40.9706 7.02944C36.4697 2.52856 30.3652 0 24 0V0ZM36.96 13.92C36.64 13.92 36.48 14.08 36.32 14.4C35.04 17.6 33.6 20.8 32.32 24V24.64C32.4478 24.9105 32.5158 25.2054 32.5192 25.5045C32.5227 25.8036 32.4616 26.1 32.3401 26.3734C32.2186 26.6467 32.0396 26.8907 31.8152 27.0886C31.5908 27.2865 31.3264 27.4336 31.04 27.52C30.88 27.52 30.72 27.68 30.56 28C29.12 31.2 27.68 34.56 26.4 37.76C26.3209 37.8784 26.2787 38.0176 26.2787 38.16C26.2787 38.3024 26.3209 38.4416 26.4 38.56C26.699 38.9704 26.8321 39.4784 26.7728 39.9827C26.7135 40.4869 26.4661 40.9502 26.08 41.28C25.7446 41.6113 25.3006 41.8101 24.83 41.8395C24.3594 41.8689 23.8941 41.727 23.52 41.44C23.3202 41.3036 23.1493 41.1291 23.017 40.9265C22.8847 40.724 22.7937 40.4973 22.7491 40.2595C22.7045 40.0218 22.7073 39.7775 22.7572 39.5408C22.8071 39.3041 22.9032 39.0795 23.04 38.88C23.1185 38.7322 23.1595 38.5674 23.1595 38.4C23.1595 38.2326 23.1185 38.0678 23.04 37.92C21.44 34.72 20 31.52 18.4 28.32C18.3272 28.1574 18.2166 28.0145 18.0775 27.9032C17.9383 27.7919 17.7747 27.7153 17.6 27.68C17.274 27.6258 16.9659 27.4934 16.7022 27.2943C16.4384 27.0952 16.2267 26.8352 16.0852 26.5365C15.9437 26.2378 15.8766 25.9093 15.8897 25.5791C15.9027 25.2488 15.9954 24.9266 16.16 24.64C16.2391 24.5216 16.2813 24.3824 16.2813 24.24C16.2813 24.0976 16.2391 23.9584 16.16 23.84C14.72 20.64 13.28 17.6 11.68 14.4C11.68 14.24 11.52 14.08 11.04 14.08C10.5695 14.0138 10.1366 13.7861 9.81547 13.4358C9.49438 13.0856 9.30508 12.6345 9.28001 12.16C9.30959 11.7155 9.45912 11.2874 9.71269 10.9211C9.96626 10.5548 10.3144 10.2641 10.72 10.08C11.1506 9.91319 11.626 9.90182 12.0641 10.0479C12.5022 10.1939 12.8756 10.4882 13.12 10.88C13.28 11.2 13.44 11.2 13.92 11.2H34.24C34.56 11.2 34.88 11.2 35.04 10.72C35.2583 10.3431 35.6032 10.0559 36.0134 9.90939C36.4235 9.76291 36.8724 9.76667 37.28 9.92C37.6774 10.0705 38.0239 10.3309 38.2788 10.6709C38.5338 11.0108 38.6868 11.4163 38.72 11.84C38.726 12.3404 38.5513 12.8262 38.228 13.2083C37.9047 13.5904 37.4545 13.843 36.96 13.92V13.92Z" fill="#CD0124"/>
<path d="M23.9999 19.84C24.1183 19.9191 24.2575 19.9613 24.3999 19.9613C24.5423 19.9613 24.6815 19.9191 24.7999 19.84C27.8399 17.6 30.8799 15.52 33.7599 13.28C33.9199 13.12 34.0799 13.12 34.0799 12.96V12.8H13.9199C14.103 12.8672 14.2675 12.9768 14.3999 13.12L23.9999 19.84Z" fill="#CD0124"/>
<path d="M25.6 20.96C26.88 21.92 28.16 22.72 29.44 23.52C29.76 23.68 30.24 23.52 30.72 23.52C30.88 23.52 31.04 23.2 31.04 23.04C32.16 20.48 33.28 17.76 34.4 15.2C34.4 15.04 34.56 14.88 34.56 14.72H34.4C31.68 16.64 28.64 18.72 25.6 20.96Z" fill="#CD0124"/>
</svg>
