<svg width="48" height="48" viewBox="0 0 48 48" fill="none" xmlns="http://www.w3.org/2000/svg">
<path d="M24 48C37.2548 48 48 37.2548 48 24C48 10.7452 37.2548 0 24 0C10.7452 0 0 10.7452 0 24C0 37.2548 10.7452 48 24 48Z" fill="white"/>
<g clip-path="url(#clip0_81_2)">
<path d="M24.0008 4L7 13.9996V34.0004L24.0008 44L41.0016 34.0004V13.9996L24.0008 4Z" fill="url(#paint0_linear_81_2)"/>
<path d="M24.0008 4L7 13.9996V34.0004L24.0008 44V4Z" fill="url(#paint1_linear_81_2)"/>
<path d="M30.6276 12.641H17.2861L15.7365 19.5701H32.2636L30.6276 12.641ZM19.653 29.0885V24.4836L15.6941 21.9389L11.2177 25.3163L17.3285 36.1503H19.7831L22.666 33.3866V32.0264L19.653 29.0885Z" fill="white"/>
<path d="M28.3047 20.6234H19.6969L21.1179 24.4836L20.6882 28.8264H27.3166L26.8868 24.4836L28.3047 20.6234Z" fill="white"/>
<path d="M32.2636 21.8942L28.3471 24.482V29.087L25.3779 32.0248V33.3851L28.2608 36.104H30.6716L36.74 25.3147L32.2636 21.8942Z" fill="white"/>
</g>
<defs>
<linearGradient id="paint0_linear_81_2" x1="24.0004" y1="3.99995" x2="24.0004" y2="44.0001" gradientUnits="userSpaceOnUse">
<stop stop-color="#25376C"/>
<stop offset="1" stop-color="#1F1F49"/>
</linearGradient>
<linearGradient id="paint1_linear_81_2" x1="15.5002" y1="44.0001" x2="15.5002" y2="3.99995" gradientUnits="userSpaceOnUse">
<stop stop-color="#25376C"/>
<stop offset="1" stop-color="#1F1F49"/>
</linearGradient>
<clipPath id="clip0_81_2">
<rect width="34" height="40" fill="white" transform="translate(7 4)"/>
</clipPath>
</defs>
</svg>
