<svg id="dai" width="61" height="53" viewBox="0 0 61 53" fill="none" xmlns="http://www.w3.org/2000/svg">
<circle cx="24.0509" cy="27.0509" r="23.0509" fill="#F9B632"/>
<path d="M24.6218 15.6298C27.5558 15.6298 29.9769 16.6762 31.885 18.769C33.8136 20.8412 34.7779 23.3854 34.7779 26.4015C34.7779 29.4175 33.8136 31.972 31.885 34.0648C29.9769 36.137 27.5558 37.1732 24.6218 37.1732H16.3122V15.6298H24.6218ZM24.6218 35.1419C26.9813 35.1419 28.9099 34.3007 30.4077 32.6183C31.926 30.9358 32.6852 28.8636 32.6852 26.4015C32.6852 23.9394 31.926 21.8671 30.4077 20.1847C28.9099 18.5022 26.9813 17.661 24.6218 17.661H18.4665V35.1419H24.6218Z" fill="#FFF"/>
<line x1="12.1826" y1="24.6725" x2="37.6485" y2="24.6725" stroke="#FFF" stroke-width="1.89478"/>
<line x1="12.1826" y1="29.6747" x2="37.6485" y2="29.6747" stroke="#FFF" stroke-width="1.89478"/>
</svg>
