<svg width="48" height="48" viewBox="0 0 48 48" fill="none" xmlns="http://www.w3.org/2000/svg">
<path d="M24 48C37.2548 48 48 37.2548 48 24C48 10.7452 37.2548 0 24 0C10.7452 0 0 10.7452 0 24C0 37.2548 10.7452 48 24 48Z" fill="white"/>
<path d="M15.0212 11.0537L19.6441 8V32.4719C24.1822 32.1962 30.9894 30.8814 31.6892 24.1803C31.6892 24.1803 32.7495 28.2943 30.3108 31.5812C27.7024 35.1014 21.6587 37.4765 15 37.4765V11.0537H15.0212Z" fill="url(#paint0_linear_81_2)"/>
<path d="M24.3308 13.7256V17.7972C26.2181 18.3061 30.5654 19.9814 31.7317 24.2226C31.7317 24.2226 31.7529 24.2863 31.7741 24.4135C31.7741 24.4559 31.7953 24.4771 31.7953 24.5195C31.9862 25.495 32.4103 28.8031 30.3533 31.6023C27.8298 35.0801 21.6164 37.4976 15.0425 37.4976L20.7681 40C20.7681 40 32.9616 39.8303 36.6727 29.1C37.012 28.1669 37.2029 27.1915 37.2453 26.1948C36.8848 18.603 30.6714 14.4042 24.3308 13.7256V13.7256Z" fill="url(#paint1_linear_81_2)"/>
<path d="M34.5732 14.0862C31.9648 10.672 26.1756 8 19.6653 8V32.4719C20.4923 32.4295 21.4042 32.3446 22.3584 32.1962C22.8038 32.1326 23.2491 32.0477 23.6944 31.9417C23.9065 31.8993 24.1398 31.8357 24.3306 31.7933V13.7256C30.6712 14.4042 36.9483 18.6243 37.2239 26.2372C37.2239 26.2372 38.7296 19.5574 34.5732 14.0862V14.0862Z" fill="url(#paint2_linear_81_2)"/>
<defs>
<linearGradient id="paint0_linear_81_2" x1="15.0262" y1="22.7698" x2="31.9365" y2="22.7698" gradientUnits="userSpaceOnUse">
<stop stop-color="#665AFE"/>
<stop offset="1" stop-color="#F1B184"/>
</linearGradient>
<linearGradient id="paint1_linear_81_2" x1="32.8238" y1="18.4354" x2="17.4623" y2="34.6837" gradientUnits="userSpaceOnUse">
<stop stop-color="#5C3598"/>
<stop offset="0.995" stop-color="#CCE0F4"/>
</linearGradient>
<linearGradient id="paint2_linear_81_2" x1="12.4556" y1="23.3912" x2="36.2968" y2="18.7797" gradientUnits="userSpaceOnUse">
<stop stop-color="#B7FEA8"/>
<stop offset="0.16" stop-color="#B5F9AA"/>
<stop offset="0.321" stop-color="#B0EDB0"/>
<stop offset="0.481" stop-color="#A7D9BC"/>
<stop offset="0.642" stop-color="#9CBDCB"/>
<stop offset="0.803" stop-color="#8D99E0"/>
<stop offset="0.962" stop-color="#7A6DF8"/>
<stop offset="1" stop-color="#7662FF"/>
</linearGradient>
</defs>
</svg>
