<svg width="48" height="48" viewBox="0 0 48 48" fill="none" xmlns="http://www.w3.org/2000/svg">
<circle cx="24" cy="24" r="24" fill="#EECB3D"/>
<path fill-rule="evenodd" clip-rule="evenodd" d="M15.3189 25.3691V36.6089H23.7736C23.7736 36.6089 35.6612 37.6052 35.6612 24.203C35.6612 11.3203 24.8056 11.366 22.7075 11.3748L22.7068 11.3748C22.658 11.375 22.6139 11.3752 22.5748 11.3752H15.3186V22.6157H12.3386V25.3691H15.3189ZM23.4164 16.0394H20.0808V22.6155H25.3286V25.3688H20.0808V31.9445H23.5798C23.5905 31.9445 23.602 31.9445 23.6143 31.9445C24.6323 31.9458 30.9605 31.9537 30.9506 24.2938C30.9406 16.5415 24.664 16.0394 23.4164 16.0394Z" fill="#FFF"/>
</svg>
