<svg id="dot" width="48" height="48" viewBox="0 0 48 48" fill="none" xmlns="http://www.w3.org/2000/svg">
<circle cx="24" cy="24" r="24" fill="#FFF"/>
<path d="M24.161 7.5C17.4559 7.52769 12.0269 13.1086 12 20.0012C12 21.3816 12.2167 22.7528 12.6413 24.062C12.9581 24.9532 13.8981 25.4331 14.7805 25.1576C15.6334 24.8214 16.0861 23.8629 15.8142 22.9664C15.4539 21.9459 15.2935 20.8635 15.341 19.7797C15.4872 14.8014 19.531 10.887 24.3739 11.0373C29.2167 11.1876 33.0245 15.3446 32.8783 20.3229C32.7411 24.9835 29.1705 28.7687 24.6419 29.0522C24.6419 29.0522 22.9349 29.159 22.0858 29.2658C21.7729 29.3119 21.4625 29.3752 21.156 29.4556C21.1124 29.5018 21.0418 29.5018 20.997 29.4569L20.9957 29.4556C20.9649 29.4147 20.9649 29.3567 20.9957 29.3159L21.2599 27.834L22.863 20.4218C23.0554 19.4963 22.4821 18.5853 21.5818 18.3875C20.6814 18.1897 19.7952 18.7791 19.6028 19.7046C19.6028 19.7046 15.7899 37.8473 15.7899 38.0121C15.5718 38.8942 16.09 39.7907 16.948 40.0148C16.957 40.0175 16.9672 40.0201 16.9762 40.0214H17.0647C17.9214 40.2495 18.7961 39.7195 19.0167 38.8388C19.0206 38.8243 19.0244 38.8098 19.027 38.794C19.0244 38.7663 19.0244 38.7386 19.027 38.7122C19.0744 38.4986 19.5554 36.0846 19.5554 36.0846C19.9196 34.2626 21.3484 32.8664 23.1362 32.5842C23.5043 32.5262 25.051 32.4194 25.051 32.4194C31.7305 31.7352 36.6054 25.6137 35.9384 18.7474C35.3305 12.4849 30.2838 7.66348 24.161 7.5Z" fill="#1E1E1E"/>
<path d="M24.8984 36.3246C23.8018 36.0899 22.7296 36.8137 22.5013 37.9396C22.4988 37.9502 22.4975 37.9607 22.4949 37.9713C22.2576 39.0906 22.9476 40.1968 24.0378 40.4407C24.0391 40.4407 24.0404 40.4407 24.0416 40.442H24.0981C25.1651 40.707 26.2386 40.032 26.4951 38.9364C26.4977 38.9284 26.499 38.9192 26.5015 38.9113V38.7966C26.6901 37.6654 25.9872 36.5803 24.8984 36.3246Z" fill="#E6007A"/>
</svg>
