<svg width="48" height="48" viewBox="0 0 48 48" fill="none" xmlns="http://www.w3.org/2000/svg">
<path d="M24 48C37.2548 48 48 37.2548 48 24C48 10.7452 37.2548 0 24 0C10.7452 0 0 10.7452 0 24C0 37.2548 10.7452 48 24 48Z" fill="white"/>
<path d="M35.3397 31.866C35.0214 35.5818 30.5049 38.7326 23.7563 38.5639C17.3905 38.3912 12.9344 35.8172 12.6161 32.0897C12.5819 31.6105 12.5994 31.1291 12.6685 30.6536C12.8867 29.2188 13.3904 27.8393 14.1512 26.5925L14.6266 26.8043C15.8749 26.3341 17.1658 25.9794 18.4824 25.7449C20.2171 25.5059 21.9734 25.452 23.7201 25.5841C25.4668 25.452 27.2231 25.5059 28.9578 25.7449C30.2826 25.9779 31.5817 26.3326 32.8377 26.8043L33.3132 26.5925L33.6476 26.4434C34.4155 27.7054 34.9487 29.0895 35.2229 30.5319C35.3009 30.9723 35.3239 31.4202 35.2914 31.866" fill="#F4A427"/>
<path d="M35.3397 31.866C35.0215 35.5818 30.5694 38.5678 23.7563 38.5639C17.3905 38.3912 12.9344 35.8172 12.6161 32.0897C12.5819 31.6105 12.5994 31.1292 12.6685 30.6536C13.3453 30.51 14.0439 30.4927 14.7273 30.6026C16.0247 30.8066 16.7418 31.5796 17.6524 31.9798C18.1842 32.2192 18.708 31.8268 19.1915 31.403C20.4754 30.1744 22.1943 29.4723 23.9941 29.4411C25.8192 29.4176 27.2817 30.116 28.8812 31.5364C29.0389 31.6926 29.227 31.8165 29.4346 31.9007C29.6422 31.985 29.8651 32.0279 30.0899 32.0269C30.5122 31.9162 30.9007 31.7075 31.2221 31.4187C32.4141 30.6382 33.8629 30.3204 35.2833 30.528C35.3613 30.9684 35.3843 31.4163 35.3518 31.8621" fill="white"/>
<path d="M16.633 22.7118C16.1902 23.1411 15.6313 23.4391 15.0214 23.5711L14.7837 23.6143C14.5369 23.678 14.2848 23.72 14.0303 23.7399C13.9762 23.7369 13.9223 23.7304 13.8691 23.7202C13.7309 23.6861 13.5961 23.6402 13.4662 23.5829C13.0327 23.3866 12.6265 23.1374 12.2575 22.8413C11.5124 22.254 10.8547 21.5686 10.3035 20.8049C9.23782 19.3033 8.80154 17.462 9.08389 15.6575C9.36624 13.853 10.3459 12.2218 11.8224 11.0975C11.8917 11.0425 11.9769 11.0101 12.0661 11.0048C12.1553 10.9995 12.244 11.0216 12.3196 11.0679C12.3953 11.1143 12.454 11.1826 12.4877 11.2632C12.5214 11.3438 12.5283 11.4327 12.5073 11.5173C12.2092 12.769 11.9795 14.7309 13.1802 16.4181C14.2076 17.8503 16.4034 19.2236 17.7249 19.1961C18.0231 20.7656 17.5758 21.8172 16.633 22.7275" fill="#F79422"/>
<path d="M16.633 22.7118C16.1902 23.1411 15.6313 23.4391 15.0214 23.5711L14.7837 23.6143C14.5369 23.678 14.2848 23.72 14.0303 23.7399C13.9762 23.7369 13.9223 23.7304 13.8691 23.7202C13.7309 23.6861 13.5961 23.6402 13.4662 23.5829C13.0327 23.3866 12.6265 23.1374 12.2575 22.8413C11.5124 22.254 10.8547 21.5686 10.3035 20.8049C9.23782 19.3033 8.80154 17.462 9.08389 15.6575C9.36624 13.853 10.3459 12.2218 11.8224 11.0975C11.8917 11.0425 11.9769 11.0101 12.0661 11.0048C12.1553 10.9995 12.244 11.0216 12.3196 11.0679C12.3953 11.1143 12.454 11.1826 12.4877 11.2632C12.5214 11.3438 12.5283 11.4327 12.5073 11.5173C12.2092 12.769 11.9795 14.7309 13.1802 16.4181C14.2076 17.8503 16.4034 19.2236 17.7249 19.1961C18.0231 20.7735 17.5758 21.8172 16.633 22.7118Z" stroke="#221F1F" stroke-linejoin="round"/>
<path d="M22.4187 17.2697L21.903 22.3078H21.8707C21.0649 22.4098 19.9852 22.5707 18.4944 22.8022C17.1125 23.014 15.2712 23.9283 14.1874 24.5482L14.0262 23.7556C14.2807 23.7358 14.5329 23.6937 14.7797 23.6301L15.0174 23.5869C15.6273 23.4548 16.1862 23.1569 16.629 22.7276C17.5718 21.833 18.019 20.7893 17.7208 19.1962L17.8699 19.2433C18.3574 18.7396 18.9314 18.3226 19.5661 18.0112C20.4456 17.5568 21.4197 17.3033 22.4146 17.2697" fill="#5A595C"/>
<path d="M22.4187 17.2697L21.903 22.3078H21.8707C21.0649 22.4098 19.9852 22.5707 18.4944 22.8022C17.1125 23.014 15.2712 23.9283 14.1874 24.5482L14.0262 23.7556C14.2807 23.7358 14.5329 23.6937 14.7797 23.6301L15.0174 23.5869C15.6273 23.4548 16.1862 23.1569 16.629 22.7276C17.5718 21.833 18.019 20.7893 17.7208 19.1962L17.8699 19.2433C18.3574 18.7396 18.9314 18.3226 19.5661 18.0112C20.4468 17.5563 21.4223 17.3027 22.4187 17.2697V17.2697Z" stroke="#221F1F" stroke-linejoin="round"/>
<path d="M34.1955 26.2943L33.8571 26.4434L33.5267 26.5925L33.0473 26.8044C31.7912 26.3327 30.4921 25.978 29.1673 25.745C27.4412 25.4248 25.6867 25.2724 23.9296 25.2898V25.2898C22.1725 25.2723 20.418 25.4247 18.6919 25.745C17.367 25.9774 16.0678 26.3321 14.812 26.8044C14.6508 26.7337 14.4937 26.6592 14.3325 26.5925L13.6637 26.2943C13.6838 25.745 13.6637 25.4428 13.6637 24.8935C13.8007 24.8072 13.9739 24.6973 14.1794 24.5835C14.1953 24.5708 14.213 24.5603 14.2318 24.5521C15.2592 23.9322 17.1125 23.0179 18.4824 22.8061C19.9731 22.5746 21.0368 22.4137 21.8587 22.3117C22.3825 22.2803 22.9344 22.2567 23.5066 22.2528C24.3446 22.2528 25.1182 22.2528 25.8837 22.3077C26.7096 22.4098 27.7813 22.5706 29.2922 22.8061C30.6903 23.0179 32.5597 23.9518 33.6315 24.5718L33.6718 24.5914C33.8692 24.7052 34.0344 24.8072 34.1673 24.8935C34.1673 25.4428 34.1472 25.745 34.1673 26.2943" fill="#929497"/>
<path d="M34.1955 26.2943L33.8571 26.4434L33.5267 26.5925L33.0473 26.8044C31.7912 26.3327 30.4921 25.978 29.1673 25.745C27.4364 25.4644 25.6844 25.3252 23.9296 25.329V25.329C22.1749 25.3262 20.423 25.4654 18.6919 25.745C17.367 25.9774 16.0678 26.3321 14.812 26.8044C14.6508 26.7337 14.4937 26.6592 14.3325 26.5925L13.6637 26.2943C13.6838 25.745 13.6637 25.4428 13.6637 24.8935C13.8007 24.8072 13.9739 24.6973 14.1794 24.5835C14.1953 24.5708 14.213 24.5603 14.2318 24.5521C15.2592 23.9322 17.1125 23.0179 18.4824 22.8061C19.9731 22.5746 21.0368 22.4137 21.8587 22.3117C22.3825 22.2803 22.9344 22.2567 23.5066 22.2528C24.3446 22.2528 25.1182 22.2528 25.8837 22.3077C26.7096 22.4098 27.7813 22.5706 29.2922 22.8061C30.6903 23.0179 32.5597 23.9518 33.6315 24.5718L33.6718 24.5914C33.8692 24.7052 34.0344 24.8072 34.1673 24.8935C34.1955 25.4428 34.1593 25.745 34.1955 26.2943Z" stroke="#221F1F" stroke-linecap="round" stroke-linejoin="round"/>
<path d="M25.8957 22.3077C25.1503 22.2646 24.3566 22.241 23.5186 22.2528C22.9465 22.2528 22.3945 22.2803 21.8707 22.3117H21.903L22.4187 17.2736L22.5275 16.2534C22.9365 16.0308 23.3965 15.912 23.8651 15.9081H23.9296C24.3995 15.9116 24.8609 16.0303 25.2712 16.2534L25.376 17.2579V17.2853L25.8957 22.3077Z" fill="#929497"/>
<path d="M25.8957 22.3077C25.1503 22.2646 24.3566 22.241 23.5186 22.2528C22.9465 22.2528 22.3945 22.2803 21.8707 22.3117H21.903L22.4187 17.2736L22.5275 16.2534C22.9365 16.0308 23.3965 15.912 23.8651 15.9081H23.9296C24.3995 15.9116 24.8609 16.0303 25.2712 16.2534L25.376 17.2579V17.2853L25.8957 22.3077Z" stroke="#221F1F" stroke-linecap="round" stroke-linejoin="round"/>
<path d="M35.3478 31.9131C35.0295 35.6289 30.1665 38.611 23.7644 38.611C17.3985 38.4384 12.9465 35.8644 12.6282 32.1368C12.5919 31.6577 12.6095 31.1761 12.6806 30.7007C12.8993 29.2667 13.4015 27.8875 14.1592 26.6396L14.6387 26.8515C15.8947 26.3798 17.1938 26.0251 18.5186 25.7921C20.2481 25.4955 22.0002 25.3419 23.7563 25.333V25.333C25.5133 25.3205 27.2675 25.4742 28.994 25.7921C30.3189 26.0245 31.6181 26.3792 32.874 26.8515L33.3897 26.6396L33.72 26.4905C34.487 27.7534 35.0215 29.137 35.2994 30.5791C35.3706 31.0202 35.3869 31.4682 35.3478 31.9131V31.9131Z" stroke="#221F1F" stroke-linecap="round" stroke-linejoin="round"/>
<path d="M37.3099 20.8049C36.7563 21.5681 36.0975 22.2533 35.3518 22.8414C34.9828 23.1374 34.5767 23.3866 34.1431 23.583L33.9377 23.6653L33.8087 23.7046C33.5227 23.7831 33.3776 23.7046 32.8377 23.6143L32.6 23.5712C31.9904 23.4383 31.4318 23.1404 30.9884 22.7119C30.0456 21.8173 29.5984 20.7735 29.9006 19.1805C31.206 19.208 33.4139 17.8346 34.4413 16.4025C35.65 14.7309 35.4042 12.769 35.1182 11.5174C35.0961 11.4321 35.1024 11.3422 35.1361 11.2606C35.1698 11.1791 35.2292 11.11 35.3058 11.0633C35.3823 11.0167 35.4721 10.9949 35.5622 11.001C35.6522 11.0072 35.738 11.0409 35.8071 11.0975C37.2809 12.2241 38.2576 13.856 38.5376 15.6602C38.8176 17.4643 38.38 19.3045 37.314 20.8049" fill="#F79422"/>
<path d="M37.3099 20.8049C36.7563 21.5681 36.0975 22.2533 35.3518 22.8414C34.9828 23.1374 34.5767 23.3866 34.1431 23.583L33.9377 23.6653L33.8087 23.7046C33.5227 23.7831 33.3776 23.7046 32.8377 23.6143L32.6 23.5712C31.9904 23.4383 31.4318 23.1404 30.9884 22.7119C30.0456 21.8173 29.5984 20.7735 29.9006 19.1805C31.206 19.208 33.4139 17.8346 34.4413 16.4025C35.65 14.7309 35.4042 12.769 35.1182 11.5174C35.0961 11.4321 35.1024 11.3422 35.1361 11.2606C35.1698 11.1791 35.2292 11.11 35.3058 11.0633C35.3823 11.0167 35.4721 10.9949 35.5622 11.001C35.6522 11.0072 35.738 11.0409 35.8071 11.0975C37.2803 12.2246 38.2561 13.8569 38.5354 15.661C38.8147 17.465 38.3764 19.3049 37.3099 20.8049Z" stroke="#221F1F" stroke-linejoin="round"/>
<path d="M33.8168 23.7046L33.6435 24.5717C32.5718 23.9518 30.7023 23.0022 29.3043 22.806C27.7934 22.5706 26.7217 22.4137 25.8957 22.3077L25.376 17.2814C26.3133 17.3298 27.2281 17.579 28.0553 18.0112C28.695 18.3204 29.2734 18.7375 29.7636 19.2433L29.9167 19.1962C29.6145 20.7657 30.0617 21.8172 31.0045 22.7276C31.4479 23.1561 32.0065 23.454 32.6161 23.5869C32.6524 23.5869 32.8176 23.6653 32.8538 23.6732C33.1668 23.7761 33.5029 23.7924 33.8248 23.7203" fill="#5A595C"/>
<path d="M33.8168 23.7046L33.6435 24.5717C32.5718 23.9518 30.7023 23.0022 29.3043 22.806C27.7934 22.5706 26.7217 22.4137 25.8957 22.3077L25.376 17.2814C26.3133 17.3298 27.2281 17.579 28.0553 18.0112C28.695 18.3204 29.2734 18.7375 29.7636 19.2433L29.9167 19.1962C29.6145 20.7657 30.0617 21.8172 31.0045 22.7276C31.4479 23.1561 32.0065 23.454 32.6161 23.5869L32.8538 23.63C33.3897 23.7164 33.5307 23.7831 33.8168 23.7046Z" stroke="#221F1F" stroke-linejoin="round"/>
<path d="M33.8531 23.5123C33.9218 23.597 33.971 23.695 33.9975 23.7999C34.0239 23.9047 34.0269 24.0138 34.0063 24.1198C33.9857 24.2259 33.9419 24.3263 33.8779 24.4145C33.8139 24.5026 33.7313 24.5763 33.6355 24.6306" fill="#F79422"/>
<path d="M33.8531 23.5123C33.9218 23.597 33.971 23.695 33.9975 23.7999C34.0239 23.9047 34.0269 24.0138 34.0063 24.1198C33.9857 24.2259 33.9419 24.3263 33.8779 24.4145C33.8139 24.5026 33.7313 24.5763 33.6355 24.6306" stroke="#221F1F" stroke-miterlimit="10"/>
<path d="M13.978 23.5123C13.9094 23.5972 13.8604 23.6955 13.8343 23.8005C13.8081 23.9055 13.8055 24.0147 13.8265 24.1208C13.8475 24.2268 13.8917 24.3272 13.9561 24.4152C14.0205 24.5032 14.1035 24.5766 14.1996 24.6306" fill="#F79422"/>
<path d="M13.978 23.5123C13.9094 23.5972 13.8604 23.6955 13.8343 23.8005C13.8081 23.9055 13.8055 24.0147 13.8265 24.1208C13.8475 24.2268 13.8917 24.3272 13.9561 24.4152C14.0205 24.5032 14.1035 24.5766 14.1996 24.6306" stroke="#221F1F" stroke-miterlimit="10"/>
<path d="M22.4106 33.3963C22.703 33.4582 23.0081 33.4222 23.2769 33.2943C23.4937 33.2125 23.6784 33.066 23.8043 32.8756C23.9303 32.6853 23.9911 32.4609 23.9779 32.2349C23.956 32.4624 24.0133 32.6905 24.1404 32.8826C24.2675 33.0747 24.4572 33.2197 24.679 33.2943C24.9464 33.4219 25.2502 33.4579 25.5412 33.3963" stroke="#171717" stroke-linecap="round" stroke-linejoin="round"/>
<path d="M25.5412 30.9126C25.5412 31.3677 24.8119 32.0151 23.9296 32.0151C23.0472 32.0151 22.318 31.3952 22.318 30.9361C22.318 30.477 23.0472 30.3201 23.9296 30.3201C24.8119 30.3201 25.5412 30.4535 25.5412 30.9126Z" fill="#171717"/>
<path d="M24.6024 30.736C24.6024 30.8419 24.2922 30.991 23.9134 30.991C23.5347 30.991 23.2285 30.8458 23.2285 30.7399C23.2285 30.6339 23.5347 30.6536 23.9134 30.6536C24.2922 30.6536 24.6024 30.6261 24.6024 30.736Z" fill="white"/>
<path d="M21.4155 32.2427C21.393 32.5056 21.4717 32.7672 21.6363 32.9768C21.8008 33.1864 22.0395 33.3289 22.3059 33.3766H22.4107" stroke="#171717" stroke-linecap="round" stroke-linejoin="round"/>
<path d="M23.9739 31.6973C23.9739 31.9013 23.9739 32.0426 23.9739 32.2348" stroke="#171717" stroke-linecap="round" stroke-linejoin="round"/>
<path d="M25.5411 33.3963H25.6499C25.9201 33.3483 26.1618 33.2029 26.3268 32.9891C26.4919 32.7753 26.5681 32.5088 26.5403 32.2427" stroke="#171717" stroke-linecap="round" stroke-linejoin="round"/>
<path d="M35.8071 11.0975C37.2809 12.2241 38.2576 13.856 38.5376 15.6602C38.8177 17.4643 38.38 19.3045 37.314 20.8049" stroke="#221F1F" stroke-linejoin="round"/>
<path d="M16.633 22.7118C16.1902 23.1411 15.6313 23.4391 15.0214 23.5711L14.7837 23.6143C14.5369 23.678 14.2848 23.72 14.0303 23.7399C13.9762 23.7369 13.9223 23.7304 13.8691 23.7202C13.7309 23.6861 13.5961 23.6402 13.4662 23.5829C13.0327 23.3866 12.6265 23.1374 12.2575 22.8413C11.5124 22.254 10.8547 21.5686 10.3035 20.8049C9.23782 19.3033 8.80154 17.462 9.08389 15.6575C9.36624 13.853 10.3459 12.2218 11.8224 11.0975C11.8917 11.0425 11.9769 11.0101 12.0661 11.0048C12.1553 10.9995 12.244 11.0216 12.3196 11.0679C12.3953 11.1143 12.454 11.1826 12.4877 11.2632C12.5214 11.3438 12.5283 11.4327 12.5073 11.5173C12.2092 12.769 11.9795 14.7309 13.1802 16.4181C14.2076 17.8503 16.4034 19.2236 17.7249 19.1961C18.0231 20.7735 17.5758 21.8172 16.633 22.7118Z" stroke="#221F1F" stroke-linejoin="round"/>
<path d="M20.9925 28.3503C20.9925 29.2057 20.4767 29.8962 19.8402 29.8962C19.2036 29.8962 18.6919 29.2057 18.6919 28.3503C18.6919 27.6008 19.0948 26.973 19.6145 26.8318L20.8998 27.7813C20.9579 27.9658 20.9891 28.1573 20.9925 28.3503V28.3503Z" fill="#221F1F"/>
<path d="M20.5653 28.1463C20.5653 28.4484 20.384 28.6995 20.1624 28.6995C19.9408 28.6995 19.7595 28.4484 19.7595 28.1463C19.7595 27.8442 19.9449 27.5891 20.1624 27.5891C20.38 27.5891 20.5653 27.8402 20.5653 28.1463Z" fill="white"/>
<path d="M19.5863 29.5078C19.1462 29.8622 18.7415 30.2564 18.3776 30.6849C18.2036 30.8959 18.0561 31.1265 17.9384 31.3716C17.819 31.6209 17.735 31.8849 17.6886 32.1563C17.6644 32.2897 17.6443 32.431 17.6282 32.5683L17.608 32.7802V32.9921C17.5919 33.2757 17.5919 33.5599 17.608 33.8435C17.6313 34.1296 17.673 34.414 17.7329 34.695C17.7611 34.8363 17.7933 34.9775 17.8336 35.1148C17.8701 35.2495 17.9187 35.3808 17.9787 35.5072C17.903 35.382 17.8383 35.2507 17.7853 35.1148C17.7289 34.9814 17.6805 34.8441 17.6322 34.7225C17.5405 34.443 17.4651 34.1588 17.4066 33.871C17.3499 33.5817 17.3096 33.2896 17.2857 32.996L17.2736 32.7802V32.5566C17.2723 32.4072 17.279 32.2579 17.2937 32.1092C17.318 31.8012 17.3844 31.4977 17.4912 31.2068C17.5978 30.9166 17.7399 30.64 17.9142 30.3828C18.2596 29.8851 18.6521 29.4201 19.0867 28.9938C19.1552 28.9311 19.2458 28.8965 19.3398 28.8971C19.4338 28.8977 19.524 28.9334 19.5917 28.9968C19.6594 29.0603 19.6996 29.1466 19.7038 29.2381C19.708 29.3295 19.6761 29.419 19.6145 29.4882L19.5903 29.5117L19.5863 29.5078Z" fill="#221F1F"/>
<path d="M19.3204 29.394C19.2925 29.3996 19.2637 29.3996 19.2358 29.394H19.1875H19.0948L18.9095 29.3548C18.7859 29.3307 18.6606 29.3163 18.5348 29.3116C18.2818 29.2951 18.0277 29.3162 17.7813 29.3744C17.6565 29.4045 17.535 29.4465 17.4187 29.5C17.0527 29.6662 16.7425 29.9302 16.5243 30.2612C16.6254 30.0049 16.7727 29.7684 16.9594 29.5627C17.0541 29.4561 17.1594 29.3589 17.2737 29.2724C17.3906 29.1847 17.5161 29.1085 17.6484 29.0448C17.9079 28.8985 18.1893 28.7926 18.4824 28.7309C18.6305 28.7075 18.7798 28.6917 18.9296 28.6838C19.0062 28.6838 19.0827 28.6838 19.1552 28.6838H19.3204C19.3204 28.6838 19.3567 28.6838 19.3204 28.6838C19.3714 28.6813 19.4224 28.6892 19.4702 28.7069C19.5179 28.7247 19.5612 28.752 19.5975 28.7871C19.6337 28.8221 19.662 28.8642 19.6806 28.9105C19.6992 28.9569 19.7076 29.0065 19.7054 29.0562C19.7031 29.1059 19.6902 29.1546 19.6675 29.1991C19.6448 29.2437 19.6128 29.2832 19.5735 29.315C19.5342 29.3468 19.4886 29.3702 19.4394 29.3838C19.3903 29.3975 19.3388 29.4009 19.2882 29.394" fill="#221F1F"/>
<path d="M29.264 28.3503C29.264 29.2057 28.7482 29.8962 28.1157 29.8962C27.4831 29.8962 26.9634 29.2057 26.9634 28.3503C26.9625 28.1553 26.9896 27.9612 27.044 27.7735L28.3333 26.8318C28.8651 26.9691 29.264 27.5969 29.264 28.3503Z" fill="#221F1F"/>
<path d="M27.3865 28.1463C27.3865 28.4484 27.5718 28.6995 27.7894 28.6995C28.0069 28.6995 28.1923 28.4484 28.1923 28.1463C28.1923 27.8442 28.0069 27.5891 27.7894 27.5891C27.5718 27.5891 27.3865 27.8402 27.3865 28.1463Z" fill="white"/>
<path d="M28.8692 28.9899C29.2938 29.4101 29.6781 29.8671 30.0174 30.3554C30.1908 30.6017 30.338 30.8647 30.4566 31.1401C30.5733 31.4209 30.6532 31.7149 30.6943 32.0151C30.7306 32.311 30.7306 32.61 30.6943 32.9058C30.6621 33.1923 30.6137 33.4787 30.5533 33.7612C30.4956 34.0423 30.4216 34.32 30.3317 34.593C30.2833 34.7304 30.239 34.8638 30.1826 34.9854C30.13 35.1214 30.0653 35.2527 29.9892 35.3778C30.0493 35.251 30.0991 35.1198 30.1383 34.9854C30.1786 34.852 30.2108 34.7147 30.2431 34.5734C30.3034 34.2975 30.3478 34.0184 30.376 33.7377C30.4042 33.4551 30.4163 33.1726 30.4203 32.8941C30.4216 32.621 30.3919 32.3486 30.3317 32.0818C30.267 31.8208 30.1681 31.5689 30.0376 31.3324C29.9052 31.0962 29.7501 30.8729 29.5742 30.6654C29.2078 30.239 28.8033 29.8451 28.3655 29.4882V29.4882C28.2993 29.4249 28.2601 29.3393 28.2561 29.249C28.252 29.1586 28.2834 29.0701 28.3437 29.0014C28.4041 28.9326 28.489 28.8887 28.5813 28.8786C28.6736 28.8685 28.7664 28.8928 28.841 28.9467L28.8692 28.9703" fill="#221F1F"/>
<path d="M28.6032 28.6838H28.8006C28.8785 28.6799 28.9565 28.6799 29.0343 28.6838C29.1907 28.6889 29.3467 28.702 29.5017 28.723C29.8127 28.767 30.1163 28.8514 30.4042 28.9742C30.6879 29.0953 30.945 29.2685 31.1616 29.4842C31.3713 29.6928 31.5369 29.9395 31.6491 30.2101C31.4889 29.9776 31.2836 29.7776 31.0448 29.6216C30.8154 29.4712 30.5581 29.3659 30.2873 29.3116C30.0224 29.2587 29.7515 29.2402 29.4815 29.2567C29.3464 29.2646 29.2119 29.2803 29.0786 29.3038L28.8772 29.343H28.7805H28.7281H28.6959H28.6435C28.5929 29.3499 28.5414 29.3464 28.4923 29.3328C28.4431 29.3192 28.3975 29.2957 28.3582 29.2639C28.3189 29.2321 28.2869 29.1927 28.2642 29.1481C28.2415 29.1036 28.2286 29.0549 28.2263 29.0052C28.2241 28.9555 28.2325 28.9058 28.2511 28.8595C28.2697 28.8132 28.298 28.7711 28.3342 28.736C28.3705 28.701 28.4138 28.6737 28.4615 28.6559C28.5093 28.6381 28.5603 28.6303 28.6113 28.6328" fill="#221F1F"/>
</svg>
