<svg width="48" height="48" viewBox="0 0 48 48" fill="none" xmlns="http://www.w3.org/2000/svg">
<path d="M24 48C37.2548 48 48 37.2548 48 24C48 10.7452 37.2548 0 24 0C10.7452 0 0 10.7452 0 24C0 37.2548 10.7452 48 24 48Z" fill="#13B5EC"/>
<path fill-rule="evenodd" clip-rule="evenodd" d="M25.8 19.35L31.2 16.2V22.5L25.8 19.35ZM31.2 32.85L24 37.05L16.8 32.85V25.5L24 29.7L31.2 25.5V32.85ZM16.8 16.2L22.2 19.35L16.8 22.5V16.2ZM24.9 20.85L30.3 24L24.9 27.15V20.85ZM23.1 27.15L17.7 24L23.1 20.85V27.15ZM30.3 14.7L24 18.3L17.7 14.7L24 10.95L30.3 14.7ZM15 14.1V33.75L24 38.85L33 33.75V14.1L24 9L15 14.1Z" fill="#fff"/>
</svg>
