<svg id="grt" width="48" height="48" viewBox="0 0 48 48" fill="none" xmlns="http://www.w3.org/2000/svg">
<path d="M24 48C37.2548 48 48 37.2548 48 24C48 10.7452 37.2548 0 24 0C10.7452 0 0 10.7452 0 24C0 37.2548 10.7452 48 24 48Z" fill="#000"/>
<path fill-rule="evenodd" clip-rule="evenodd" d="M21.9521 27.1703C17.8791 27.1703 14.5771 23.8685 14.5771 19.7953C14.5771 15.7221 17.8791 12.4203 21.9521 12.4203C26.0253 12.4203 29.3271 15.7221 29.3271 19.7953C29.3271 23.8685 26.0253 27.1703 21.9521 27.1703ZM21.9521 8.73284C28.0617 8.73284 33.0146 13.6857 33.0146 19.7953C33.0146 25.9049 28.0617 30.8578 21.9521 30.8578C15.8425 30.8578 10.8896 25.9049 10.8896 19.7953C10.8896 13.6857 15.8425 8.73284 21.9521 8.73284ZM32.4746 31.3977C33.1947 32.1178 33.1947 33.285 32.4746 34.0051L25.0994 41.3803C24.3794 42.1004 23.2121 42.1004 22.492 41.3803C21.772 40.6602 21.772 39.493 22.492 38.7729L29.8672 31.3977C30.5873 30.6776 31.7546 30.6776 32.4746 31.3977ZM36.7021 10.5766C36.7021 11.595 35.8767 12.4203 34.8585 12.4203C33.8401 12.4203 33.0148 11.595 33.0148 10.5766C33.0148 9.55817 33.8401 8.73284 34.8585 8.73284C35.8767 8.73284 36.7021 9.55817 36.7021 10.5766Z" fill="#00FFFF"/>
</svg>
