<svg id="kcs" width="48" height="48" viewBox="0 0 48 48" fill="none" xmlns="http://www.w3.org/2000/svg">
    <path d="M24 48C37.2548 48 48 37.2548 48 24C48 10.7452 37.2548 0 24 0C10.7452 0 0 10.7452 0 24C0 37.2548 10.7452 48 24 48Z" fill="#55AC92"/>
    <path d="M13.551 36.4667C14.9587 36.4667 16.1021 35.3237 16.1021 33.9166V14.1006C16.1021 12.6936 14.9587 11.5506 13.551 11.5506C12.1434 11.5506 11 12.6936 11 14.1006V33.9166C11.0043 35.3237 12.1434 36.4667 13.551 36.4667V36.4667Z" fill="#FFF"/>
    <path d="M30.0224 38.008C31.0143 37.0079 31.0056 35.393 30.0051 34.4059L15.9116 20.465C14.9111 19.4735 13.2956 19.4822 12.3081 20.4823C11.3162 21.4824 11.3249 23.0973 12.3254 24.0844L26.4189 38.021C27.4194 39.0168 29.0349 39.0081 30.0224 38.008V38.008Z" fill="#FFF"/>
    <path d="M30.0224 10.0266C31.0143 11.0267 31.0056 12.6416 30.0051 13.6287L15.9116 27.5653C14.9111 28.5568 13.2956 28.5481 12.3081 27.548C11.3162 26.5479 11.3249 24.933 12.3254 23.9459L26.4189 10.0093C27.4194 9.0135 29.0349 9.02216 30.0224 10.0266V10.0266Z" fill="#FFF"/>
    <path d="M37.7098 20.7247C38.7017 19.7246 38.6973 18.1097 37.7012 17.1183L30.2863 9.74086C29.2858 8.74941 27.6703 8.75374 26.6784 9.74952C25.6866 10.7496 25.6909 12.3645 26.6871 13.356L34.102 20.7334C35.0982 21.7248 36.7137 21.7205 37.7098 20.7247V20.7247Z" fill="#FFF"/>
    <path d="M37.7098 27.2752C38.7017 28.2753 38.6973 29.8902 37.7012 30.8817L30.2863 38.2591C29.2858 39.2506 27.6703 39.2462 26.6784 38.2505C25.6866 37.2503 25.6909 35.6354 26.6871 34.644L34.102 27.2666C35.1025 26.2751 36.718 26.2751 37.7098 27.2752Z" fill="#FFF"/>
    <path d="M28.5021 21.4261C29.923 21.4261 31.0748 22.5775 31.0748 23.9978C31.0748 25.4181 29.923 26.5695 28.5021 26.5695C27.0813 26.5695 25.9294 25.4181 25.9294 23.9978C25.9294 22.5775 27.0813 21.4261 28.5021 21.4261Z" fill="#FFF"/>
</svg>
