<svg width="44" height="44" viewBox="0 0 44 44" fill="none" xmlns="http://www.w3.org/2000/svg">
<circle cx="22" cy="22" r="21.5" fill="#080B3A" stroke="#0B5079"/>
<path d="M21.8283 35.1337C17.6275 35.1337 14.2589 32.4332 13.0304 28.1044C11.366 22.3855 13.6249 14.125 22.3435 8.60477L23.572 7.8502V9.27991C23.572 14.2045 25.5535 17.0241 27.4558 19.7247C29.0013 21.909 30.4676 24.0138 30.4676 26.8732C30.428 30.9638 27.4954 35.1337 21.8283 35.1337ZM22.0661 10.7493C14.9723 15.7533 13.1097 22.7827 14.5364 27.6675C15.6064 31.3212 18.3012 33.5055 21.8283 33.5055C26.6632 33.5055 28.8428 30.0504 28.8428 26.8732C28.8428 24.4904 27.5747 22.7033 26.148 20.6381C24.3646 18.1361 22.3831 15.3164 22.0661 10.7493Z" fill="#4DD9F6"/>
<path d="M20.2435 34.8558C19.8076 34.8558 19.4113 34.8161 18.9753 34.6969L19.3716 33.1481C20.6002 33.4658 21.8287 33.0687 22.542 32.0758C23.6517 30.5667 23.4139 28.2633 21.908 25.8407C18.1431 19.8439 18.2224 13.9265 22.1854 8.80339L23.4535 9.75653C19.8868 14.4031 19.8472 19.5262 23.295 25.0067C25.1576 27.9853 25.3954 30.9638 23.8895 33.029C22.9383 34.1807 21.6306 34.8558 20.2435 34.8558Z" fill="#4DD9F6"/>
</svg>
