<svg id="ltc" width="48" height="48" viewBox="0 0 48 48" fill="none" xmlns="http://www.w3.org/2000/svg">
<path d="M24 45.4024C35.8202 45.4024 45.4024 35.8203 45.4024 24C45.4024 12.1798 35.8202 2.5976 24 2.5976C12.1798 2.5976 2.59758 12.1798 2.59758 24C2.59758 35.8203 12.1798 45.4024 24 45.4024Z" fill="#FFF"/>
<path d="M24 0C19.2532 0 14.6131 1.40758 10.6663 4.04473C6.71953 6.68188 3.64339 10.4302 1.82689 14.8156C0.0103835 19.201 -0.464896 24.0266 0.461149 28.6822C1.38719 33.3377 3.67297 37.6141 7.02943 40.9706C10.3859 44.327 14.6623 46.6128 19.3178 47.5388C23.9734 48.4649 28.799 47.9896 33.1844 46.1731C37.5698 44.3566 41.3181 41.2805 43.9553 37.3337C46.5924 33.3869 48 28.7468 48 24C48.0092 20.8574 47.3993 17.7438 46.2051 14.837C45.011 11.9301 43.256 9.2869 41.0403 7.05829C38.8247 4.82968 36.1917 3.05931 33.2919 1.84824C30.392 0.637178 27.282 0.00914422 24.1395 0H24ZM24.4068 24.8136L21.908 33.2397H35.2736C35.3621 33.2366 35.4504 33.251 35.5334 33.282C35.6164 33.3131 35.6924 33.3601 35.7572 33.4206C35.8219 33.481 35.8742 33.5537 35.9108 33.6343C35.9475 33.7149 35.9679 33.802 35.9709 33.8906V34.1114L34.8087 38.1211C34.7575 38.3107 34.6433 38.4772 34.4849 38.5934C34.3265 38.7096 34.1333 38.7684 33.937 38.7603H13.4818L16.9104 27.0799L13.0751 28.2421L13.9467 25.569L17.7821 24.4068L22.6053 8.01937C22.6584 7.83081 22.7731 7.66545 22.931 7.5496C23.089 7.43376 23.2812 7.37411 23.477 7.38015H28.6489C28.7374 7.37704 28.8257 7.39142 28.9087 7.42245C28.9917 7.45349 29.0677 7.50058 29.1325 7.56102C29.1972 7.62147 29.2495 7.69409 29.2861 7.77473C29.3228 7.85537 29.3432 7.94245 29.3462 8.03099V8.25182L25.2784 22.0823L29.1138 20.9201L28.3002 23.7094L24.4068 24.8136Z" fill="#345D9D"/>
</svg>
