<svg width="500" height="500" viewBox="0 0 500 500" fill="none" xmlns="http://www.w3.org/2000/svg">
<path d="M250 500C388.071 500 500 388.071 500 250C500 111.929 388.071 0 250 0C111.929 0 0 111.929 0 250C0 388.071 111.929 500 250 500Z" fill="url(#paint0_linear_2951_2701)"/>
<path d="M250.002 449.649C360.265 449.649 449.651 360.263 449.651 250C449.651 139.737 360.265 50.3508 250.002 50.3508C139.738 50.3508 50.3525 139.737 50.3525 250C50.3525 360.263 139.738 449.649 250.002 449.649Z" stroke="url(#paint1_linear_2951_2701)" stroke-width="5.84795"/>
<path d="M344.445 151.169H320.059L248.275 302.748L176.754 151.169H152.047V351.491H179.298V219.035L241.638 351.491H255L317.105 219.035V351.491H344.357L344.445 151.169Z" fill="white"/>
<path d="M112.076 208.684H384.503V237.368H112.076V208.684Z" fill="white"/>
<path d="M112.076 273.216H384.503V301.9H112.076V273.216Z" fill="white"/>
<defs>
<linearGradient id="paint0_linear_2951_2701" x1="250" y1="0" x2="250" y2="500" gradientUnits="userSpaceOnUse">
<stop stop-color="#FFA6AA"/>
<stop offset="0.21" stop-color="#FB7C83"/>
<stop offset="0.52" stop-color="#FA515A"/>
<stop offset="1" stop-color="#FF5C65"/>
</linearGradient>
<linearGradient id="paint1_linear_2951_2701" x1="250.002" y1="47.4268" x2="250.002" y2="452.602" gradientUnits="userSpaceOnUse">
<stop stop-color="#E3252E"/>
<stop offset="1" stop-color="#FF898F"/>
</linearGradient>
</defs>
</svg>
