<svg width="48" height="48" viewBox="0 0 48 48" fill="none" xmlns="http://www.w3.org/2000/svg">
<path d="M24 48C37.2548 48 48 37.2548 48 24C48 10.7452 37.2548 0 24 0C10.7452 0 0 10.7452 0 24C0 37.2548 10.7452 48 24 48Z" fill="url(#paint0_linear_81_2)"/>
<path fill-rule="evenodd" clip-rule="evenodd" d="M17.004 15.6V33.6H32.004L17.004 15.6Z" fill="url(#paint1_linear_81_2)"/>
<path fill-rule="evenodd" clip-rule="evenodd" d="M2.00403 33.6H17.004V15.6L2.00403 33.6Z" fill="white"/>
<path fill-rule="evenodd" clip-rule="evenodd" d="M4.80005 38.4C6.16805 40.212 7.78805 41.832 9.60005 43.2H38.4C40.212 41.832 41.832 40.212 43.2 38.4H4.80005Z" fill="#FC9965"/>
<path fill-rule="evenodd" clip-rule="evenodd" d="M9.59998 43.2C13.608 46.212 18.6 48 24 48C29.4 48 34.392 46.212 38.4 43.2H9.59998Z" fill="#FF2D55"/>
<path fill-rule="evenodd" clip-rule="evenodd" d="M32.196 25.2V38.3999H43.2L32.196 25.2Z" fill="url(#paint2_linear_81_2)"/>
<path fill-rule="evenodd" clip-rule="evenodd" d="M32.196 33.6H2.00403C2.74803 35.316 3.69603 36.924 4.80003 38.4H32.208V33.6H32.196V33.6Z" fill="#FFBC5B"/>
<path fill-rule="evenodd" clip-rule="evenodd" d="M21.204 38.3999H32.196V25.2L21.204 38.3999Z" fill="white"/>
<path d="M32.196 21.6C35.5098 21.6 38.196 18.9137 38.196 15.6C38.196 12.2863 35.5098 9.59998 32.196 9.59998C28.8823 9.59998 26.196 12.2863 26.196 15.6C26.196 18.9137 28.8823 21.6 32.196 21.6Z" fill="#FFC95B"/>
<path d="M17.004 12C18.6609 12 20.004 10.6569 20.004 9C20.004 7.34315 18.6609 6 17.004 6C15.3472 6 14.004 7.34315 14.004 9C14.004 10.6569 15.3472 12 17.004 12Z" fill="#FFC95B"/>
<defs>
<linearGradient id="paint0_linear_81_2" x1="40.9704" y1="7.0296" x2="7.0296" y2="40.9704" gradientUnits="userSpaceOnUse">
<stop stop-color="#FF2D55"/>
<stop offset="1" stop-color="#FFBC5B"/>
</linearGradient>
<linearGradient id="paint1_linear_81_2" x1="24.4989" y1="15.6" x2="24.4989" y2="33.6" gradientUnits="userSpaceOnUse">
<stop stop-color="#A524B3"/>
<stop offset="1" stop-color="#FF2D55"/>
</linearGradient>
<linearGradient id="paint2_linear_81_2" x1="37.6943" y1="25.2" x2="37.6943" y2="38.3999" gradientUnits="userSpaceOnUse">
<stop stop-color="#A524B3"/>
<stop offset="1" stop-color="#FF2D55"/>
</linearGradient>
</defs>
</svg>
