<svg width="48" height="48" viewBox="0 0 48 48" fill="none" xmlns="http://www.w3.org/2000/svg">
<circle cx="24" cy="24" r="24" fill="#FFF"/>
<path d="M32.2298 18.5274C31.6449 18.1932 30.893 18.1932 30.2245 18.5274L25.5457 21.2846L22.3708 23.0392L17.7755 25.7964C17.1906 26.1306 16.4386 26.1306 15.7702 25.7964L12.1775 23.624C11.5927 23.2898 11.1749 22.6214 11.1749 21.8695V17.6919C11.1749 17.0235 11.5091 16.3551 12.1775 15.9374L15.7702 13.8486C16.3551 13.5144 17.107 13.5144 17.7755 13.8486L21.3681 16.0209C21.953 16.3551 22.3708 17.0235 22.3708 17.7755V20.5327L25.5457 18.6945V15.8538C25.5457 15.1854 25.2115 14.517 24.5431 14.0992L17.859 10.1723C17.2742 9.83814 16.5222 9.83814 15.8538 10.1723L9.00261 14.1828C8.3342 14.517 8 15.1854 8 15.8538V23.7076C8 24.376 8.3342 25.0444 9.00261 25.4622L15.7702 29.3891C16.3551 29.7233 17.107 29.7233 17.7755 29.3891L22.3708 26.7154L25.5457 24.8773L30.141 22.2037C30.7258 21.8695 31.4778 21.8695 32.1462 22.2037L35.7389 24.2925C36.3238 24.6267 36.7415 25.2951 36.7415 26.047V30.2246C36.7415 30.893 36.4073 31.5614 35.7389 31.9791L32.2298 34.0679C31.6449 34.4021 30.893 34.4021 30.2245 34.0679L26.6319 31.9791C26.047 31.6449 25.6292 30.9765 25.6292 30.2246V27.5509L22.4543 29.3891V32.1462C22.4543 32.8146 22.7885 33.4831 23.4569 33.9008L30.2245 37.8277C30.8094 38.1619 31.5614 38.1619 32.2298 37.8277L38.9974 33.9008C39.5822 33.5666 40 32.8982 40 32.1462V24.2089C40 23.5405 39.6658 22.8721 38.9974 22.4543L32.2298 18.5274Z" fill="#8247E5"/>
</svg>
