<svg fill="none" height="24" viewBox="0 0 24 24" width="24" xmlns="http://www.w3.org/2000/svg"><circle cx="12" cy="12" fill="#9797b3" r="12"/><circle cx="12" cy="12" r="10.5" stroke="#fff"/><path d="m12.8568 6.42372c-.3887-.64582-1.3249-.64582-1.7136 0l-1.22887 2.04194c-.13962.23202-.36737.39748-.63118.45858l-2.32174.53772c-.73431.17007-1.02364 1.06054-.52953 1.62974l1.56226 1.7997c.17751.2045.2645.4722.24109.742l-.20606 2.3743c-.06517.7509.69231 1.3013 1.38635 1.0072l2.19438-.9296c.2493-.1057.5309-.1057.7802 0l2.1944.9296c.694.2941 1.4515-.2563 1.3863-1.0072l-.206-2.3743c-.0234-.2698.0636-.5375.2411-.742l1.5622-1.7997c.4941-.5692.2048-1.45967-.5295-1.62974l-2.3218-.53772c-.2638-.0611-.4915-.22656-.6311-.45858z" fill="#fff"/></svg>