<svg id="omg" width="48" height="48" viewBox="0 0 48 48" fill="none" xmlns="http://www.w3.org/2000/svg">
<path d="M24 48C37.2548 48 48 37.2548 48 24C48 10.7452 37.2548 0 24 0C10.7452 0 0 10.7452 0 24C0 37.2548 10.7452 48 24 48Z" fill="#1A53F0"/>
<path d="M17.7844 25.935C14.1799 25.935 11.2579 28.8597 11.2579 32.4675C11.2579 36.0753 14.1803 39 17.7848 39C21.3896 39 24.3116 36.0753 24.3116 32.4675C24.3116 28.8597 21.3896 25.935 17.7848 25.935H17.7844ZM17.7844 37.024C15.2716 37.024 13.2344 34.985 13.2344 32.4698C13.2344 29.9546 15.2716 27.9156 17.7844 27.9156C20.2976 27.9156 22.3347 29.9546 22.3347 32.4698C22.3305 34.9831 20.2956 37.0197 17.7844 37.024ZM31.7232 12C28.1187 12 25.1964 14.9247 25.1964 18.5325C25.1964 22.1403 28.1187 25.065 31.7232 25.065C35.3281 25.065 38.25 22.1403 38.25 18.5325C38.25 14.9247 35.3281 12 31.7232 12ZM31.7232 23.089C29.2104 23.089 27.1732 21.05 27.1732 18.5348C27.1732 16.0196 29.2104 13.9807 31.7232 13.9807C34.2364 13.9807 36.2735 16.0196 36.2735 18.5348C36.2693 21.0481 34.2344 23.0848 31.7232 23.089ZM17.7844 12C14.6772 11.9981 11.9989 14.1883 11.3809 17.2365C10.7633 20.2843 12.3774 23.346 15.2398 24.5564C18.1022 25.7663 21.4206 24.7899 23.1727 22.2214C24.9253 19.6529 24.6267 16.2045 22.4589 13.976H24.3096V12H17.7844ZM22.3347 18.5325C22.3347 21.0477 20.2976 23.0867 17.7844 23.0867C15.2716 23.0867 13.2344 21.0477 13.2344 18.5325C13.2344 16.0173 15.2716 13.9784 17.7844 13.9784C20.2964 13.9814 22.3328 16.0181 22.3371 18.5325H22.3347Z" fill="#FFF"/>
</svg>
