<svg width="40" height="40" viewBox="0 0 40 40" fill="none" xmlns="http://www.w3.org/2000/svg">
<path d="M20 40C31.0457 40 40 31.0457 40 20C40 8.9543 31.0457 0 20 0C8.9543 0 0 8.9543 0 20C0 31.0457 8.9543 40 20 40Z" fill="#F7F7F7"/>
<path d="M28.5601 18.4965C28.5864 18.4626 28.6201 18.4356 28.6585 18.4176C28.6969 18.3996 28.739 18.3912 28.7812 18.393L28.8049 18.3847C28.8488 18.35 28.8942 18.3169 28.9402 18.2848C28.496 15.9674 27.387 13.8387 25.7555 12.1715C21.2125 7.51643 13.8532 7.61993 9.31272 12.275C4.7722 16.93 5.22651 24.6844 9.76702 29.3394C14.3075 33.9945 21.215 33.6865 25.7555 29.0289C26.2689 28.5022 26.7333 27.9275 27.1426 27.3123C26.9937 27.0352 26.8653 26.747 26.7585 26.4502C26.4705 25.6385 26.3377 24.7775 26.3673 23.9143C26.2901 23.3388 26.319 22.7535 26.4526 22.189C26.4612 22.1501 26.4785 22.1138 26.5031 22.0829C26.5086 22.057 26.5137 22.0311 26.5202 22.0058C26.5657 21.8395 26.6317 21.6798 26.7166 21.5307C26.761 21.3513 26.8219 21.1767 26.8983 21.009C26.9911 20.6685 27.1185 20.339 27.2784 20.0258C27.3173 19.9476 27.3602 19.8664 27.4071 19.7836C27.4181 19.7289 27.4469 19.6798 27.4889 19.6443C27.757 19.2014 28.1239 18.7449 28.5601 18.4965ZM22.2695 25.4534C21.333 26.4136 20.1398 27.0674 18.8408 27.3323C17.5418 27.5972 16.1954 27.4612 14.9718 26.9416C13.7481 26.422 12.7023 25.5421 11.9665 24.4131C11.2307 23.2841 10.8379 21.9567 10.8379 20.5989C10.8379 19.2411 11.2307 17.9137 11.9665 16.7847C12.7023 15.6557 13.7481 14.7758 14.9718 14.2562C16.1954 13.7365 17.5418 13.6006 18.8408 13.8655C20.1398 14.1304 21.333 14.7842 22.2695 15.7444C22.8913 16.3819 23.3846 17.1387 23.7211 17.9716C24.0576 18.8046 24.2308 19.6973 24.2308 20.5989C24.2308 21.5005 24.0576 22.3932 23.7211 23.2262C23.3846 24.0591 22.8913 24.8159 22.2695 25.4534Z" fill="url(#paint0_linear_1676_408)"/>
<path d="M30.0454 14.5141C30.3458 14.366 30.6723 14.2819 31.0054 14.267C31.3384 14.252 31.6709 14.3064 31.9828 14.427C32.2947 14.5475 32.5795 14.7316 32.82 14.9683C33.0605 15.2049 33.2517 15.489 33.382 15.8036C33.5123 16.1181 33.5791 16.4565 33.5782 16.7982C33.5773 17.1399 33.5088 17.4779 33.3769 17.7918C33.2449 18.1056 33.0523 18.3887 32.8106 18.624C32.5689 18.8593 32.2831 19.042 31.9706 19.1608V19.166C30.6589 19.7303 29.5565 20.708 28.8229 21.9574C28.0893 23.2068 27.7625 24.6632 27.8899 26.1157L23.0132 26.5297C22.7553 23.4919 23.5897 20.3563 25.6527 17.8355C26.8378 16.3852 28.3439 15.2464 30.0454 14.5141Z" fill="url(#paint1_linear_1676_408)"/>
<path d="M25.4046 17.0647L25.4102 17.0569C25.412 17.0545 25.4137 17.0519 25.4152 17.0492C25.7918 16.5013 26.3653 16.1293 27.0094 16.0149C27.6536 15.9005 28.3156 16.0532 28.85 16.4393C29.3844 16.8254 29.7473 17.4133 29.8588 18.0737C29.9704 18.7341 29.8215 19.4129 29.4449 19.9607C28.6812 21.0118 28.4661 21.905 28.4197 22.5483C28.3692 23.2676 28.3955 23.3101 28.35 24.3772C28.3152 25.201 28.082 25.9106 27.8836 26.2894C27.2986 27.4051 24.9559 27.3824 23.492 25.9463C23.4082 25.7782 23.3253 25.603 23.2432 25.4205C23.1479 25.2086 23.0599 25.0016 22.9792 24.7995C22.9746 24.7829 22.9948 24.8729 22.9792 24.7995C22.9564 24.6903 22.952 24.5779 22.966 24.4672C22.9731 24.3906 22.9731 24.3906 22.9857 24.1846C23.013 23.7329 23.0276 23.2298 23.2002 22.4769C23.2361 22.3154 23.275 22.14 23.3421 21.8843C23.487 21.3378 23.6495 20.8705 23.8509 20.2914C23.8534 20.2909 24.5733 18.0997 25.4046 17.0647Z" fill="url(#paint2_linear_1676_408)"/>
<path d="M6.73864 16.5694C6.33079 17.6877 6.08883 18.8624 6.02084 20.0543C6.01579 20.1956 6.00923 20.3363 6.00317 20.4787C5.9363 23.4146 6.92892 26.2726 8.79068 28.5045C10.6524 30.7364 13.2523 32.1851 16.0917 32.5729C16.647 32.5942 17.8656 32.7251 19.0584 32.5647C20.4102 32.383 21.7266 31.9012 21.9942 31.8075C22.2681 31.6937 22.5387 31.5688 22.8059 31.4329C23.3975 31.1032 24.2778 30.5101 24.8184 30.1235C25.0436 29.9631 25.4196 29.6252 25.8482 29.1858C26.6679 28.3396 27.3626 27.3751 27.9102 26.3229C28.0586 25.979 28.1229 25.6031 28.0975 25.2279C28.0056 24.0195 26.9208 22.9446 25.8098 22.867C25.3592 22.8343 24.9085 22.9293 24.507 23.1415C24.1055 23.3537 23.7687 23.675 23.5332 24.0702C23.2648 24.4575 22.968 24.8232 22.6453 25.1642C22.3505 25.4747 20.9937 26.8663 19.3844 27.3895C16.5895 28.2998 13.8243 26.3431 13.4623 26.0797C12.0141 25.2532 6.73864 16.5694 6.73864 16.5694Z" fill="url(#paint3_linear_1676_408)"/>
<path d="M29.0312 12.7735C30.3169 12.7735 31.3592 11.7049 31.3592 10.3868C31.3592 9.06859 30.3169 8 29.0312 8C27.7454 8 26.7031 9.06859 26.7031 10.3868C26.7031 11.7049 27.7454 12.7735 29.0312 12.7735Z" fill="url(#paint4_linear_1676_408)"/>
<path d="M22.9474 24.759C22.9408 24.7688 22.9448 24.6902 22.9317 24.7072C21.6586 26.473 19.844 27.0878 19.5497 27.183C19.4608 27.2115 18.5144 27.4935 17.5765 27.4935C16.3296 27.4994 15.106 27.1482 14.0433 26.4796C12.9806 25.8109 12.1211 24.8514 11.5616 23.709C11.0021 22.5667 10.7648 21.2868 10.8764 20.0137C10.988 18.7405 11.4441 17.5246 12.1934 16.5028C12.9426 15.481 13.9553 14.694 15.1172 14.2304C16.2792 13.7668 17.5443 13.645 18.7702 13.8787C19.996 14.1124 21.1339 14.6923 22.0556 15.5531C22.9773 16.414 23.6463 17.5216 23.9872 18.7512C23.9938 18.7745 24.1195 19.3251 24.1664 19.3872C24.2169 19.249 24.2502 19.1802 24.3088 19.0446C24.3673 18.909 24.4385 18.6824 24.5162 18.5576C24.5161 18.5564 24.5161 18.5552 24.5162 18.554L24.6369 18.2787C24.6369 18.2787 24.6303 18.2658 24.5637 17.9791C24.5081 17.7431 24.5041 17.7162 24.5026 17.7089C23.7616 13.2583 19.9712 9.87947 15.4221 9.90172C14.2178 9.90769 13.0265 10.1568 11.9162 10.6348C10.8058 11.1128 9.79818 11.8103 8.95079 12.6876C8.10341 13.5649 7.43287 14.6047 6.97746 15.7476C6.52206 16.8906 6.29071 18.1143 6.29662 19.3489C6.32236 24.9991 11.3101 28.7283 15.5094 28.7056C19.6829 28.6828 22.3901 25.467 22.8045 24.9505" fill="url(#paint5_linear_1676_408)"/>
<defs>
<linearGradient id="paint0_linear_1676_408" x1="29.1593" y1="20.7043" x2="6.12634" y2="20.7043" gradientUnits="userSpaceOnUse">
<stop offset="0.09" stop-color="#6DC1D6"/>
<stop offset="0.31" stop-color="#72C6D7"/>
<stop offset="0.61" stop-color="#589AC5"/>
<stop offset="1" stop-color="#3864AF"/>
</linearGradient>
<linearGradient id="paint1_linear_1676_408" x1="27.6306" y1="27.457" x2="29.9904" y2="14.1881" gradientUnits="userSpaceOnUse">
<stop offset="0.47" stop-color="#FFDF7F"/>
<stop offset="0.57" stop-color="#FFBE6B"/>
<stop offset="0.69" stop-color="#FF9E58"/>
<stop offset="0.8" stop-color="#FF884A"/>
<stop offset="0.91" stop-color="#FF7A42"/>
<stop offset="1" stop-color="#FF753F"/>
</linearGradient>
<linearGradient id="paint2_linear_1676_408" x1="30.4437" y1="21.0088" x2="24.5566" y2="22.3157" gradientUnits="userSpaceOnUse">
<stop offset="0.01" stop-color="#E670A7"/>
<stop offset="0.12" stop-color="#CB65A2"/>
<stop offset="0.31" stop-color="#A2559B"/>
<stop offset="0.5" stop-color="#824895"/>
<stop offset="0.68" stop-color="#6C3F90"/>
<stop offset="0.85" stop-color="#5E3A8E"/>
<stop offset="1" stop-color="#59388D"/>
</linearGradient>
<linearGradient id="paint3_linear_1676_408" x1="8.2126" y1="27.8858" x2="24.6394" y2="18.6352" gradientUnits="userSpaceOnUse">
<stop stop-color="#15ADFF"/>
<stop offset="0.06" stop-color="#40A3D4"/>
<stop offset="0.13" stop-color="#6D99A7"/>
<stop offset="0.21" stop-color="#949080"/>
<stop offset="0.3" stop-color="#B5885F"/>
<stop offset="0.38" stop-color="#D08244"/>
<stop offset="0.48" stop-color="#E57D2F"/>
<stop offset="0.59" stop-color="#F47A20"/>
<stop offset="0.72" stop-color="#FC7818"/>
<stop offset="0.92" stop-color="#FF7715"/>
</linearGradient>
<linearGradient id="paint4_linear_1676_408" x1="27.694" y1="12.3409" x2="30.4584" y2="8.49739" gradientUnits="userSpaceOnUse">
<stop stop-color="#55398D"/>
<stop offset="1" stop-color="#C05B9D"/>
</linearGradient>
<linearGradient id="paint5_linear_1676_408" x1="6.2911" y1="19.3032" x2="24.6326" y2="19.3026" gradientUnits="userSpaceOnUse">
<stop stop-color="#A3D6D9"/>
<stop offset="0.52" stop-color="#34A4DD"/>
<stop offset="0.56" stop-color="#349DD8"/>
<stop offset="0.74" stop-color="#367EC2"/>
<stop offset="0.89" stop-color="#386BB4"/>
<stop offset="1" stop-color="#3864AF"/>
</linearGradient>
</defs>
</svg>
