<svg width="40" height="40" viewBox="0 0 20 20" fill="none" xmlns="http://www.w3.org/2000/svg">
<path d="M10 20C15.5228 20 20 15.5228 20 10C20 4.47715 15.5228 0 10 0C4.47715 0 0 4.47715 0 10C0 15.5228 4.47715 20 10 20Z" fill="white"/>
<path d="M15.5489 6.39186C16.2075 6.39186 16.7413 5.85653 16.7413 5.19617C16.7413 4.53581 16.2075 4.00049 15.5489 4.00049C14.8904 4.00049 14.3565 4.53581 14.3565 5.19617C14.3565 5.85653 14.8904 6.39186 15.5489 6.39186Z" fill="url(#paint0_linear_2024_1922)"/>
<path d="M9.77201 4.40167C8.60841 4.40154 7.47091 4.74742 6.50335 5.39557C5.53578 6.04372 4.78162 6.96503 4.33624 8.04299C3.89085 9.12096 3.77425 10.3071 4.00118 11.4516C4.2281 12.596 4.78836 13.6472 5.61111 14.4723C6.43385 15.2974 7.48213 15.8594 8.62336 16.087C9.76459 16.3147 10.9475 16.198 12.0226 15.7515C13.0976 15.305 14.0165 14.5488 14.663 13.5786C15.0371 13.0172 14.3332 11.6388 14.497 10.9911C14.6162 10.5197 15.6545 10.7926 15.6545 10.3011C15.6545 8.73656 15.0347 7.23614 13.9316 6.1298C12.8284 5.02347 11.3322 4.40185 9.77201 4.40167ZM9.75789 13.5369C9.10584 13.5374 8.46832 13.3439 7.92594 12.981C7.38356 12.6181 6.96075 12.102 6.71098 11.4981C6.46121 10.8941 6.39572 10.2294 6.5228 9.58812C6.64987 8.9468 6.96381 8.35773 7.42487 7.89539C7.88593 7.43306 8.47338 7.11827 9.11291 6.99084C9.75243 6.86342 10.4153 6.92909 11.0176 7.17954C11.6199 7.42999 12.1346 7.854 12.4965 8.39785C12.8584 8.94173 13.0513 9.58101 13.0508 10.2349C13.0506 11.1107 12.7037 11.9507 12.0862 12.5702C11.4688 13.1897 10.6313 13.5382 9.75789 13.5389V13.5369Z" fill="#69F5FD"/>
<path d="M8.45754 4.8631C7.99306 4.86301 7.53082 4.92735 7.08392 5.05427C5.99139 5.61795 5.10201 6.51013 4.54029 7.6059C3.97858 8.70166 3.77266 9.94616 3.95138 11.1651C4.65132 12.8965 6.4042 14.1246 8.45754 14.1246C9.73426 14.1309 10.9636 13.64 11.8865 12.7553C11.2667 13.2813 10.4751 13.5592 9.66358 13.5357C8.85201 13.5123 8.07766 13.1892 7.48912 12.6284C6.90058 12.0675 6.5393 11.3085 6.47462 10.4969C6.40994 9.68537 6.64641 8.87846 7.13866 8.231C7.63091 7.58356 8.34424 7.1412 9.14181 6.98882C9.93935 6.83643 10.7649 6.98476 11.4601 7.40533C12.1553 7.8259 12.6711 8.48908 12.9086 9.26763C13.146 10.0462 13.0884 10.8852 12.7468 11.6238C13.1014 10.9702 13.2867 10.2379 13.2857 9.49386C13.2891 6.93629 11.1259 4.8631 8.45754 4.8631Z" fill="url(#paint1_linear_2024_1922)"/>
<path d="M17.1914 9.43166C17.3547 9.30853 17.4846 9.14623 17.5691 8.95967C17.6536 8.77307 17.69 8.56822 17.675 8.36387C17.66 8.15953 17.594 7.96221 17.4831 7.79009C17.3722 7.61796 17.2201 7.47651 17.0405 7.37873C16.9377 7.32225 16.8271 7.28128 16.7124 7.25712C16.5972 7.23147 16.1829 7.15648 15.5045 7.50909C15.0525 7.74419 14.7399 8.03668 14.4435 8.35284C13.9235 8.91037 13.4662 9.52361 13.08 10.1815C13.0554 10.2178 13.0329 10.2554 13.0126 10.2943C12.9682 10.3762 12.9334 10.4631 12.9089 10.553V10.5598C12.7903 11.5312 13.1069 12.3162 13.5489 12.4425C14.04 12.583 14.7749 11.9358 15.0868 11.3481C15.2148 11.1063 15.266 10.8854 15.5234 10.5922C15.6945 10.397 15.8663 10.2734 16.1587 10.066C16.4002 9.89506 16.6508 9.73722 16.9091 9.59312C16.9583 9.57357 17.0062 9.55102 17.0526 9.52555C17.1008 9.49719 17.1471 9.46583 17.1914 9.43166Z" fill="url(#paint2_linear_2024_1922)"/>
<path d="M15.7645 9.89077C15.8611 9.67713 15.8945 9.44017 15.8607 9.20805C15.8269 8.97593 15.7274 8.75842 15.5739 8.58141C15.4204 8.40439 15.2195 8.27527 14.995 8.20944C14.7704 8.1436 14.5318 8.14382 14.3074 8.21005C14.1942 8.24315 13.794 8.37621 13.3643 9.01055C13.0793 9.43409 12.9439 9.8401 12.8347 10.2603C12.6433 10.9991 12.5339 11.7569 12.5087 12.5199C12.5038 12.5648 12.5013 12.6099 12.5013 12.655C12.5013 12.7481 12.5122 12.8408 12.5336 12.9313V12.9387C12.7229 13.4839 13.1985 13.8588 13.72 13.8791C14.3936 13.9054 14.8793 13.3245 15.0167 12.8915C15.0457 12.8003 15.0632 12.5611 15.0976 12.0808C15.138 11.5296 15.1232 11.4566 15.1522 11.26C15.2137 10.8686 15.3617 10.4958 15.5853 10.1691C15.619 10.1279 15.6502 10.0848 15.679 10.04C15.7106 9.99217 15.7392 9.94229 15.7645 9.89077Z" fill="url(#paint3_linear_2024_1922)"/>
<path d="M14.9942 12.981C15.039 12.8481 15.0618 12.7086 15.0616 12.5683C15.0568 12.2701 14.9523 11.9821 14.7648 11.7506C14.5773 11.5191 14.3176 11.3574 14.0275 11.2916C13.7375 11.2258 13.4337 11.2596 13.1651 11.3876C12.8964 11.5156 12.6784 11.7304 12.5461 11.9975C12.3357 12.3306 12.0679 12.6236 11.7552 12.8628C11.7343 12.8838 11.7141 12.9054 11.6912 12.9304C11.2022 13.4127 10.6888 13.6154 10.2664 13.7829C9.52203 14.0767 6.81927 14.3321 5.27253 12.9722C4.65545 12.3643 3.95685 11.1679 3.95483 11.1652C4.16134 12.5652 4.86279 13.8441 5.93126 14.7687C6.99972 15.6933 8.36401 16.202 9.7753 16.202C10.643 16.202 11.5268 15.9372 11.5268 15.9372C12.6323 15.5921 13.6115 14.9272 14.3414 14.0261C14.5105 13.8136 14.664 13.5892 14.8009 13.3546C14.8846 13.2446 14.9503 13.1219 14.9956 12.9912L14.9942 12.981Z" fill="url(#paint4_linear_2024_1922)"/>
<defs>
<linearGradient id="paint0_linear_2024_1922" x1="15.549" y1="4.00691" x2="15.3699" y2="5.80412" gradientUnits="userSpaceOnUse">
<stop stop-color="#FE37AF"/>
<stop offset="1" stop-color="#FE079C"/>
</linearGradient>
<linearGradient id="paint1_linear_2024_1922" x1="12.6464" y1="6.86739" x2="3.88049" y2="10.8348" gradientUnits="userSpaceOnUse">
<stop stop-color="#09EFFB"/>
<stop offset="1" stop-color="#FE37AF"/>
</linearGradient>
<linearGradient id="paint2_linear_2024_1922" x1="17.6993" y1="7.23888" x2="13.813" y2="11.9233" gradientUnits="userSpaceOnUse">
<stop stop-color="#891AEA"/>
<stop offset="1" stop-color="#A047EE"/>
</linearGradient>
<linearGradient id="paint3_linear_2024_1922" x1="14.1284" y1="8.18509" x2="13.2462" y2="12.4998" gradientUnits="userSpaceOnUse">
<stop stop-color="#FE37AF"/>
<stop offset="1" stop-color="#FE079C"/>
</linearGradient>
<linearGradient id="paint4_linear_2024_1922" x1="15.0717" y1="12.3055" x2="7.18582" y2="14.7925" gradientUnits="userSpaceOnUse">
<stop stop-color="#891AEA"/>
<stop offset="1" stop-color="#FE079C"/>
</linearGradient>
</defs>
</svg>
