<svg width="48" height="48" viewBox="0 0 48 48" fill="none" xmlns="http://www.w3.org/2000/svg">
<path d="M24 48C37.2548 48 48 37.2548 48 24C48 10.7452 37.2548 0 24 0C10.7452 0 0 10.7452 0 24C0 37.2548 10.7452 48 24 48Z" fill="#8247E5"/>
<path d="M32.0026 18.5251C31.4232 18.194 30.6783 18.194 30.0162 18.5251L25.3812 21.2564L22.236 22.9945L17.6838 25.7258C17.1044 26.0569 16.3595 26.0569 15.6974 25.7258L12.1384 23.5739C11.559 23.2428 11.1452 22.5807 11.1452 21.8358V17.6974C11.1452 17.0352 11.4762 16.3731 12.1384 15.9593L15.6974 13.8901C16.2768 13.559 17.0217 13.559 17.6838 13.8901L21.2428 16.042C21.8222 16.3731 22.236 17.0352 22.236 17.7802V20.5115L25.3812 18.6906V15.8765C25.3812 15.2144 25.0501 14.5522 24.388 14.1384L17.7666 10.2483C17.1872 9.91723 16.4423 9.91723 15.7802 10.2483L8.99321 14.2211C8.33107 14.5522 8 15.2144 8 15.8765V23.6567C8 24.3188 8.33107 24.9809 8.99321 25.3948L15.6974 29.2849C16.2768 29.6159 17.0217 29.6159 17.6838 29.2849L22.236 26.6363L25.3812 24.8154L29.9334 22.1668C30.5128 21.8358 31.2577 21.8358 31.9198 22.1668L35.4789 24.236C36.0582 24.5671 36.4721 25.2292 36.4721 25.9742V30.1125C36.4721 30.7747 36.141 31.4368 35.4789 31.8507L32.0026 33.9198C31.4232 34.2509 30.6783 34.2509 30.0162 33.9198L26.4572 31.8507C25.8778 31.5196 25.464 30.8574 25.464 30.1125V27.464L22.3188 29.2849V32.0162C22.3188 32.6783 22.6499 33.3405 23.312 33.7543L30.0162 37.6444C30.5956 37.9755 31.3405 37.9755 32.0026 37.6444L38.7068 33.7543C39.2862 33.4232 39.7 32.7611 39.7 32.0162V24.1533C39.7 23.4911 39.3689 22.829 38.7068 22.4151L32.0026 18.5251Z" fill="white"/>
</svg>
