<svg width="48" height="48" viewBox="0 0 48 48" fill="none" xmlns="http://www.w3.org/2000/svg">
<path d="M24 48C37.2548 48 48 37.2548 48 24C48 10.7452 37.2548 0 24 0C10.7452 0 0 10.7452 0 24C0 37.2548 10.7452 48 24 48Z" fill="white"/>
<path d="M30.966 11.6392C30.1853 12.4111 29.47 13.2478 28.8342 14.1399L28.6332 14.0752C27.4738 13.7008 26.2723 13.4697 25.0614 13.3911C24.6968 13.3634 23.3363 13.3634 22.8922 13.3911C21.5504 13.4789 20.5219 13.6777 19.3531 14.0798C19.3064 14.0983 19.2643 14.1122 19.2222 14.1261C18.563 13.2386 17.8291 12.4065 17.0203 11.6438C20.9006 9.67924 25.4401 9.44349 29.5027 10.992C29.9375 11.1538 30.3629 11.3433 30.779 11.5467L30.966 11.6392Z" fill="#F00500"/>
<path d="M38.203 29.1723C37.614 30.8318 36.7304 32.3711 35.585 33.7116C34.9632 34.4327 34.276 35.0937 33.5373 35.6947C31.8075 37.0722 29.7879 38.0568 27.6327 38.5745C25.2484 39.143 22.7612 39.143 20.3769 38.5745C18.2171 38.0568 16.2021 37.0722 14.4723 35.6947C13.7337 35.0937 13.0464 34.4327 12.4246 33.7116C9.1287 29.8611 8.12823 24.5729 9.80659 19.8071C10.1245 18.9242 10.5219 18.0737 10.9987 17.2648C11.2185 16.895 11.4896 16.4789 11.6205 16.3079C12.0693 18.217 12.621 19.895 12.8267 20.5005C12.8127 20.5329 12.794 20.5698 12.7753 20.6022C11.686 22.784 11.0969 24.8873 10.9567 27.1245C10.9567 27.1523 10.952 27.1846 10.952 27.2124C10.9146 27.8826 10.9333 28.2016 11.0455 28.6222C11.3961 29.9396 12.4761 31.3911 14.1684 32.8148C16.9408 35.1446 20.6995 36.8272 23.5467 37.0213C26.5153 37.2201 30.8959 35.5051 33.8131 32.9997C34.2713 32.5976 34.7014 32.1723 35.1035 31.7193C35.3933 31.3865 35.8234 30.8133 35.7907 30.8133C35.7813 30.8133 35.7907 30.8041 35.8094 30.7948C35.8234 30.7856 35.8374 30.7717 35.8281 30.7625C35.8234 30.7578 35.8328 30.744 35.8468 30.7393C35.8608 30.7347 35.8702 30.7255 35.8655 30.7162C35.8608 30.707 35.8655 30.6977 35.8842 30.6931C35.8982 30.6885 35.9029 30.6746 35.8982 30.6654C35.8935 30.6561 35.8982 30.6469 35.9076 30.6469C35.9169 30.6469 35.9263 30.633 35.9263 30.6238C35.9263 30.6145 35.9356 30.6007 35.945 30.6007C35.9543 30.6007 35.9637 30.5914 35.9637 30.5822C35.9777 30.5452 36.0011 30.5082 36.0244 30.4759C36.0946 30.3695 36.3751 29.8749 36.4125 29.7917C36.679 29.1954 36.8473 28.6638 36.9267 28.1323C36.9641 27.878 36.9875 27.4111 36.9688 27.3002C36.9641 27.2817 36.9641 27.2494 36.9595 27.1985C36.9501 27.1061 36.9454 26.9674 36.9361 26.8287C36.9267 26.6207 36.908 26.3295 36.894 26.1862C36.693 24.0876 36.1507 22.3726 35.1222 20.556C35.0801 20.4866 35.0427 20.4173 35.0193 20.3618C35.01 20.348 35.0053 20.3341 35.0006 20.3249C35.1455 19.895 35.7393 18.0968 36.2115 16.0398L36.2208 16.049L36.2909 16.1415C36.4125 16.3033 36.7351 16.784 36.88 17.0151C37.5392 18.0783 38.0534 19.2201 38.4181 20.4127C39.2643 23.2832 39.1942 26.3433 38.203 29.1723Z" fill="#F00500"/>
<path d="M32.1347 23.6484C32.1207 23.7224 31.901 23.9443 31.6812 24.106C31.0361 24.5729 29.8813 25.0074 28.7079 25.2154C28.0394 25.3356 27.3708 25.3541 27.1698 25.257C27.0389 25.1923 27.0202 25.1415 27.0669 24.9751C27.1651 24.6284 27.483 24.2493 27.9786 23.8934C28.231 23.7131 29.2549 23.0983 29.7317 22.8395C30.5172 22.4142 31.153 22.16 31.5831 22.0999C31.7187 22.0814 31.8823 22.0768 31.9337 22.0999C32.0179 22.1322 32.1114 22.3772 32.1488 22.6731C32.1675 22.8302 32.1581 23.5236 32.1347 23.6484Z" fill="black"/>
<path d="M21.1202 25.1785C21.0922 25.234 20.9519 25.2941 20.793 25.3172C20.634 25.3403 20.1478 25.3265 19.872 25.2941C18.8809 25.1647 17.829 24.8642 17.0623 24.4944C16.6322 24.2864 16.3236 24.0784 16.0945 23.8519L15.9636 23.7178L15.9496 23.5422C15.9262 23.2371 15.9309 22.7564 15.9683 22.5853C15.9917 22.442 16.0431 22.3034 16.1132 22.1785C16.1506 22.1323 16.1506 22.1323 16.3189 22.1323C16.5246 22.1323 16.6976 22.1647 16.9781 22.2525C17.5531 22.4282 18.4087 22.8534 19.4512 23.4728C20.3114 23.9813 20.634 24.2309 20.8818 24.573C21.0501 24.7856 21.1623 25.0861 21.1202 25.1785Z" fill="black"/>
<path d="M27.7402 31.613C27.7402 31.6269 27.6841 31.8487 27.614 32.1122C27.5438 32.3757 27.4877 32.5883 27.4877 32.5976C27.4363 32.6022 27.3895 32.6068 27.3381 32.6022H27.1885L26.9828 33.0829C26.8706 33.3464 26.7678 33.5914 26.7537 33.6284L26.7257 33.6931L26.6275 33.5359L26.5293 33.3788V32.0983L26.4919 32.1076C26.4125 32.1261 25.8468 32.2 25.599 32.2232C24.5751 32.3249 23.5466 32.3017 22.5275 32.1584C22.3638 32.1353 22.2236 32.1168 22.2189 32.1215C22.2142 32.1261 22.2189 32.4219 22.2283 32.7871L22.2423 33.4435L22.1628 33.5637C22.1207 33.6284 22.0786 33.6839 22.0786 33.6885C22.0646 33.7024 22.0179 33.6284 21.9103 33.4158C21.7935 33.1939 21.7093 32.9581 21.6485 32.7131L21.6158 32.5791L21.4709 32.5883L21.326 32.6022L21.2886 32.4312C21.2699 32.3387 21.2465 32.1954 21.2371 32.1168L21.2231 31.9689L21.1016 31.8626C21.0314 31.8025 20.9613 31.7424 20.9473 31.7332C20.9239 31.7147 20.9146 31.6823 20.9146 31.6546V31.5991L21.4989 31.6037L22.0833 31.6084L22.102 31.6685L22.1207 31.7285L22.3218 31.7378C22.434 31.7424 22.7893 31.7517 23.1072 31.7609L23.6916 31.7748L23.8412 31.5436L23.9954 31.3125H24.1918L24.1871 30.8318L24.1824 30.351L23.9253 30.2401C23.0978 29.8795 22.6116 29.4681 22.4293 28.9689C22.3919 28.8672 22.3919 28.8302 22.3825 28.368C22.3779 27.9104 22.3779 27.8688 22.4106 27.7671C22.476 27.5359 22.6584 27.3557 22.8921 27.2956C22.9716 27.2725 23.182 27.2725 24.2853 27.2725L25.585 27.2771L25.7299 27.3464C25.9029 27.4296 25.9823 27.4897 26.0805 27.6191C26.1927 27.7671 26.2255 27.8826 26.2255 28.1646C26.2255 28.5668 26.1974 28.9134 26.1553 29.0521C26.0946 29.2416 26.001 29.4219 25.8842 29.5837C25.6504 29.8795 25.225 30.1754 24.8369 30.3094L24.7247 30.351L24.7294 30.8364L24.7341 31.3218L24.8369 31.331L24.9398 31.3403L25.0801 31.5483L25.2156 31.7563H25.8421C26.188 31.7563 26.4919 31.7609 26.52 31.7655C26.5667 31.7748 26.5761 31.7702 26.6228 31.6916L26.6789 31.6084H27.2166C27.6186 31.5899 27.7402 31.5991 27.7402 31.613Z" fill="black"/>
<path d="M25.2718 32.9395C25.183 32.9904 25.1222 33.0135 25.1082 33.0043C25.0941 32.9996 25.0287 32.9442 24.9585 32.8933L24.8323 32.7916L24.7014 32.9303C24.4162 33.2354 24.4069 33.2493 24.3227 33.2539C24.1918 33.2677 24.1638 33.2446 24.0048 33.0089C23.9207 32.8887 23.8552 32.787 23.8552 32.787C23.8552 32.787 23.7945 32.7778 23.7243 32.7731L23.5934 32.7593L23.5326 32.8841L23.4719 33.0089L23.3643 32.9765C23.2802 32.9488 23.196 32.9164 23.1166 32.8794L22.9763 32.8101V32.5466L24.2199 32.5513L25.4635 32.5559L25.4681 32.6807C25.4728 32.8286 25.4775 32.824 25.2718 32.9395Z" fill="black"/>
<path d="M36.9594 27.3001C36.9548 27.2816 36.9548 27.2493 36.9501 27.1984C35.8281 27.0782 32.6256 27.0043 29.6523 29.4311C29.6523 29.4311 28.6939 25.0859 24.2058 25.0859C19.7177 25.0859 18.0534 29.4311 18.0534 29.4311C15.5382 26.7547 12.1722 26.9488 10.9566 27.1245C10.9566 27.1522 10.952 27.1846 10.952 27.2123C10.9146 27.8825 10.9333 28.2015 11.0455 28.6221C11.3961 29.9396 12.476 31.391 14.1684 32.8148C16.9407 35.1445 20.6995 36.8271 23.5466 37.0212C26.5153 37.22 30.8959 35.505 33.8131 32.9997C34.2713 32.5975 34.7014 32.1722 35.1034 31.7192C35.3933 31.3864 35.8234 30.8132 35.7907 30.8132C35.7813 30.8132 35.7907 30.804 35.8094 30.7947C35.8234 30.7855 35.8374 30.7716 35.8281 30.7624C35.8234 30.7577 35.8327 30.7439 35.8468 30.7393C35.8608 30.7346 35.8701 30.7254 35.8655 30.7161C35.8608 30.7069 35.8655 30.6976 35.8842 30.693C35.8982 30.6884 35.9029 30.6745 35.8982 30.6653C35.8935 30.656 35.8982 30.6468 35.9075 30.6468C35.9169 30.6468 35.9262 30.6329 35.9262 30.6237C35.9262 30.6144 35.9356 30.6006 35.9449 30.6006C35.9543 30.6006 35.9636 30.5913 35.9636 30.5821C35.9777 30.5451 36.001 30.5081 36.0244 30.4758C36.0945 30.3695 36.375 29.8748 36.4125 29.7916C36.6789 29.1953 36.8472 28.6638 36.9267 28.1322C36.9548 27.8779 36.9781 27.4111 36.9594 27.3001ZM25.2717 32.9396C25.1829 32.9904 25.1221 33.0135 25.1081 33.0043C25.0941 32.9997 25.0286 32.9442 24.9585 32.8933L24.8323 32.7916L24.7014 32.9303C24.4162 33.2354 24.4068 33.2493 24.3227 33.2539C24.1918 33.2678 24.1637 33.2446 24.0048 33.0089C23.9206 32.8887 23.8552 32.787 23.8552 32.787C23.8552 32.787 23.7944 32.7778 23.7243 32.7732L23.5934 32.7593L23.5326 32.8841L23.4718 33.0089L23.3643 32.9765C23.2801 32.9488 23.196 32.9164 23.1165 32.8795L22.9763 32.8101V32.5466L24.2198 32.5513L25.4634 32.5559L25.4681 32.6807C25.4728 32.8286 25.4774 32.824 25.2717 32.9396ZM27.6093 32.1075C27.5391 32.371 27.483 32.5836 27.483 32.5929C27.4316 32.5975 27.3849 32.6021 27.3334 32.5975H27.1838L26.9828 33.0829C26.8706 33.3463 26.7678 33.5913 26.7537 33.6283L26.7257 33.693L26.6275 33.5359L26.5293 33.3787V32.0983L26.4919 32.1075C26.4125 32.126 25.8468 32.2 25.599 32.2231C24.5751 32.3248 23.5466 32.3017 22.5275 32.1584C22.3638 32.1352 22.2236 32.1168 22.2189 32.1214C22.2142 32.126 22.2189 32.4218 22.2283 32.787L22.2423 33.4434L22.1628 33.5636C22.1207 33.6283 22.0786 33.6838 22.0786 33.6884C22.0646 33.7023 22.0179 33.6283 21.9103 33.4157C21.7935 33.1938 21.7093 32.9581 21.6485 32.7131L21.6158 32.579L21.4709 32.5883L21.326 32.6021L21.2886 32.4311C21.2699 32.3386 21.2465 32.1953 21.2371 32.1168L21.2231 31.9688L21.1016 31.8625C21.0314 31.8024 20.9613 31.7423 20.9473 31.7331C20.9239 31.7146 20.9146 31.6822 20.9146 31.6545V31.599L21.4989 31.6037L22.0833 31.6083L22.102 31.6684L22.1207 31.7285L22.3218 31.7377C22.434 31.7423 22.7893 31.7516 23.1072 31.7608L23.6916 31.7747L23.8412 31.5436L23.9954 31.3124H24.1918L24.1871 30.8317L24.1824 30.351L23.9253 30.24C23.0978 29.8795 22.6116 29.4681 22.4293 28.9688C22.3919 28.8671 22.3919 28.8302 22.3825 28.3679C22.3779 27.9103 22.3779 27.8687 22.4106 27.767C22.476 27.5359 22.6584 27.3556 22.8921 27.2955C22.9716 27.2724 23.182 27.2724 24.2853 27.2724L25.585 27.277L25.7299 27.3463C25.9029 27.4295 25.9823 27.4896 26.0805 27.6191C26.1927 27.767 26.2254 27.8825 26.2254 28.1645C26.2254 28.5667 26.1974 28.9134 26.1553 29.052C26.0945 29.2416 26.001 29.4218 25.8842 29.5836C25.6504 29.8795 25.225 30.1753 24.8369 30.3094L24.7247 30.351L24.7294 30.8363L24.7341 31.3217L24.8369 31.3309L24.9398 31.3402L25.0801 31.5482L25.2156 31.7562H25.8421C26.188 31.7562 26.4919 31.7608 26.52 31.7654C26.5667 31.7747 26.5761 31.7701 26.6228 31.6915L26.6789 31.6083H27.2166C27.6326 31.6083 27.7542 31.6129 27.7542 31.6268C27.7402 31.6221 27.6794 31.8487 27.6093 32.1075Z" fill="white"/>
<path d="M36.922 26.8287C36.9127 26.6207 36.894 26.3295 36.8799 26.1862C36.6789 24.0876 36.1366 22.3727 35.1081 20.556C35.066 20.4867 35.0286 20.4173 35.0052 20.3619C34.9959 20.348 34.9912 20.3341 34.9865 20.3249C35.1315 19.895 35.7252 18.0968 36.1974 16.0398C36.8379 13.2478 37.2446 9.98437 36.001 9.0044C36.001 9.0044 33.8505 8.84723 30.9706 11.6392C30.1899 12.4112 29.4746 13.2479 28.8388 14.14L28.6378 14.0753C27.4784 13.7009 26.2769 13.4697 25.066 13.3911C24.7014 13.3634 23.3409 13.3634 22.8968 13.3911C21.555 13.479 20.5265 13.6777 19.3577 14.0799C19.311 14.0984 19.2689 14.1123 19.2268 14.1261C18.5676 13.2386 17.8337 12.4066 17.0249 11.6438C14.0281 8.83799 11.7981 8.99978 11.7981 8.99978C10.4798 10.0121 10.9286 13.4235 11.6111 16.3079C12.0599 18.217 12.6116 19.895 12.8173 20.5005C12.8033 20.5329 12.7846 20.5699 12.7659 20.6022C11.6766 22.7841 11.0875 24.8873 10.9473 27.1246C12.1675 26.9489 15.5288 26.7502 18.0487 29.4312C18.0487 29.4312 19.713 25.0861 24.2011 25.0861C28.6892 25.0861 29.6476 29.4312 29.6476 29.4312C32.6209 27.0044 35.8234 27.083 36.9454 27.1985C36.9407 27.1061 36.9314 26.9674 36.922 26.8287ZM13.7009 18.7579C13.7009 18.7579 11.9524 14.4358 12.4012 11.9674C12.476 11.5514 12.6163 11.1862 12.836 10.9089C12.836 10.9089 14.8182 11.103 18.016 14.6161C18.016 14.6161 17.4082 14.9073 16.5948 15.5267C16.5948 15.5267 16.5901 15.5314 16.5854 15.5314C15.7018 16.2016 14.5705 17.2648 13.7009 18.7579ZM21.1202 25.1785C21.0922 25.234 20.9519 25.2941 20.793 25.3172C20.634 25.3403 20.1478 25.3264 19.872 25.2941C18.8809 25.1646 17.829 24.8642 17.0623 24.4944C16.6322 24.2864 16.3236 24.0784 16.0945 23.8519L15.9636 23.7178L15.9496 23.5421C15.9262 23.2371 15.9309 22.7563 15.9683 22.5853C15.9917 22.442 16.0431 22.3033 16.1132 22.1785C16.1506 22.1323 16.1506 22.1323 16.3189 22.1323C16.5246 22.1323 16.6976 22.1646 16.9781 22.2525C17.5532 22.4281 18.4087 22.8534 19.4512 23.4728C20.3115 23.9813 20.634 24.2309 20.8818 24.573C21.0501 24.7856 21.1623 25.0861 21.1202 25.1785ZM32.1347 23.6485C32.1207 23.7224 31.901 23.9443 31.6812 24.1061C31.0361 24.573 29.8813 25.0075 28.7079 25.2155C28.0394 25.3357 27.3708 25.3542 27.1698 25.2571C27.0389 25.1924 27.0202 25.1415 27.0669 24.9751C27.1651 24.6284 27.483 24.2494 27.9786 23.8935C28.231 23.7132 29.2549 23.0984 29.7317 22.8395C30.5172 22.4143 31.153 22.16 31.5831 22.0999C31.7187 22.0814 31.8823 22.0768 31.9337 22.0999C32.0179 22.1323 32.1114 22.3773 32.1488 22.6731C32.1675 22.8303 32.1581 23.5237 32.1347 23.6485ZM31.3587 15.5267L31.3493 15.5221C30.5639 14.9027 29.9748 14.6115 29.9748 14.6115C33.0651 11.0984 34.9772 10.9042 34.9772 10.9042C35.1876 11.1862 35.3231 11.5468 35.3979 11.9628C35.8327 14.4312 34.145 18.7579 34.145 18.7579C33.4391 17.5144 32.49 16.4143 31.3587 15.5267Z" fill="#FFA409"/>
<path d="M35.4026 11.9628C35.038 11.9166 33.3129 11.9074 31.3587 15.5268L31.3493 15.5222C30.5639 14.9028 29.9749 14.6115 29.9749 14.6115C33.0651 11.0984 34.9772 10.9043 34.9772 10.9043C35.1922 11.1863 35.3278 11.5468 35.4026 11.9628Z" fill="#FF9300"/>
<path d="M34.1497 18.7579C33.4391 17.5098 32.4947 16.4143 31.3586 15.5267C33.3128 11.9073 35.0333 11.9166 35.4026 11.9628C35.8374 14.4358 34.1497 18.7579 34.1497 18.7579Z" fill="#FF8300"/>
<path d="M35.4727 11.9768C35.4493 11.9721 35.426 11.9675 35.4026 11.9629L35.4727 11.9768Z" fill="#FF8300"/>
<path d="M18.0159 14.6115C18.0159 14.6115 17.4082 14.9028 16.5947 15.5222C16.5947 15.5222 16.59 15.5268 16.5854 15.5268C14.561 11.9028 12.7798 11.9166 12.3965 11.9628C12.4713 11.5468 12.6115 11.1816 12.8313 10.9043C12.8359 10.9043 14.8182 11.0984 18.0159 14.6115Z" fill="#FF9300"/>
<path d="M16.5901 15.5267C15.7018 16.2016 14.5704 17.2602 13.7009 18.7579C13.7009 18.7579 11.9524 14.4358 12.4012 11.9628C12.7799 11.9166 14.5657 11.9073 16.5901 15.5267Z" fill="#FF8300"/>
<path d="M12.4012 11.9629C12.3778 11.9675 12.3498 11.9721 12.3264 11.9768L12.4012 11.9629Z" fill="#FF8300"/>
<path d="M29.4186 21.1569C29.4186 21.1569 27.9226 21.2493 28.1096 20.0937C28.2966 18.9381 29.4653 18.7994 29.7926 18.8456C30.1198 18.8919 31.4289 19.3541 31.1951 20.3248C30.9614 21.2955 30.6341 21.1106 30.4471 21.1569C30.2601 21.2031 29.4186 21.1569 29.4186 21.1569Z" fill="white"/>
<path d="M18.3854 21.1569C18.3854 21.1569 16.8894 21.2493 17.0764 20.0937C17.2634 18.9381 18.4321 18.7994 18.7594 18.8456C19.0866 18.8919 20.3957 19.3541 20.1619 20.3248C19.9282 21.2955 19.6009 21.1106 19.4139 21.1569C19.2269 21.2031 18.3854 21.1569 18.3854 21.1569Z" fill="white"/>
</svg>
