<svg width="48" height="48" viewBox="0 0 48 48" fill="none" xmlns="http://www.w3.org/2000/svg">
<circle cx="24" cy="24" r="24" fill="#170659"/>
<path d="M16.5931 18.0311C16.4013 17.793 16.1103 17.6607 15.7994 17.6607H9.38994C9.33702 17.6607 9.29072 17.6409 9.25104 17.6078C9.21796 17.5747 9.19812 17.535 9.19812 17.4887V13.1695C9.19812 13.1232 9.21796 13.0835 9.25104 13.0504C9.29072 13.0107 9.33702 12.9909 9.38994 12.9975H16.1632C17.8697 12.9975 19.3448 13.6986 20.5883 15.0943L22.2353 17.1051L19.0273 21.0143L16.5931 18.0311ZM28.4331 15.0745C29.67 13.692 31.1516 12.9975 32.878 12.9975H39.6314C39.6777 12.9909 39.724 13.0107 39.7571 13.0372C39.7902 13.0703 39.8034 13.1166 39.7968 13.1695V17.4887C39.7968 17.535 39.7836 17.5747 39.7571 17.6078C39.724 17.6475 39.6777 17.6673 39.6314 17.6607H33.222C32.9177 17.6541 32.6267 17.793 32.4282 18.0311L27.7055 23.7791L32.4481 29.5668C32.6399 29.7851 32.9243 29.9174 33.2154 29.9108H39.6248C39.6711 29.9042 39.724 29.9306 39.7505 29.9637C39.777 30.0034 39.7968 30.0563 39.7902 30.1026V34.4219C39.7902 34.4682 39.777 34.5079 39.7505 34.5409C39.7174 34.5806 39.6711 34.6005 39.6248 34.5938H32.878C31.1516 34.5938 29.6832 33.8927 28.4529 32.497L24.5239 27.7015L20.5949 32.497C19.358 33.8927 17.8763 34.5938 16.15 34.5938H9.38994C9.34364 34.6005 9.29072 34.574 9.26427 34.5409C9.23119 34.5012 9.21796 34.4483 9.22458 34.402V30.0827C9.22458 30.0364 9.23781 29.9968 9.26427 29.9637C9.29734 29.924 9.34364 29.9042 9.38994 29.9108H15.7994C16.1037 29.9108 16.3947 29.7719 16.5931 29.5404L21.2299 23.8783L28.4331 15.0745Z" fill="#00D1FF"/>
</svg>
