<svg width="300" height="300" viewBox="0 0 300 300" fill="none" xmlns="http://www.w3.org/2000/svg">
<circle cx="150" cy="150" r="150" fill="url(#paint0_linear)"/>
<circle cx="150" cy="150" r="150" fill="url(#paint1_radial)" fill-opacity="0.25"/>
<g opacity="0.9">
<path d="M248.948 170.43C248.369 160.641 245.933 166.453 238.785 165.386C214.81 155.428 219.158 120.188 219.158 120.188C219.158 79.8326 186.275 46 143.927 46H137.152C96.4988 46 62 80.4508 62 120.807V161.61C62 183.469 65.8419 196.9 79.393 215.397C94.6379 233.893 121.978 261.962 162.631 251.873C162.631 251.873 168.679 249.879 169.464 246.927C170.248 243.975 175.054 232.089 193.69 232.089C210.628 228.726 209.219 211.687 209.219 211.687C209.219 211.687 209.84 194.372 228.475 192.522C245.414 190.84 249.528 180.219 248.948 170.43Z" fill="#BFD2D3"/>
<path fill-rule="evenodd" clip-rule="evenodd" d="M140.268 52.8006C122.254 55.2735 88.0894 78.7665 88.0894 135.644C87.8823 149.658 88.2136 179.415 91.1953 186.34C91.4566 186.946 91.7485 187.681 92.0848 188.527C96.5452 199.753 108.825 230.656 161.388 244.454C164.506 245.272 167.203 246.025 169.522 246.717C169.501 246.791 169.481 246.861 169.464 246.927C168.679 249.879 162.631 251.873 162.631 251.873C121.978 261.962 94.6379 233.893 79.393 215.397C65.8419 196.9 62 183.469 62 161.61V120.807C62 80.4508 96.4988 46 137.152 46H139.464L140.268 52.8006Z" fill="#A6B6B7"/>
<path fill-rule="evenodd" clip-rule="evenodd" d="M181.503 55.8345L153.934 48.4729L139.647 52.8006C146.48 53.6249 162.496 59.1426 170.706 68.2564C186.856 86.1853 193.689 106.587 193.689 130.698C193.689 159.164 196.795 172.12 211.082 179.539C225.369 186.958 238.414 189.431 240.899 183.248C242.887 178.302 243.384 173.357 243.384 171.502L241.273 165.506C240.515 165.546 239.687 165.521 238.785 165.386C214.809 155.428 219.158 120.188 219.158 120.188C219.158 92.9843 204.215 68.7445 181.503 55.8345Z" fill="#768182"/>
<path fill-rule="evenodd" clip-rule="evenodd" d="M236.766 172.586L235.914 172.232C220.495 165.828 214.75 151.455 212.656 140.431C211.585 134.793 211.363 129.567 211.399 125.78C211.417 123.873 211.501 122.3 211.583 121.182C211.624 120.622 211.665 120.174 211.697 119.853C211.699 119.835 211.701 119.817 211.703 119.8C211.492 83.6854 181.994 53.4188 143.927 53.4188H137.152C100.624 53.4188 69.4541 84.54 69.4541 120.807V161.61C69.4541 172.112 70.38 180.114 72.7258 187.539C75.0516 194.902 78.9065 202.116 85.2915 210.856C100.491 229.265 124.903 253.392 160.478 244.76C160.564 244.728 160.671 244.686 160.795 244.637C161.202 244.473 161.714 244.246 162.205 243.982C162.384 243.886 162.535 243.798 162.659 243.721C163.592 241.016 165.657 236.787 169.821 232.954C174.79 228.381 182.236 224.852 192.861 224.677C197.884 223.491 199.835 220.652 200.828 218.02C201.401 216.498 201.65 214.98 201.744 213.811C201.79 213.24 201.796 212.789 201.793 212.511C201.791 212.373 201.787 212.282 201.785 212.243C201.785 212.242 201.785 212.241 201.785 212.24L201.754 211.86L201.77 211.423L209.219 211.687C209.219 211.687 210.628 228.726 193.69 232.089C175.054 232.089 170.248 243.975 169.464 246.927C168.679 249.879 162.631 251.873 162.631 251.873C121.978 261.962 94.6379 233.893 79.393 215.397C65.8419 196.9 62 183.469 62 161.61V120.807C62 80.4508 96.4988 46 137.152 46H143.927C186.275 46 219.158 79.8326 219.158 120.188C219.158 120.188 214.81 155.428 238.785 165.386C241.253 165.754 243.159 165.303 244.621 164.956C247.394 164.3 248.569 164.021 248.948 170.43C249.528 180.219 245.414 190.84 228.475 192.522C209.84 194.372 209.219 211.687 209.219 211.687C201.77 211.423 201.77 211.419 201.77 211.415L201.77 211.406L201.771 211.388L201.773 211.347C201.774 211.318 201.776 211.284 201.778 211.246C201.782 211.169 201.787 211.076 201.795 210.966C201.811 210.746 201.835 210.461 201.874 210.118C201.95 209.436 202.083 208.514 202.313 207.425C202.769 205.27 203.635 202.329 205.306 199.262C208.812 192.827 215.651 186.339 227.736 185.14C234.657 184.453 237.779 182.113 239.312 180.073C240.673 178.261 241.424 175.83 241.533 172.921C240.375 172.974 239.085 172.932 237.679 172.723L236.766 172.586ZM241.242 168.466C241.243 168.466 241.244 168.471 241.246 168.48C241.243 168.471 241.242 168.466 241.242 168.466ZM160.259 244.839L160.261 244.839C160.255 244.841 160.254 244.841 160.259 244.839ZM163.1 243.411C163.097 243.414 163.093 243.417 163.089 243.421C163.131 243.378 163.141 243.375 163.1 243.411Z" fill="#2A3040"/>
<ellipse cx="107.346" cy="110.297" rx="24.8471" ry="24.7294" fill="#1F2B46"/>
<path d="M107.346 97.9317C104.051 97.9317 100.891 99.2344 98.5611 101.553C96.2313 103.872 94.9224 107.017 94.9224 110.296C94.9224 113.576 96.2313 116.721 98.5611 119.04C100.891 121.358 104.051 122.661 107.346 122.661L107.346 110.296L107.346 97.9317Z" fill="#52D784"/>
<ellipse cx="170.706" cy="110.297" rx="24.8471" ry="24.7294" fill="#1F2B46"/>
<path d="M170.706 97.9317C167.411 97.9317 164.251 99.2344 161.921 101.553C159.591 103.872 158.282 107.017 158.282 110.296C158.282 113.576 159.591 116.721 161.921 119.04C164.251 121.358 167.411 122.661 170.706 122.661L170.706 110.296L170.706 97.9317Z" fill="#60D5DC"/>
</g>
<defs>
<linearGradient id="paint0_linear" x1="0" y1="150" x2="300" y2="150" gradientUnits="userSpaceOnUse">
<stop stop-color="#21A0C8"/>
<stop offset="0.375199" stop-color="#54D3BC"/>
<stop offset="0.605842" stop-color="#42D7A1"/>
<stop offset="1" stop-color="#32B475"/>
</linearGradient>
<radialGradient id="paint1_radial" cx="0" cy="0" r="1" gradientUnits="userSpaceOnUse" gradientTransform="translate(150 150) rotate(90) scale(150)">
<stop offset="0.697917" stop-color="#035E7B" stop-opacity="0"/>
<stop offset="1" stop-color="#035E7B"/>
</radialGradient>
</defs>
</svg>
