<svg width="48" height="48" viewBox="0 0 48 48" fill="none" xmlns="http://www.w3.org/2000/svg">
<circle cx="24" cy="24" r="24" fill="#FFF"/>
<path d="M15.0521 11.6086L38.7221 27.7704L32.8682 36.4239L9.19824 20.1349L15.0521 11.6086Z" fill="url(#paint0_linear)"/>
<path d="M38.7221 27.7704C36.686 30.6973 29.8141 29.552 23.3239 24.9707C16.7065 20.5167 13.1433 14.5356 15.0521 11.6087C17.0883 8.68172 23.9602 9.82704 30.4503 14.4083C37.0678 18.7351 40.631 24.8435 38.7221 27.7704Z" fill="url(#paint1_linear)"/>
<path d="M32.8682 36.2967C30.8321 39.2236 23.9602 38.0783 17.47 33.497C10.9799 28.9158 7.28938 23.0619 9.32551 20.0077C11.3616 17.0808 18.2336 18.2261 24.7237 22.8074C31.2139 27.3887 34.7771 33.3698 32.8682 36.2967Z" fill="url(#paint2_linear)"/>
<path d="M38.7221 27.7705L32.8682 36.424C30.8321 39.351 23.9601 38.0784 17.47 33.6244C16.1974 32.7336 15.0521 31.8428 13.9068 30.8247C14.7976 30.6974 15.9429 30.1884 17.0882 28.9158C19.1243 26.7524 20.1424 26.2434 21.0332 26.3707C21.924 26.3707 22.9421 27.2615 24.5964 29.4249C26.2508 31.5882 28.5414 32.2245 29.9413 31.0792C30.0685 30.9519 30.1958 30.9519 30.323 30.8247C31.4684 29.9339 31.8501 29.5521 34.0135 25.4799C34.5225 24.4618 36.3042 22.8074 38.7221 23.571C39.3584 25.2253 39.3584 26.6252 38.7221 27.7705Z" fill="#0E0F23"/>
<path fill-rule="evenodd" clip-rule="evenodd" d="M37.8313 27.2615C36.0497 29.8066 29.814 28.5341 23.8329 24.3345C17.7245 20.135 14.1613 14.7902 15.9429 12.245C17.7245 9.69988 23.9602 10.9725 29.9413 15.172C35.9224 19.3715 39.4857 24.7163 37.8313 27.2615ZM32.232 23.4437C31.3411 24.7163 28.287 24.08 25.2328 22.0439C22.3058 20.0078 20.5242 17.3354 21.415 16.0628C22.3058 14.7902 25.36 15.4265 28.4142 17.4626C31.3411 19.4987 33.1228 22.1712 32.232 23.4437Z" fill="#FFF"/>
<path d="M14.5431 14.5356C14.5431 14.4083 14.4158 14.281 14.2885 14.4083C14.1613 14.5356 14.034 14.5356 14.034 14.6628C14.1613 15.0446 14.2885 15.2991 14.2885 15.5536C14.2885 15.6809 14.4158 15.8081 14.5431 15.6809C14.6703 15.6809 14.7976 15.5536 14.6703 15.4264C14.6703 15.1719 14.6703 14.9173 14.5431 14.5356Z" fill="#FFF"/>
<path d="M15.1794 16.5718C15.1794 16.4446 15.0522 16.3173 14.9249 16.4446C14.7976 16.5718 14.7976 16.5718 14.7976 16.6991C16.1975 19.8805 19.1244 23.3165 22.9421 25.8616C23.0694 25.9889 23.1967 25.8616 23.3239 25.8616C23.4512 25.7344 23.3239 25.6071 23.3239 25.4799C19.3789 22.9347 16.5792 19.626 15.1794 16.5718Z" fill="#FFF"/>
<path d="M30.5776 29.043C30.4503 29.043 30.3231 29.043 30.3231 29.1703C30.3231 29.2975 30.3231 29.4248 30.4503 29.4248C30.8321 29.5521 31.3411 29.6793 31.7229 29.8066C31.8502 29.8066 31.9774 29.8066 31.9774 29.6793C31.9774 29.5521 31.9774 29.4248 31.8502 29.4248C31.4684 29.2975 30.9594 29.1703 30.5776 29.043Z" fill="#FFF"/>
<path d="M32.8683 29.5521C32.741 29.5521 32.6137 29.6793 32.6137 29.8066C32.6137 29.9338 32.741 30.0611 32.8683 30.0611C33.8863 30.1884 35.0316 30.3156 35.9224 30.1884C36.0497 30.1884 36.177 30.0611 36.177 29.9338C36.177 29.8066 36.0497 29.6793 35.9224 29.6793C34.9044 29.8066 33.8863 29.6793 32.8683 29.5521Z" fill="#FFF"/>
<defs>
<linearGradient id="paint0_linear" x1="19.6896" y1="9.31075" x2="24.3837" y2="25.4295" gradientUnits="userSpaceOnUse">
<stop stop-color="#03B8FF"/>
<stop offset="1" stop-color="#FA52A0"/>
</linearGradient>
<linearGradient id="paint1_linear" x1="23.5553" y1="8.1849" x2="28.2494" y2="24.3038" gradientUnits="userSpaceOnUse">
<stop stop-color="#03B8FF"/>
<stop offset="1" stop-color="#FA52A0"/>
</linearGradient>
<linearGradient id="paint2_linear" x1="15.836" y1="10.4329" x2="20.5302" y2="26.5518" gradientUnits="userSpaceOnUse">
<stop stop-color="#03B8FF"/>
<stop offset="1" stop-color="#FA52A0"/>
</linearGradient>
</defs>
</svg>
