<svg width="48" height="48" viewBox="0 0 48 48" fill="none" xmlns="http://www.w3.org/2000/svg">
<path d="M23.9996 47.9992C37.2542 47.9992 47.9992 37.2542 47.9992 23.9996C47.9992 10.745 37.2542 0 23.9996 0C10.745 0 0 10.745 0 23.9996C0 37.2542 10.745 47.9992 23.9996 47.9992Z" fill="url(#paint0_linear)"/>
<path fill-rule="evenodd" clip-rule="evenodd" d="M23.1305 8.65796C21.7371 8.81856 20.4414 9.45436 19.4618 10.4583C18.7263 11.1866 18.0296 11.9342 17.2844 12.6698C16.9114 13.0525 16.5343 13.4247 16.1572 13.8026C15.7802 14.1805 15.3643 14.5818 14.9726 14.9783C14.581 15.3748 14.2557 15.7227 13.8932 16.0909C13.3268 16.6573 12.7604 17.2237 12.194 17.7958C11.7595 18.2449 11.3347 18.7085 10.905 19.1568C10.6517 19.4246 10.379 19.673 10.1403 19.9546C9.15525 21.1565 8.61685 22.6625 8.6167 24.2164C8.6167 24.3079 8.6167 24.4017 8.62236 24.4924C8.64251 25.3847 8.87672 26.2591 9.30529 27.042C9.54927 27.5152 9.83181 27.9674 10.1501 28.3941C10.3604 28.6903 10.5134 28.6854 10.7901 28.4564C10.843 28.4125 10.8925 28.3646 10.9382 28.3132C11.2109 28.026 11.4779 27.7395 11.7554 27.4531C12.1471 27.042 12.5484 26.6318 12.94 26.2159C13.3317 25.8 13.7565 25.342 14.1675 24.9123C14.3633 24.7019 14.5721 24.5077 14.7695 24.3006C15.1895 23.8564 15.6005 23.3984 16.0205 22.959C16.4404 22.5196 16.8661 22.1086 17.2771 21.6789C17.6882 21.2493 18.1939 20.7233 18.6567 20.2459C19.1196 19.7685 19.512 19.3672 19.9417 18.9278C20.5008 18.3492 21.0453 17.7569 21.5988 17.1792C21.9427 16.8256 22.2963 16.4866 22.6402 16.1378C23.1176 15.6604 23.5618 15.183 24.0303 14.7056C24.4988 14.2282 24.8468 13.9078 25.2481 13.4967C26.1452 12.5905 27.0409 11.6788 27.9353 10.7618C27.9931 10.7048 28.0471 10.6443 28.0972 10.5805C28.3172 10.303 28.3359 10.2415 28.064 10.0457C27.6489 9.7186 27.2044 9.43066 26.7362 9.18553C25.9086 8.79852 25.0062 8.59798 24.0926 8.59808H24.0473C23.7422 8.59815 23.4373 8.61734 23.1346 8.65553L23.1297 8.65068L23.1305 8.65796ZM31.0352 14.5373H30.9778C30.5858 14.5374 30.1986 14.623 29.8431 14.788C29.4876 14.9531 29.1723 15.1936 28.9193 15.4929C28.874 15.5431 28.8262 15.5909 28.776 15.6361L27.3147 17.0692C26.8373 17.5474 26.3211 18.0677 25.8194 18.5693C25.4043 18.9844 24.9884 19.3906 24.5781 19.8065C24.1679 20.2224 23.7277 20.6853 23.2835 21.1198C22.8393 21.5543 22.3667 22.0099 21.9079 22.4573L20.2791 24.0999L17.2512 27.1286C15.9134 28.4718 14.5775 29.8123 13.2435 31.1501C12.9861 31.4034 12.9813 31.4366 13.2435 31.7084C13.8835 32.3558 14.5333 32.9982 15.1539 33.6504C15.5379 34.0574 16.0446 34.3274 16.5966 34.4191C17.1174 34.5239 17.6554 34.5059 18.168 34.3665C18.552 34.2715 18.9065 34.0827 19.1997 33.8171L20.7856 32.2854C21.1578 31.9277 21.5357 31.5741 21.9031 31.2108C22.6386 30.4826 23.3644 29.7495 24.0999 29.0261C24.6971 28.4386 25.3088 27.856 25.9149 27.2686L28.4014 24.8452C29.1749 24.0854 29.9534 23.3215 30.7366 22.5617C30.7888 22.4841 30.8613 22.4223 30.9462 22.383C31.031 22.3437 31.1251 22.3285 31.218 22.3389C31.3109 22.3493 31.3992 22.385 31.4733 22.4422C31.5474 22.4993 31.6043 22.5756 31.638 22.6629C32.0361 23.2443 32.2491 23.9325 32.2489 24.6372C32.2488 24.7577 32.2426 24.8782 32.2303 24.9981C32.1661 25.7085 31.8731 26.3789 31.3953 26.9085C30.8216 27.5251 30.2107 28.1077 29.6151 28.7C29.1903 29.1199 28.7558 29.531 28.3302 29.9558C27.7808 30.5004 27.2411 31.0546 26.6916 31.5992C26.6107 31.6898 26.5347 31.7853 26.4489 31.8711L25.9092 32.4302C25.5046 32.8348 25.0928 33.228 24.6955 33.6334C24.2982 34.0388 23.8418 34.513 23.417 34.9556C23.379 34.9985 23.3361 35.0268 23.298 35.0648C22.8198 35.509 22.3805 35.9549 21.9265 36.4024C21.7121 36.6127 21.5066 36.8272 21.2962 37.0375C20.9337 37.4057 20.5607 37.7658 20.2119 38.1412C19.9975 38.3654 19.9975 38.5037 20.2508 38.6809C20.6666 39.0001 21.1092 39.2828 21.5737 39.5257C22.7292 40.0482 24.0097 40.2304 25.2651 40.0508C26.5111 39.9029 27.6801 39.3704 28.6093 38.5272C29.3157 37.9066 29.9469 37.2091 30.6055 36.5407C31.0829 36.0625 31.5612 35.5519 32.0717 35.06L33.4522 33.6698C33.8729 33.245 34.288 32.8194 34.7136 32.3995C35.1392 31.9795 35.6684 31.4778 36.1458 31.0045C36.6232 30.5311 37.1015 30.0497 37.5789 29.5431C37.9595 29.1555 38.3111 28.7404 38.6308 28.3011C39.2267 27.4007 39.5987 26.3709 39.7158 25.2975C39.7806 24.7643 39.7806 24.2253 39.7158 23.6921C39.5738 22.7434 39.23 21.8362 38.7076 21.0316C38.332 20.4623 37.8825 19.9453 37.3709 19.4942C36.0479 18.1809 34.729 16.858 33.4352 15.5156C33.1531 15.2015 32.8082 14.9503 32.4227 14.7783C32.0373 14.6063 31.6199 14.5173 31.1978 14.5171H31.18L31.0368 14.5365L31.0352 14.5373Z" fill="#FFF"/>
<defs>
<linearGradient id="paint0_linear" x1="3.27025" y1="10.07" x2="41.7881" y2="36.4244" gradientUnits="userSpaceOnUse">
<stop stop-color="#FF3B3B"/>
<stop offset="1" stop-color="#FF9914"/>
</linearGradient>
</defs>
</svg>
