<svg xmlns="http://www.w3.org/2000/svg" viewBox="0 0 500 500"><defs><style>.cls-1{fill:#fff;}.cls-2,.cls-6{fill:#6b00fa;}.cls-10,.cls-2,.cls-3,.cls-4,.cls-9{stroke:#000;stroke-miterlimit:10;}.cls-2,.cls-3,.cls-4,.cls-9{stroke-width:0.5px;}.cls-3,.cls-5{fill:#4300bf;}.cls-4,.cls-7{fill:#100342;}.cls-8{fill:#100641;}.cls-10,.cls-9{fill:#e0e3bd;}.cls-10{stroke-width:2px;}.cls-11{fill:#272f49;}</style></defs><g id="Layer_2" data-name="Layer 2"><g id="Capa_1" data-name="Capa 1"><circle class="cls-1" cx="250" cy="250" r="250"/><g id="Color_Stone" data-name="Color Stone"><path class="cls-2" d="M141,329.6c1.4-21,1-42.6,3.5-64.1,1.4-11.7,3.9-23.3,4.9-35,1.3-16-.3-32-.7-48.1-.1-4.7-.6-9.4.6-14.1.6-2.4,1.5-4.9,4-5.4,4.3-1,3.1-3.4,2.2-6-1-2.9-1.9-5.8-3-8.6-6-14.7-.9-27.9,6.4-40.3,6.2-10.6,14.3-20.1,22.8-29,9.5-10,21.3-15,35.2-15.2,2.6,0,5.2-.1,7.9-.3,1.3-.1,2.6-.1,4-.2,1.2-.1,2.5,0,3.7-.2l1.2-.3c.7,0,1.4.2,2,.2,1.5.2,2.9.4,4.4.7,2.9.5,5.8,1,8.7,1.6,5.8,1.1,11.5,2.5,17.2,4a42.82,42.82,0,0,1,9.1,3.2c5.3,2.9,9.1,7.8,14.2,11,3.5,2.2,7.4,3.5,10.6,6.1,3.6,2.9,5.9,7,8.1,11.1a84.39,84.39,0,0,1,6.4,13.6c.4,1.2.8,2.5,1.1,3.7a134.94,134.94,0,0,1,2.4,15.5,71.78,71.78,0,0,0,3,15.2c.4,1.2.9,2.4,1.4,3.6a9.38,9.38,0,0,1,.6,1.5c0,.7-.1,1.4-.1,2.1-.1,15.1-1.4,30.1-1.7,45.2-.5,24.4-2.2,48.8-4.9,73.1a35.56,35.56,0,0,0,1.1,12.6,98,98,0,0,1,2,37c-1.5,10.6-1.5,21.5-2.2,32.3-.3,4.8-2.9,6.8-7.6,6.9-5.5.1-10.5-2.2-16-2.3-7.7-.2-15.1,1.6-22.6,2.4-12.6,1.2-24.8-1.1-37.2-2.6-2.2-.2-4.3-1.2-6.5-1.1s-4.5.1-6.8,0a18.59,18.59,0,0,1-3.3-.4,13.89,13.89,0,0,0-1.9-.6c-3-.3-6-.3-9-.5s-6-.3-9-.4c-6-.3-12.1-.5-18.1-.7l-18.1-.6c-1.5,0-3-.1-4.5-.1a32.33,32.33,0,0,0-4.4-.1c-.4.1-.8.3-1.1.4a9.78,9.78,0,0,1-4.5-.1c-4.4-1.2-5.5-5.9-5.6-9.9-.1-2.7.2-5.4.3-8.1C141,335.6,141,332.9,141,329.6Z"/><path class="cls-3" d="M325.5,413.5c-.8,5.2-.1,11.1-1.6,16.7-.6,2.2-1.1,4.3-3.5,5.2s-3.9-.2-5-2.2c-.8-1.4-2.2-1.3-3.6-1.4-11.3-.7-22.6-1.4-33.8-2l-115.7-6c-10.8-.5-21.6-.8-32.4-1.4-2.9-.2-8.7,0-9.4-3.9-.2-1.2-.9-2.2-1.2-3.4a29.14,29.14,0,0,1-.8-7.8c-.2-6-.3-12.1-.5-18.1,0-1,0-2-.1-3a2.77,2.77,0,0,0-.5-1.6,4.22,4.22,0,0,1,.9-4.4,4.14,4.14,0,0,1,5-1.5c6.2,2.3,12.7,1.8,19,2.2,29.6,1.7,59.3,3,89,4.4,27,1.3,53.9,2.7,80.9,4.1,9.3.5,12.9,4.3,12.9,13.7C325.1,406.4,325.3,409.7,325.5,413.5Z"/><path class="cls-2" d="M239.4,360a248.8,248.8,0,0,1-27.3-2c-5.8-.9-11.4-2.2-17.2-3a169.15,169.15,0,0,0-18.8-1c-9.5-.2-19.2-.3-28.4,2s-18.2,7.4-23.1,15.6c8.7,6.4,20.1,7.2,30.9,7.8,6.6.4,13.2.7,19.8,1.1,48.7,2.7,97.4,5.4,146.1,5.5-1.5-4.6-3-9.3-4.6-13.9-1.4-4.1-3.4-8.9-8.2-9.9a19.29,19.29,0,0,0-4.8.1c-2.8,0-5.7-.2-8.5-.3-11.9-.4-23.9-.9-35.8-1.3C252.8,360.5,246.1,360.2,239.4,360Z"/><path class="cls-3" d="M350.1,351.6c1.5-.8,3.2-1.6,4.1-3a9.57,9.57,0,0,0,1.1-4.7c.4-6.6.8-13.1,1.2-19.7.5-7.4.9-14.8.8-22.2-.1-7-.8-14-.4-20.9.4-6.4,1.7-12.7,2.4-19.1,2.5-22.6-2.8-45.4-1.8-68.1.4-8.4,1.7-16.8,2.2-25.3a147.86,147.86,0,0,0-11.5-67.3,12.08,12.08,0,0,0-3.1-4.8c-2-1.6-4.7-1.8-6.9-3.1-3.1-1.9-4.3-5.7-6-9C328,76.2,320,70.6,311.3,67.5s-17.9-4-27-4.9c-6.4-.6-12.8-1.2-19.2-1.9-3.1-.3-7.6.7-7.1,3.8,9.2,6.9,19.8,11.9,29.5,18.1s18.9,14.1,23.5,24.7c2,4.5,3,9.4,4,14.3,3,14,5.9,28,6.6,42.3.5,10.4-.2,20.9-.9,31.4-.9,13.7-1.5,27.5-2.1,41.2s-1,27.5-1.2,41.2-.4,27.5-.3,41.2c0,6.9.1,13.8.2,20.6,0,3.4.1,6.9.2,10.3.1,3.2-.2,6.7.2,10,.7,4.9,6.2,4.2,9.6,2.7,6.2-2.7,12.2-5.9,18.4-8.9C346.8,353.2,349,351.6,350.1,351.6Z"/><path class="cls-4" d="M324,384.8c.4.7.9,1.5,1.7,1.5a3.36,3.36,0,0,0,1.4-.5c4.6-3.1,8.4-7.3,13.4-9.6,3.4-1.6,7.1-2.2,10.6-3.4,5-1.7,9.5-4.6,14-7.4,1.6-1,3.4-2.5,3.1-4.4a3.84,3.84,0,0,0-.9-1.8,38.66,38.66,0,0,0-8.9-8.7,4.87,4.87,0,0,0-2.2-1,6,6,0,0,0-2.9.8c-7.3,3.6-14.5,7.2-21.7,10.9-3.6,1.8-7.2,3.7-10.8,5.5-3,1.5-5.5,2.6-3.5,6.2C319.6,376.9,322,380.8,324,384.8Z"/><path class="cls-4" d="M327.2,427.8a4.27,4.27,0,0,0,.6,2c1.1,1.2,3,.5,4.4-.3l36.3-20.4a9.31,9.31,0,0,0,3.3-2.6,9.47,9.47,0,0,0,1-4.4c.4-8.1.7-16.2,1.1-24.4.1-2.3.1-4.8-1.2-6.6-1.4-2-4.1-2.6-6.5-2.3a18.55,18.55,0,0,0-6.7,2.7c-9.7,5.4-19.4,10.7-29.1,16-3.2,1.8-7.1,3-6.8,7.2.3,4.9,1.1,9.8,1.6,14.6.3,3.1.7,6.1,1,9.2S327.2,424.8,327.2,427.8Z"/><path class="cls-5" d="M272.4,114a4.24,4.24,0,0,1-.3,6.4,4.15,4.15,0,0,1-6.1-1.8,4.36,4.36,0,0,1,3.2-5.6A4.25,4.25,0,0,1,272.4,114Z"/><path class="cls-5" d="M288.6,128.1a6.75,6.75,0,0,0-.2,1.4,2.29,2.29,0,0,0,1.5,1.9,4,4,0,0,0,5.5-2.9c.2-2.4-2.4-4.7-4.7-4-.2-.1-.5.1-.6.3A8.91,8.91,0,0,0,288.6,128.1Z"/><path class="cls-5" d="M278.7,142.2h-4.4a1.43,1.43,0,0,0-1.1.3c-.2.2-.2.5-.3.8-.2,1.2-.3,2.3-.4,3.5-.1,1.4-.1,3.2,1.1,3.9a11.08,11.08,0,0,0,2.5.5,4.92,4.92,0,0,0,2,.5c1.4,0,2.3-1.5,2.6-2.9a6.64,6.64,0,0,0-.3-4.4,3.66,3.66,0,0,0-3.6-2.2"/><path class="cls-6" d="M346.2,185.7c-1-1-2.2-.9-3.5-.5a2.71,2.71,0,0,0-1.8,2.8,4.2,4.2,0,0,0,1.4,2.7c1.1,1.1,3.1.1,3.9-.9A3.17,3.17,0,0,0,346.2,185.7Z"/><path class="cls-6" d="M339.2,202.5a4.53,4.53,0,0,0-1-2.1c-.6-.6-1.8-.3-2.5,0a6.57,6.57,0,0,0-1.7,1.2c-.2.2-.4.3-.5.6a4.28,4.28,0,0,0-.5,1.6c0,.3-.3,1.7,0,1.9a4.46,4.46,0,0,0,4.2.4A3.91,3.91,0,0,0,339.2,202.5Z"/><path class="cls-5" d="M166.9,328.9a5.2,5.2,0,0,0-4.6,2.5,4.24,4.24,0,0,0,.8,5.1c1.5,1.3,6.4,1.2,7.8-.1s-.5-3.6-1.3-5.5c-1.2-.7-2.5-1.4-3.8-2"/><path class="cls-5" d="M158.2,295.8a27.46,27.46,0,0,0-1.4,4.9,1.18,1.18,0,0,0,.1,1,2,2,0,0,0,1.5.7c1.5.1,3.2.1,4.1-1a2.73,2.73,0,0,0,.6-1.2,3.81,3.81,0,0,0-1.2-4.4c-1.4-.9-3.6-.4-3.9,1.2"/><path class="cls-5" d="M180.5,312.2c-.2-.5-.6-1.3-1.1-1.5a4.8,4.8,0,0,0-1.2,0h-1.1a2,2,0,0,0-.8.1c-.4.2-.8.8-1.1,1.1a.78.78,0,0,0-.4.4,3.66,3.66,0,0,0-.4,1.8c0,.2,0,1.8.2,1.8,1,.2,4.5.5,5.5.7.6.1-1.1.3-.6-.1a4.35,4.35,0,0,0,.6-.7A5.11,5.11,0,0,0,180.5,312.2Z"/><path class="cls-6" d="M278.5,419.6a4.58,4.58,0,0,0,6.3-1c1-1.5.8-3.4.5-5.2a2.54,2.54,0,0,0-.5-1.3,1.84,1.84,0,0,0-1.3-.4,26.73,26.73,0,0,0-4-.1h-.6a4.51,4.51,0,0,0-1.4,1,3.73,3.73,0,0,0-1.1,3.6A5.82,5.82,0,0,0,278.5,419.6Z"/><path class="cls-6" d="M265.8,400.1a3,3,0,0,0-1.6,3.7,5.28,5.28,0,0,0,2.9,1.4,2.31,2.31,0,0,0,2.5-1.7,3.42,3.42,0,0,0-.8-2.5,4.09,4.09,0,0,0-2-1.9c-.9-.2-2.1.6-1.7,1.5"/><path class="cls-6" d="M335.9,330.7a4.51,4.51,0,0,0-4.5,1.4,7.89,7.89,0,0,0-1.7,4.6,3.57,3.57,0,0,0,.5,2.5,2.91,2.91,0,0,0,3.1.7,6.13,6.13,0,0,0,4.8-4.1c.6-2.1-.8-4.8-3-5.1C336.7,330.5,334.8,329.6,335.9,330.7Z"/><path class="cls-6" d="M343,305.4c-2.1.4-4.1,1.9-4.3,4s2.2,4.1,4.1,3.1a4.93,4.93,0,0,0-.3-7"/><path class="cls-7" d="M277.3,101.8a2.21,2.21,0,0,0-1.2,3,3.34,3.34,0,0,0,3.1,1.7,1.86,1.86,0,0,0,1.6-.7,2.92,2.92,0,0,0,.2-.9,13.05,13.05,0,0,0-.3-3.4,12.17,12.17,0,0,0-3.3.1"/><path class="cls-7" d="M266.3,119.5a8.17,8.17,0,0,0-2.7.6,2.4,2.4,0,0,0-1.4,2.2c.1,1.2,1.4,2,2.5,2.5.9.4,2.1.8,2.9.1s.5-1.9,1.1-2.8a3.33,3.33,0,0,0,.6-1c.1-.7-.7-1.2-1.4-1.3s-1.5-.2-1.8-.8"/><path class="cls-7" d="M251.4,97.9A6.11,6.11,0,0,0,249,100c-1,1.7-.2,4.4,1.7,4.8s3.6-1.3,4.6-3a1.42,1.42,0,0,0,.2-.6.66.66,0,0,0-.4-.5c-1.1-.8-2.2-1.6-3.3-2.3-.3-.2-.8-.4-1,0"/><path class="cls-7" d="M174.3,115.5a8.87,8.87,0,0,0-.6,4,3.28,3.28,0,0,0,2.9,0,6.3,6.3,0,0,0,2.2-2.1,1.49,1.49,0,0,0,.3-.7,1.61,1.61,0,0,0-.5-1.1,3.6,3.6,0,0,0-2.3-1.3,1.88,1.88,0,0,0-2,1.4"/><path class="cls-7" d="M169.8,131.8a1.73,1.73,0,0,0-.4,2.4,2.91,2.91,0,0,0,2.5.9c.6-.1,1.3-.3,1.5-.8.4-.8-.2-1.7-.8-2.3s-1.5-1.5-2.5-1.2"/><path class="cls-7" d="M210.3,80.4a5.3,5.3,0,0,0-.1,3.3,1.87,1.87,0,0,0,2.5.5,2.62,2.62,0,0,0,1.1-2.5c-.2-1.1-1.4-2.2-2.4-1.7"/><path class="cls-7" d="M298.1,178.2a3,3,0,0,0,.8,3.8,2.7,2.7,0,0,0,3.7-.8,2.79,2.79,0,0,0,.2-2.2,2.87,2.87,0,0,0-2.6-1.7,4.14,4.14,0,0,0-3,1.1c.4.1.7.3,1.1.4"/><path class="cls-4" d="M291.6,325.1c-.1,1.5-.8,2.9-.8,4.4s1,3.2,2.5,3.2c1.3,0,2.2-1.2,2.8-2.3a25.29,25.29,0,0,0,1.3-2.2,1.44,1.44,0,0,0,.3-1.4,1.21,1.21,0,0,0-.5-.5,10,10,0,0,0-5.9-1.5"/><path class="cls-8" d="M282.8,307.8a4.24,4.24,0,0,0,2.4,2.5c1.9.6,4.1-1.7,3.3-3.5s-4-1.9-4.8,0"/><path class="cls-8" d="M242,334.6a3.43,3.43,0,0,0,2.7,4.3c1.9.3,3.8-1.3,4.3-3.2a1.18,1.18,0,0,0-.1-1,1.35,1.35,0,0,0-.9-.5c-1.6-.4-3.3-.8-4.9-1.3a9.83,9.83,0,0,0-.5,1.6"/><path class="cls-7" d="M167.3,262.4a6.26,6.26,0,0,0-.3,2.7,2.08,2.08,0,0,0,4.1.5,6.59,6.59,0,0,0,.3-3.1c-1.2-.2-2.4-.4-3.5-.6"/><path class="cls-8" d="M157.8,397.1c-.4,1.3-.7,3,.4,3.9s2.9.1,4.4.4a7.73,7.73,0,0,0,.1-3.7,3.36,3.36,0,0,0-2.4-2.6,2,2,0,0,0-2.5,2h.9"/><path class="cls-8" d="M180.6,405.8c0,1.6,0,3.1.1,4.7,1.1.2,2.3.3,3.5.5a1.73,1.73,0,0,0,1-.1,1.6,1.6,0,0,0,.5-1c.4-1.7.4-3.6-.8-4.9s-3.8-.9-4,.8"/><path class="cls-8" d="M283.9,408.6a3.32,3.32,0,0,0-1.1,3.8,2.5,2.5,0,0,0,3.6,1.1,6.23,6.23,0,0,0,.8-3.5c-.2-1.2-1.8-2.1-2.8-1.3"/><path class="cls-8" d="M338.7,408.8a4.26,4.26,0,0,0,0,2.5,1.49,1.49,0,0,0,2.1.8,1.37,1.37,0,0,0,.5-.8,5.2,5.2,0,0,0,.5-2.7,2.13,2.13,0,0,0-1.7-1.9c-.9-.1-1.9.8-1.6,1.6"/><path class="cls-8" d="M333.3,288.5a6.26,6.26,0,0,0-.3,2.7c.2.9.9,1.8,1.8,1.7,1.4,0,2-1.7,2.2-3.1.2-1.2.2-2.8-.9-3.3s-2.3.8-3,1.8"/><path class="cls-7" d="M343.4,137.7a4.14,4.14,0,0,0,.1,2.7,1.71,1.71,0,0,0,2.3.8,2,2,0,0,0,.8-1,4.09,4.09,0,0,0,.4-2.4,2.15,2.15,0,0,0-1.6-1.7c-.8-.1-1.7.7-1.5,1.5"/><path class="cls-7" d="M337.9,151.1c0,1.1,0,2.1.1,3.2a2.89,2.89,0,0,0,3.2-2.4,2.81,2.81,0,0,0-2.5-3.1,3.44,3.44,0,0,1-.4,2"/><path class="cls-7" d="M351.1,153.6a7,7,0,0,0-.5,3.5,2.37,2.37,0,0,0,2.5,2c1.5-.3,1.8-2.4,1.7-4-.1-1.1-.2-2.4-1.1-3s-2.6.1-2.2,1.1"/></g><g id="Color_Skull" data-name="Color Skull"><path class="cls-9" d="M196.2,267.4c1.7-6-1.5-11.4-6.1-16.8-7.1-8.3-13.6-17-15.1-28.6-3.3-26.2,11.3-51.8,35.4-61.1a57.87,57.87,0,0,1,78.5,54.2c0,11-3.5,20.5-11.2,28.4-3.7,3.7-6.8,8-10.7,11.5a14.74,14.74,0,0,0-5.3,12.9c.2,4.1-.3,8.2-.2,12.3v.8c0,.4-.1.7-.1,1a13.42,13.42,0,0,0,.1,2.1,12.75,12.75,0,0,0-2,.1,19.22,19.22,0,0,1-2.4,0c-1.5-.2-2.9-.2-4.4-.3a3.75,3.75,0,0,1-1-.1c-.6,0-1.1-.1-1.7-.1-.2,0-.4-.1-.7-.1h-4.4c0-.6-.1-1.2-.1-1.8-.1-1.2-.1-2.4-.1-3.6,0-2.3-.1-4.6-.1-6.9a.35.35,0,0,0-.4-.4,34.74,34.74,0,0,0-7.2.3c0,1.4,0,2.8-.1,4.3v1.2a9.7,9.7,0,0,1-.1,1.7c0,.2-.1.3-.1.4a1.7,1.7,0,0,0-.1.7,12.92,12.92,0,0,0,.1,3.4h-2.2a13.2,13.2,0,0,1-2.8-.2c-1.1-.2-2.3-.1-3.4-.2a5.7,5.7,0,0,1-1.3-.1c-1.1,0-2.2-.2-3.3-.2H222a9.85,9.85,0,0,0-1.7.2c0-1,.1-2.1.1-3.1a9.15,9.15,0,0,1,.1-1.6c0-.5.1-1,.1-1.5,0-2,0-4-.1-6.1a42.51,42.51,0,0,0-8-.7c-.1,2.3-.2,4.6-.4,6.9-.1,1.1-.1,2.3-.2,3.5v.9a.75.75,0,0,1-.1.5c-.1.2-.6.2-.8.2a30.88,30.88,0,0,1-4.3-.1c-.6,0-1.3-.1-1.9-.1-1.6-.1-3.2-.1-4.8-.2-.5,0-1.1-.1-1.6-.1a3,3,0,0,0-1-.2l-1.7-.1v-3.8a3.81,3.81,0,0,1,.1-1.5c.1-.2,0-.4,0-.6v-1.5c0-1.3.1-2.5.1-3.8C196.1,269.4,196.1,269,196.2,267.4ZM228.6,249c.9.1,1.8.1,2.7.2,1.4.1,2.9.2,4.3.4-.5-1.5-1-3-1.6-4.4-.2-.6-.5-1.1-.7-1.6s-.5-.9-.7-1.4a.6.6,0,0,1-.1-.4c-.1-.5-.3-.9-.4-1.4-.5-1.2-.9-2.5-1.4-3.8a12.2,12.2,0,0,0-.7-1.7,1.47,1.47,0,0,1-.2.4c-.1.2-.3.4-.4.6a64.89,64.89,0,0,0-3.6,5.5c-.6.9-1.1,1.9-1.7,2.9-.3.5-.5,1-.8,1.4l-.3.6a4.18,4.18,0,0,1-.8,1.2,9.06,9.06,0,0,0-1.1,1.6h1.7a9.7,9.7,0,0,0,1.7-.1c.2,0,.5-.1.7-.1a2.77,2.77,0,0,1,.9.1c.6,0,1.1.1,1.7.1A.8.8,0,0,1,228.6,249Z"/><path class="cls-9" d="M193.9,264.6c1.6-5.9-1.5-11.2-6-16.5-7-8.2-13.4-16.7-14.8-28-3.2-25.7,11.1-50.7,34.7-59.8a56,56,0,0,1,67.1,21,57.45,57.45,0,0,1,10,32.1c0,10.8-3.4,20.1-11,27.8-3.6,3.7-6.6,7.9-10.5,11.2-4,3.5-5.5,7.5-5.2,12.7.2,4-.3,8-.2,12v.8c0,.3-.1.7-.1,1a12.12,12.12,0,0,0,.1,2h-2a19.22,19.22,0,0,1-2.4,0c-1.4-.2-2.9-.2-4.3-.3a2.77,2.77,0,0,1-.9-.1c-.6,0-1.1-.1-1.7-.1-.2,0-.4-.1-.6-.1h-4.3c0-.6-.1-1.1-.1-1.7-.1-1.2-.1-2.3-.1-3.5,0-2.3-.1-4.5-.1-6.8a.35.35,0,0,0-.4-.4,32.85,32.85,0,0,0-7,.3c0,1.4,0,2.8-.1,4.2v1.2a10.28,10.28,0,0,1-.1,1.7c0,.2-.1.3-.1.4a1.7,1.7,0,0,0-.1.7,12.17,12.17,0,0,0,.1,3.3h-2.1a12.29,12.29,0,0,1-2.7-.2c-1.1-.2-2.2-.1-3.4-.2a5.7,5.7,0,0,1-1.3-.1c-1.1,0-2.1-.2-3.2-.2h-1.7a7.77,7.77,0,0,0-1.6.2c0-1,.1-2,.1-3.1a7.57,7.57,0,0,1,.1-1.5c0-.5.1-1,.1-1.5,0-2,0-4-.1-6a51.39,51.39,0,0,0-7.8-.7c-.1,2.3-.2,4.5-.3,6.8-.1,1.1-.1,2.3-.2,3.4v.9a.75.75,0,0,1-.1.5c-.1.2-.6.2-.8.2a29.46,29.46,0,0,1-4.2-.1c-.6,0-1.3-.1-1.9-.1-1.6-.1-3.2-.1-4.7-.2-.5,0-1-.1-1.6-.1-.3,0-.6-.2-1-.2l-1.6-.1v-3.7a3.21,3.21,0,0,1,.1-1.4c.1-.2,0-.4,0-.6v-1.5c0-1.2.1-2.5.1-3.7C193.8,266.5,193.8,266.2,193.9,264.6Zm31.8-18.1c.9.1,1.8.1,2.6.2,1.4.1,2.8.2,4.2.4-.5-1.4-.9-2.9-1.5-4.4-.2-.6-.5-1.1-.7-1.6s-.5-.9-.7-1.4a.6.6,0,0,1-.1-.4c-.1-.5-.3-.9-.4-1.4-.5-1.2-.9-2.5-1.4-3.7a12.2,12.2,0,0,0-.7-1.7c0,.1-.2.3-.2.4s-.3.4-.4.6c-1.2,1.8-2.4,3.6-3.5,5.4-.6.9-1.1,1.9-1.6,2.8-.3.5-.5.9-.8,1.4l-.3.6a2.84,2.84,0,0,1-.8,1.1c-.4.5-.7,1-1.1,1.5H220a9.7,9.7,0,0,0,1.7-.1c.2,0,.5-.1.7-.1a2.77,2.77,0,0,1,.9.1c.6,0,1.1.1,1.7.1A1,1,0,0,0,225.7,246.5Z"/></g><g id="Skull"><path d="M264.4,166.1c-18.3-14.6-39-17-60.4-7.4-34.3,15.4-43.5,61-22.9,83.7,2.9,3.2,5.1,6.9,8.1,10.1a12.48,12.48,0,0,1,3.4,9.9c-.3,5.4-.8,10.9,0,16.8l17.6.8.3-12.5,6.8.2v11.6c0,.3-.1.6-.1,1h1.7c1.2,0,2.3.1,3.5.1,1.4.1,2.9.1,4.4.2,1.3.1,2.7.1,4,.2.8,0,1.6.1,2.5.1h.3a.9.9,0,0,0,.5-.1c0-.3.1-.7.1-1v-.1a.6.6,0,0,1,.1-.4c0-.3.1-.6.1-.8v-9.7l6.8.2-.3,12.4c1.1,0,18.5.8,18.5.8v-16a6.15,6.15,0,0,0-.1-1.4,20,20,0,0,1,.2-3.5,7.62,7.62,0,0,1,1.4-3.5c.2-.2.4-.5.6-.7l.8-.8c.5-.5,1-1.1,1.5-1.6,1-1.1,2-2.1,3-3.2l2.9-3.2c1-1.1,1.9-2.1,2.8-3.2s1.9-2.1,2.8-3.2,1.8-2.1,2.7-3.2c.5-.5.9-1.1,1.4-1.6a29.41,29.41,0,0,0,6.6-14.3C289.6,199.7,282.5,180.5,264.4,166.1Zm-56.7,98.1h-1v1.5c0,1-.1,2.1-.1,3.1-.1,2.1-.2,4.3-.2,6.4l-8.9-.4c0-.9.1-1.8.1-2.7.1-2,.2-4,.2-6.1s.2-4.3.2-6.4c0-.8.1-1.6.1-2.4,0-.4-.1-.8-.1-1.1s-.1-.8-.1-1.2c0-.2-.1-.3-.1-.5s-.1-.3-.2-.4a3.55,3.55,0,0,0-.4-.9l-.9-1.8a16.29,16.29,0,0,0-1.1-1.7,7,7,0,0,0-.8-1c-4.2-5.1-8.2-10.4-12.2-15.7-5.7-7.8-6.7-16.9-5.6-26.1,2.5-20.7,13.3-35.7,32.6-43.4,19.1-7.6,37.2-4.4,52.4,9.3,15.5,13.9,21.2,31.6,16.2,52.3-1.2,5.3-4.6,9.1-8,12.9-4.2,4.7-8.5,9.3-12.8,13.9-.2.2-.4.3-.5.5s0,.1-.1.2-.1.2-.2.3-.3.4-.4.6-.1.2-.2.3-.1.1-.1.2l-.6,1.2a13.79,13.79,0,0,0-.8,2.9,7.57,7.57,0,0,0-.1,1.5v17.6a.14.14,0,0,1-.2,0h-.4a8.6,8.6,0,0,1-1.6-.1l-6.6-.3c.1-1.9.1-3.8.2-5.6,0-.6.1-1.3.1-1.9v-3.1l-1.3-.2a7.72,7.72,0,0,0-1.5-.2l-3.2-.3c-1.1-.1-2.2-.1-3.3-.1h-6.1l-.4,11.5-8.9-.4.4-11.3-1.6-.3c-1.1-.2-2.1-.3-3.2-.4s-2.2-.1-3.3-.2-2.2,0-3.3-.1h-1.6"/><path d="M229.9,230.8c-.1-.1-.1-.3-.2-.4-.2-.3-.3-.7-.5-1l-.3-.6c-.1-.2-.2-.3-.3-.5-.4-.6-.7-1.3-1.1-1.9a9.29,9.29,0,0,1-.5-1,4917165483454.38,4917165483454.38,0,0,0-.2-.4c-.1,0-.1,0-.1.1s-.1.1-.1.2-.1.2-.1.3a2.19,2.19,0,0,1-.3.5,18.58,18.58,0,0,0-1.1,1.9,18.58,18.58,0,0,0-1.1,1.9c-.5.8-.9,1.6-1.4,2.5a5.58,5.58,0,0,1-.5.8,4.05,4.05,0,0,0-.5.9,8.79,8.79,0,0,0-.6,1c-.2.3-.4.7-.6,1s-.4.7-.6,1.1-.4.7-.6,1.1a10.91,10.91,0,0,1-.6,1.1,10.91,10.91,0,0,1-.6,1.1c-.2.4-.4.7-.6,1.1s-.4.7-.6,1.1-.4.7-.6,1.1-.4.7-.6,1a4.05,4.05,0,0,0-.5.9c-.2.3-.3.6-.5.9s-.3.5-.4.8a4.35,4.35,0,0,0-.4.7l-.3.6a.76.76,0,0,0-.2.4c-.1.1-.1.2-.2.3l-.1.1h.1a9.7,9.7,0,0,1,1.7.1h20.3l3.6.1h.1c-.2-.6-.5-1.1-.7-1.7-.6-1.4-1.2-2.7-1.8-4.1-.8-1.7-1.5-3.5-2.3-5.2s-1.4-3.3-2.1-4.9c-.5-1.1-.9-2.2-1.4-3.2-.4.6-.5.4-.6.2Zm-10.3,15.1c2.4-4.1,4.6-7.8,7.1-12.1,1.7,4.6,3.1,8.2,4.8,12.6C227.4,246.2,224,246,219.6,245.9Z"/></g><g id="Stone"><path class="cls-10" d="M162.9,168.8c0,.5.1.9.1,1.3m-.1-1.3c0,.5.1.9.1,1.3"/><path class="cls-10" d="M374.6,359.8c-5.1-4.1-8.9-9.4-13.7-14,.3-5.1.9-9.7.9-14.3-.1-12.6.7-25.2-.3-37.8-.6-7.7,1.5-15.1,3.6-22.5,4.1-14.1,1.8-28.6-.3-42.5a130.91,130.91,0,0,1-1-29.3c.7-8.6.8-17.2,1.5-25.8.9-12.2,2-24.2-1.1-36.5-2.7-10.4-3.3-21.3-7.5-31.3-3.3-7.8-3.3-7.8-13.5-21.3-9.1-9.6-10.5-9.7-18.3-14.4-6-3.6-11.9-7-19.2-7.7-9.3-.9-17.9-5-27.1-6.5-16-2.6-31.8-1.2-47.6,1.2-21.2,3.3-42.1,7.4-58.4,23.6-7.7,7.7-15.6,15-18.9,25.7-.9,3-2.9,5.6-4.4,8.3-6.9,11.7-5.3,17-6.3,32.2.6,1.1-1.4,7.7-2.1,9.5-.9,10.2-1,3.7-.9,8.1.3,13.3.4,26.6.5,39.8.1,12,.6,24-1.6,35.8-2.4,12.5-2.2,25.1-2.3,37.7a33.65,33.65,0,0,1-.6,8.4c-2.1,9.4-1.6,18.8-1.1,28.2.7,12.8.1,25.5,1.6,38.6-7.4,5.8-14.7,11.6-22.1,17.2-2.6,1.9-4.1,4-4.1,7.4.2,14.1.2,28.2.3,42.3,0,3.8,1.8,5.9,5.7,6.2,18.1,1.1,36.1,2.2,54.1,3.4,23.4,1.5,46.7,2.9,70.1,4.4,26.5,1.7,53,3.5,79.5,5.2a16.81,16.81,0,0,0,10-2.5c13.9-8.4,27.9-16.8,41.9-25,3.4-2,4.7-4.6,4.7-8.5.1-12.3.4-24.6.7-36.8C377.3,363.8,376.8,361.5,374.6,359.8ZM144.5,296.6c1.2-8.4,2.3-16.7,2.1-25.2-.3-11,1-21.8,2.6-32.6,2.2-15,1.4-30.1,1.1-45.2-.1-5.5-.2-11-.1-16.4,0-1.4.1-2.8.2-4.2a19.48,19.48,0,0,0,.2-2.5,1.52,1.52,0,0,1,.6-1c.4-.5.9-1,1.3-1.5a1.38,1.38,0,0,1,.4-.3.6.6,0,0,1,.4.1,22.57,22.57,0,0,1,5,3.9c0,.1,3.6,2.8,3.6,2.9s-2.2,5.1-2.2,5.3c4.3,0,3.2-1.4,6.7-7.7.2-.4-3.5-2.9-3.5-3.4a6.06,6.06,0,0,1-1.1-2.1,9.21,9.21,0,0,0-1.3-2.4c-.3-.4-.6-.7-.9-1.1l-.9-.9a.91.91,0,0,1-.3-.7c-.1-.4-.3-.7-.4-1.1a24.88,24.88,0,0,1-1.1-2.9c-.7-1.9-1.3-3.9-1.9-5.9s-1.2-4-1.9-6c-.4-1.1-.8-2.1-1.2-3.2.7-9.4,2.5-18.4,8.7-26a20.93,20.93,0,0,0,3-6.2c2.8-9.2,9-15.8,16.1-21.7,4.4-3.7,8.4-8.1,13.5-10.6.1-.1.5.2.6.2l.6.3a2.84,2.84,0,0,1,.9,1,13,13,0,0,1,.8,1.7c.2.5.4,1.1.6,1.6.4,1.1.8,2.1,1.1,3.2.1.2.1.3.2.4a.35.35,0,0,0,.1.2,1,1,0,0,0,.3.1c.4.1.8.3,1.2.4.1,0-.4,2.7-.4,2.9v.5c0,.4-.1.9-.1,1.3-.1.9-.1,1.8-.2,2.7a3.35,3.35,0,0,0,0,1c.1.3.2.5.3.8.8,1.6,1.7,3.2,2.6,4.8-.1-.2-.1-.6-.2-.8s-.1-.5-.2-.8c-.1-.5-.2-1.1-.3-1.6-.1-.7-.2-1.4-.3-2.2,0-.3-.1-.5-.1-.8s-.1-.3,0-.5a2,2,0,0,1,.4-.8c.1-.3.3-.6.4-.9a2.54,2.54,0,0,1,.7.2,1.42,1.42,0,0,0,.6.2,4.42,4.42,0,0,1,1.6.6,2.09,2.09,0,0,1,.6.4l.3.6c.5,1.3,1,2.7,1.6,4a2.51,2.51,0,0,0,.4.7,2.09,2.09,0,0,0,.6.4c1.3.8,2.7,1.6,4,2.4a28.33,28.33,0,0,0-2.3-2.8,11.13,11.13,0,0,1-2.3-5.2,4.87,4.87,0,0,1-.1-1.2c-1-.7-2-1.3-3-2a12.49,12.49,0,0,1-1.2-.8.76.76,0,0,1-.2-.5c-.1-.3-.2-.5-.3-.8-.4-1.1-.7-2.2-1.1-3.2-.1-.3-.2-.7-.5-.8-.1-.1-.3-.1-.5-.2a1.62,1.62,0,0,1-.5-.9c-.1-.4-.2-.9-.3-1.3a3.59,3.59,0,0,1-.2-1.1V81a15.17,15.17,0,0,1-.3-2.1,8.79,8.79,0,0,1,1.3-5.2c30.5-4.5,61.3-8.2,88.1,15.3v14a3,3,0,0,1-.2,1.3c-.1.1-.1.2-.2.4a2,2,0,0,1-.4.8c-.3.5-.6,1-1,1.6a6.92,6.92,0,0,0-1,1.9c.1-.1.2-.1.3-.2l.3-.3a3,3,0,0,1,.7-.5,6.89,6.89,0,0,0,1.3-1.1,4.23,4.23,0,0,0,.5-.7c.2-.3.4-.8.6-1.1a2.62,2.62,0,0,0,.6-1.3c.1-.2.2-.3.2-.5a6.37,6.37,0,0,0,.2-.7c.1-.5.2-.9.3-1.4.4-2,.5-4,.8-6a18.92,18.92,0,0,1,.5-2.3c8.3,6.5,16.9,12.2,18.1,23.6a160.62,160.62,0,0,0,5.4,28.3,29.61,29.61,0,0,1,1.5,8.3c0,18.7.9,37.3-2.1,55.9-1.6,9.9-1.5,20.2-1.6,30.3,0,10.8-.6,21.6-1.6,32.3-1,10.5-1,20.9,1.6,31.1,1.4,5.4.5,10.8-.1,16.3-1.2,10.7-1.7,21.5-2.4,32.3-.2,2.6-.1,5.3-1.2,8.1-54.4-3-108.7-6-163.3-9.1,0,0-.2-1.7-.2-1.8l-.3-2.1c-.2-1.4-.3-2.7-.4-4.1a26.39,26.39,0,0,1,.1-4v-.5a6.8,6.8,0,0,1,.2-1.5c.1-.5.2-1.1.3-1.6a24.73,24.73,0,0,1,1.1-3.6c.1-.2.1-.3.2-.5a2.19,2.19,0,0,1,.5-.3c2.6-1,5.1-2,7.7-3,.3-.1.4-.5.6-.8a5.5,5.5,0,0,1,.7-.9c.2-.2.5-.4.7-.6a3.92,3.92,0,0,0,.8-1.4,27.18,27.18,0,0,0,1.1-2.5,9.74,9.74,0,0,0,.5-1.1.37.37,0,0,1,.1-.3,5.26,5.26,0,0,1,1.4-1.2,10.44,10.44,0,0,0,2.3-2.4c-.8.4-1.4.9-2.2,1.4a3.7,3.7,0,0,1-1.1.5.76.76,0,0,0-.4.1.1.1,0,0,0-.1.1,5.55,5.55,0,0,0-.6.8l-1.2,1.8c-.5.7-1,1.4-1.5,2.2s-.8,1.6-1.6,2a6.89,6.89,0,0,1-.8.3c-2.5.8-5.1,1.7-7.6,2.5a5.07,5.07,0,0,0-1.5.7v-1c.1-.5,0-1,.1-1.4v-2c0-1.4-.1-2.7-.1-4.1-.1-2.7-.3-5.4-.4-8A52.9,52.9,0,0,1,144.5,296.6Zm-2.2,64.9c1.4-1.1,3.2-.8,4.8-.7,32.1,1.8,64.2,3.5,96.3,5.3q31.5,1.8,63.1,3.5c1,.1,2,.3,3.1.4a59.37,59.37,0,0,1,4.8,13.1c-61.3-4-122.1-7.9-184-11.9C134.6,367,138.6,364.4,142.3,361.5Zm175.3,66.9c-4.5.7-8.9.1-13-.4a.85.85,0,0,1-.5-.3,1.76,1.76,0,0,1-.5-.4,6.47,6.47,0,0,1-.9-.8c-.6-.6-1-1.4-1.6-2-.2-.2-.5-.4-.6-.6a5.64,5.64,0,0,1-.4-1.2.76.76,0,0,0-.1-.4.52.52,0,0,1-.2-.4,7.61,7.61,0,0,1-1.2-1.9,1.7,1.7,0,0,1-.1-.7,3.29,3.29,0,0,0-.4-1.7c-.1-.5-.2-.9-.3-1.4a.76.76,0,0,0-.2-.4,2.7,2.7,0,0,0-.8-.7c-.7-.8-1.4-1.5-2.1-2.2a5.5,5.5,0,0,0-.9-.7c.2.1.3.4.5.6a2.65,2.65,0,0,0,.5.6,4.68,4.68,0,0,1,.8,1.4,2.12,2.12,0,0,0,.3.7,5.78,5.78,0,0,1,.6,1.7,9.86,9.86,0,0,1,.3,2.4c.1.7.1,1.5.2,2.2a4.17,4.17,0,0,0,.6.2.75.75,0,0,1,.1.5,10.93,10.93,0,0,0,.8,1.5l.3.6v1.7a1.7,1.7,0,0,1-.1.7c-.2.3-.6.5-.5.9a6.55,6.55,0,0,1-1.4,0,.37.37,0,0,1-.3-.1,13.4,13.4,0,0,0-2-.1c-1.3-.1-2.6-.2-3.9-.2-11.3-.7-22.6-1.5-33.9-2.2s-22.6-1.5-33.9-2.2-22.6-1.5-33.9-2.2-22.6-1.5-33.9-2.2c-5.7-.4-11.3-.7-17-1.1-2.8-.2-5.7-.4-8.5-.5l-4.2-.3c-.3,0-4.1-.2-4.1-.3v-9.6l.1-.1.2-.2c.1-.2.2-.3.3-.5.3-.4.5-.7.8-1.1s.7-.8,1-1.2c.1-.2.2-.3.3-.5a3,3,0,0,1,.7-.5c.3-.2.6-.3.9-.5a10.84,10.84,0,0,1,1.9-.8,2.62,2.62,0,0,1,1.5-.2,2.38,2.38,0,0,1,1.1.6,10.41,10.41,0,0,0,3.6,1.9c.3.1.4-.2.6-.3a8.35,8.35,0,0,1,1.6-1.2.76.76,0,0,1,.4-.2c.3-.2.6-.3.9-.5a12.17,12.17,0,0,1,3.8-.7,13.28,13.28,0,0,0-3-.6,3.23,3.23,0,0,0-1.7.3l-.2.2c-.1.1-.3.2-.4.3l-.9.6c-.1,0-.1.1-.2.1a1,1,0,0,0-.5.4,1.14,1.14,0,0,1-.6.3,1.69,1.69,0,0,1-.5-.2c-.1-.1-.3-.1-.4-.2a9.22,9.22,0,0,0-.8-.5c-.8-.6-1.6-1.4-2.4-2.1-.1-.1-.2-.1-.3-.2h-.4c-.3.1-.6.1-.9.2s-.3.1-.5.1h-.3c-.3,0-.6.1-.9.1l-1.3.3c-1.3.3-2.5.6-3.8,1V380.9c65.6,4.2,131,8.5,196.7,12.7v34.8ZM298.9,85.9,296,81.8h-1.3c-.2,0-.3-.2-.5-.2l-3-2.4c-2-1.6-4.1-3.1-6.2-4.5a92.65,92.65,0,0,0-13.3-7.8c-2.1-.2-3.8-1.2-6.2-2.7,2.6.4,4.4.7,6.2,1,6.2-.1,12,1.9,17.9,3.7,4.6,1.4,9.2,2.9,14,3.3,7.3.5,13,4.4,18.7,8.3,4.5,3.1,6,8.2,7.4,13,1,3.7-2.5,5.3-4.7,7.4v.4c0,.2.1.4.1.6.1.4.3.7.4,1.1a24,24,0,0,1,1.1,2.3,5.64,5.64,0,0,1,.4,1.2,2.88,2.88,0,0,1,.1,1.3c0,.2-.3.4-.4.5-.6.8-1.3,1.6-1.9,2.3l4.2-1.4a6,6,0,0,1,.8-.8c.3-.2.6-.5.9-.7-.3-.2-.3-.3-.3-.6s-.2-.9-.3-1.3l-.3-1.2c0-.2-.1-.4-.1-.6s-.2-.5-.1-.6c1.1-2.2,3.5-2.6,4.7-4,7.4.5,11.5,4.4,13.6,11.1,2.7,8.5,3.4,17.5,5.9,26,4.3,15.2,1.6,30.2.5,45.3-.6,8.7.3,17.6-1.4,26.2-.7,3.3-1.5,6.4-4.1,8.3-.9,3.7-.1,7.1-.3,10.5a7.21,7.21,0,0,1-2.1,2.5,21.1,21.1,0,0,1-2.3,1.9l-.1.1a16.6,16.6,0,0,0-2.1,1.6l-.9.9a10.47,10.47,0,0,1-1.1.8c-.7.4-1.4.9-2.1,1.4-.2.2-.5.3-.6.6l-.4.4-.4.4c-.1.1-.2.2-.2.3s.1.1.1.2a15.05,15.05,0,0,1,1.1,2.2,4.35,4.35,0,0,1,.4.7c.1.1.1.2.1.4a2.66,2.66,0,0,1,.3,1.2v.6c-.1.4.1.8-.2,1.1s-.9.8-1.3,1.2a2.65,2.65,0,0,1-.6.5c-.4.4-.9.7-1.3,1.1-.1.1-.2.1-.2.2a.45.45,0,0,0,0,.5c.3,2.2.6,4.5.9,6.7,0,.3.1.7.1,1.1a3.08,3.08,0,0,0-.1,1,21.12,21.12,0,0,0,.2,2.6l1.9-9.3c1.4-2.6,4.9-3.1,5.8-5.7,0-2.3-2.1-2.9-2.8-4.9,3.7-2.7,7.5-5.5,11.7-8.6.1-2,.3-4.4.4-6.9,1.4.3,1.6,1.4,1.7,2.3.7,13.5,4,27,1.1,40.6-1,4.9-2.7,9.6-3.3,14.5-1.6,13.8.5,27.5.2,41.2-.2,6.9.7,13.9-1.6,21.1-10,5.2-20.1,9.9-31,15.1.5-6.1.7-11.5,1.3-16.9.9-8.7.5-17.6,2.4-26.2a25.85,25.85,0,0,0-.4-11.4c-3.1-12-3-24-1.5-36.1,1.6-13.2,1.2-26.5,1.4-39.8s2.2-26.4,2.9-39.7c.7-13.9,1.9-27.9-.5-41.6-1.9-10.9-5-21.6-6.3-32.7-1-8.2-5.1-15-11.5-20.3-2.4-2-4.6-4.1-7-6.2-.6-.5-1.1-1-1.7-1.6-.1-.1-.2-.1-.2-.2-.2-.2-.2-.4-.3-.7m53.1,274.2a.35.35,0,0,0,.2.1c.1,0,.1,0,.2.1a.52.52,0,0,1,.4.2,2.09,2.09,0,0,1,.4.6c0,.3.1.6.1,1a16.15,16.15,0,0,1,0,2.2,4.1,4.1,0,0,1-.1,1.1v.4c0,.2.2.2.4.3a1.17,1.17,0,0,1,.6.6.66.66,0,0,1,.1.6.76.76,0,0,1-.2.5,1.76,1.76,0,0,1-.9.8,21.48,21.48,0,0,0-2.6,1.4c-8,4.2-16,8.5-24.4,12.9a74,74,0,0,1-5.2-12.9c11.1-5.2,22.1-10.4,33.2-15.7,3.7,2.3,6,5.8,8.7,8.8-1.5,1.7-3.4,2.2-5.3,3.1l-.6-.3c-.2-.1-.5-.3-.7-.4a1.49,1.49,0,0,0-.7-.3,2.62,2.62,0,0,1-.9-.5c-.1-.1-.1-.2-.1-.4a4.25,4.25,0,0,1-.2-1.1,7.37,7.37,0,0,0-.4-1.4c-.1-.4-.3-.9-.4-1.3l-2.1-.8,2.1.8m5.2,26.7v-1.5a1.8,1.8,0,0,1,.2-1c.1-.2.1-.3.2-.4s.1-.1.1-.2a13,13,0,0,1,1-1.5,9.56,9.56,0,0,0,2.5-7.1,5.9,5.9,0,0,1,4.1-1.6c.7,9.8.2,20-.1,30.4-12.6,7.5-25.2,15-38.3,22.7V392.2c10.2-5.4,20.3-10.7,30.5-16a3.51,3.51,0,0,1,.6,1.4,3.35,3.35,0,0,1,0,1c0,.2-.1.3-.2.5s-.1.2-.2.4l-.4.4c-.2.1-.3.3-.5.5a3,3,0,0,0-.5.7.52.52,0,0,0-.2.4.76.76,0,0,0-.2.5,14,14,0,0,1-1,1.6,1.23,1.23,0,0,0-.4.8.37.37,0,0,0,.1.3v3.9c0,.7.1,1.3.1,2a2.93,2.93,0,0,1-.4,1.6l-.3.3a.35.35,0,0,0-.1.2c0,.1-.1.1-.2.2a12.21,12.21,0,0,1-2.5,2,4.8,4.8,0,0,0,1.7-.5c.4-.2.8-.5,1.3-.7.1,0,.2-.2.4-.2h.1a9.29,9.29,0,0,0,.5-1c.1-.1.1-.3.2-.5s.1-.3.2-.5.1-.2.1-.3a5.64,5.64,0,0,1,.4-1.2c.1-.2.1-.4.2-.6s.1-.2.1-.4a.75.75,0,0,1,.1-.5.55.55,0,0,1,.3-.5h.2Z"/></g><g id="Eyes_B" data-name="Eyes B"><path class="cls-2" d="M244.1,211.6a13.48,13.48,0,0,0-.9,12.5,6.25,6.25,0,0,0,2.3,3c2.2,1.3,5,.1,7.3-1.1,3-1.6,6.1-3.5,7.3-6.7a9.07,9.07,0,0,0-.6-7.2,13.4,13.4,0,0,0-2.5-3.7c-.7-.7-1.3-1.6-2.4-1.7a11.05,11.05,0,0,0-7.3,1.7A12.17,12.17,0,0,0,244.1,211.6Z"/><path class="cls-2" d="M198.6,212.3a10.45,10.45,0,0,0-1.5,4.5c-.2,2.7,1.1,5.2,2.3,7.6a3,3,0,0,0,.9,1.3,3.36,3.36,0,0,0,1.4.5,14.87,14.87,0,0,0,13.4-5.2,8.87,8.87,0,0,0,1.4-2.5,11.94,11.94,0,0,0,.3-4.2c-.1-2-.3-4.3-1.8-5.7a8.21,8.21,0,0,0-2.5-1.6,23.68,23.68,0,0,0-3.6-1.7,5.33,5.33,0,0,0-2.8.4,13.41,13.41,0,0,0-5.4,3.7c-.4.5-.8.9-1.2,1.4a3.51,3.51,0,0,0-.5.8C198.9,211.7,198.8,212.1,198.6,212.3Z"/><path class="cls-11" d="M248.2,228c-1-.1-2-.3-3-.5a15.05,15.05,0,0,1-1-1.7c-.3-.6-.4-1.1-.7-1.7a12.13,12.13,0,0,1-1.1-3.7,12.52,12.52,0,0,1,1.6-8.3,12.79,12.79,0,0,1,6.6-5.3,5.54,5.54,0,0,1,3.6-.2,4.35,4.35,0,0,1,2,1.3,6.47,6.47,0,0,1,.8.9c.2.3.5.6.7.9-.3,0-.6-.1-.9-.1s-.7-.1-1-.1A10.82,10.82,0,0,0,245,220.3,11,11,0,0,0,248.2,228Z"/><path class="cls-11" d="M200.6,226.2c-.1,0-.4-.6-.4-.7a5.94,5.94,0,0,1-.4-.8,10.41,10.41,0,0,1-.6-1.6c-.2-.6-.2-1.1-.4-1.7l-.6-2.1a10.36,10.36,0,0,1-.4-4.3,10.24,10.24,0,0,1,3.3-6.4,13.45,13.45,0,0,1,6.5-3.3,5.24,5.24,0,0,1,2.5-.1,4.77,4.77,0,0,1,2.6,1.6,10.59,10.59,0,0,1,1,1.2c.1.2.3.4.1.6a.37.37,0,0,1-.3.1c-.3,0-.7-.1-1-.1s-.7-.1-1-.1a10.82,10.82,0,0,0-7.8,18.3C203.6,226.8,200.6,226.2,200.6,226.2Z"/><path d="M205,229a13.8,13.8,0,1,1,13.8-13.8A13.83,13.83,0,0,1,205,229Zm0-23.6a9.8,9.8,0,1,0,9.8,9.8A9.82,9.82,0,0,0,205,205.4Z"/><path d="M249.4,230a13.8,13.8,0,1,1,13.8-13.8A13.83,13.83,0,0,1,249.4,230Zm0-23.6a9.8,9.8,0,1,0,9.8,9.8A9.82,9.82,0,0,0,249.4,206.4Z"/><path d="M198.6,224.1a12.42,12.42,0,0,1-2.1-6.9,12.76,12.76,0,0,1,12.8-12.8h.4a23.37,23.37,0,0,1,2.2,2.3,11.53,11.53,0,0,0-2.6-.3,10.82,10.82,0,0,0-7.8,18.3Z"/><path d="M246.2,225.9c-1-.1-2-.3-3-.5a12.84,12.84,0,0,1,9.9-20l2.6,2.1a12.31,12.31,0,0,0-2-.2,10.82,10.82,0,0,0-10.8,10.8A11.38,11.38,0,0,0,246.2,225.9Z"/></g></g></g></svg>