<svg id="uni" width="49" height="49" viewBox="0 0 49 49" fill="none" xmlns="http://www.w3.org/2000/svg">
<path d="M24.96 48.96C38.2148 48.96 48.96 38.2148 48.96 24.96C48.96 11.7052 38.2148 0.959999 24.96 0.959999C11.7051 0.959999 0.959961 11.7052 0.959961 24.96C0.959961 38.2148 11.7051 48.96 24.96 48.96Z" fill="#EFF4F4"/>
<path d="M23.328 23.232C24 24.384 22.56 24.672 21.888 24.768C20.832 24.864 20.64 24.288 20.832 23.52C20.928 23.232 21.024 23.04 21.216 22.848C21.408 22.656 21.696 22.56 21.984 22.56C22.272 22.56 22.56 22.56 22.752 22.752C22.944 22.848 23.136 23.04 23.328 23.232Z" fill="#FF007A"/>
<path d="M27.2639 21.12C26.4959 26.88 36.5759 25.632 36.3839 30.24C37.8239 28.032 37.1519 25.056 34.9439 23.616C32.3519 21.984 28.8959 22.848 27.2639 21.12Z" fill="#FF007A"/>
<path d="M33.12 19.008L32.928 18.816L33.12 19.008Z" fill="#FF007A"/>
<path d="M35.4239 23.136C35.3279 22.944 35.2319 22.848 35.1359 22.656C34.8479 22.176 34.2719 21.888 33.7919 21.696C33.4079 21.6 33.0239 21.504 32.6399 21.504C32.2559 21.504 31.8719 21.504 31.4879 21.408C30.7199 21.408 29.8559 21.216 29.0879 21.024C28.8959 20.928 28.7039 20.928 28.5119 20.832L28.2239 20.736H27.8399C27.4559 20.544 27.0719 20.256 26.7839 19.968C26.2079 19.392 25.6319 18.816 25.2479 18.144C24.7679 17.568 24.2879 16.896 23.8079 16.32C23.3279 15.744 22.6559 15.264 21.9839 14.88C21.3119 14.496 20.5439 14.304 19.7759 14.208C20.5439 14.112 21.4079 14.208 22.1759 14.496C22.9439 14.784 23.6159 15.264 24.2879 15.84C24.6719 16.224 25.0559 16.608 25.3439 16.992C27.4559 16.512 29.5679 16.8 31.4879 17.76C31.9679 18.048 32.4479 18.336 32.9279 18.72L33.1199 18.912C33.4079 19.2 33.7919 19.584 34.0799 19.872C34.7519 20.832 35.3279 21.984 35.4239 23.136Z" fill="#FF007A"/>
<path d="M19.8718 14.976C20.5438 15.072 21.1198 15.36 21.5998 15.84C21.9838 16.32 22.1758 16.896 22.2718 17.568C22.3678 18.048 22.4638 18.528 22.6558 19.008C22.7518 19.2 22.8478 19.392 22.9438 19.584C23.0398 19.776 23.1358 19.872 23.2318 20.064V20.16V20.256C23.0398 20.544 22.3678 20.256 22.1758 20.16C21.7918 19.968 21.4078 19.68 21.1198 19.392C20.2558 18.336 19.6798 16.992 19.7758 15.552C19.8718 15.264 19.8718 15.168 19.8718 14.976Z" fill="#FF007A"/>
<path d="M30.7199 26.496C29.3759 30.432 35.6159 33.024 33.3119 36.96C35.7119 35.808 36.8639 33.024 35.9039 30.528C34.9439 28.416 32.3519 27.648 30.7199 26.496Z" fill="#FF007A"/>
<path d="M22.3679 31.584C22.7519 31.296 23.1359 31.104 23.6159 30.912C24.0959 30.72 24.4799 30.624 24.9599 30.528C25.8239 30.432 26.6879 30.24 27.5519 29.952C27.9359 29.76 28.3199 29.568 28.6079 29.28C28.8959 28.992 29.0879 28.704 29.2799 28.32C29.3759 27.936 29.4719 27.456 29.4719 27.072C29.4719 26.592 29.3759 26.208 29.1839 25.728C29.5679 26.112 29.7599 26.496 29.9519 26.976C30.0479 27.456 30.0479 27.936 29.9519 28.416C29.8559 28.896 29.5679 29.376 29.1839 29.76C28.7999 30.24 28.3199 30.528 27.8399 30.72C27.3599 30.912 26.8799 31.008 26.3999 31.008C25.9199 31.008 25.4399 31.104 24.9599 31.104C24.0959 31.2 23.1359 31.296 22.3679 31.584Z" fill="#FF007A"/>
<path d="M31.1999 38.496C31.1039 38.592 30.9119 38.688 30.7199 38.784C30.5279 38.88 30.4319 38.976 30.2399 39.072C29.8559 39.264 29.4719 39.36 29.0879 39.36C28.0319 39.264 27.1679 38.592 26.8799 37.632C26.5919 37.056 26.3999 36.384 26.0159 35.808C25.5359 34.944 24.6719 34.368 23.6159 34.464C23.2319 34.464 22.8479 34.752 22.5599 35.04C22.1759 35.712 22.3679 36.576 23.0399 36.96C23.3279 37.152 23.6159 37.152 23.9039 37.152C23.9999 37.152 24.0959 37.152 24.1919 37.056C24.2879 37.056 24.3839 36.96 24.4799 36.864C24.6719 36.768 24.7679 36.576 24.8639 36.384C24.9599 36.192 24.9599 36 24.9599 35.712C24.8639 35.52 24.7679 35.328 24.5759 35.136C24.7679 35.232 24.9599 35.424 25.0559 35.616C25.1519 35.808 25.1519 36.096 25.1519 36.288C25.1519 36.576 24.9599 36.768 24.8639 36.96C24.7679 37.056 24.6719 37.152 24.5759 37.248C24.4799 37.344 24.3839 37.344 24.1919 37.44C23.9039 37.536 23.7119 37.536 23.4239 37.536C23.0399 37.44 22.7519 37.344 22.4639 37.056C22.1759 36.768 21.7919 36.48 21.5999 36.096C21.2159 35.712 20.8319 35.424 20.3519 35.232C20.0639 35.136 19.6799 34.944 19.3919 34.944L18.9119 34.848C18.7199 34.848 18.5279 34.752 18.4319 34.752C19.0079 34.272 19.5839 33.792 20.1599 33.408C20.8319 33.024 21.5039 32.736 22.1759 32.544C22.9439 32.352 23.7119 32.256 24.4799 32.352C24.8639 32.448 25.2479 32.544 25.6319 32.64C26.3999 32.928 27.0719 33.504 27.3599 34.272C27.5519 34.656 27.6479 35.04 27.7439 35.424C27.9359 36.576 27.9359 38.4 29.3759 38.592C29.4719 38.592 29.5679 38.592 29.5679 38.592H29.8559C30.0479 38.592 30.1439 38.592 30.3359 38.496C30.5279 38.592 30.9119 38.496 31.1999 38.496Z" fill="#FF007A"/>
<path d="M21.1199 20.832C21.1199 21.024 21.0239 21.216 20.8319 21.408C20.5439 21.696 20.2559 21.984 19.8719 22.176C19.5839 22.368 19.1999 22.464 18.8159 22.464H18.5279C18.3359 22.464 18.0479 22.56 17.8559 22.752C17.6639 22.848 17.5679 23.136 17.4719 23.328C17.4719 23.424 17.4719 23.52 17.3759 23.616C17.3759 23.904 17.3759 24.192 17.2799 24.576C17.1839 25.248 16.9919 25.824 16.7039 26.4C16.2239 27.072 16.0319 27.84 16.0319 28.704C16.1279 29.184 16.3199 29.664 16.7039 30.048C17.3759 30.816 19.0079 31.104 18.6239 32.832C18.4319 33.888 16.7039 34.944 14.2079 35.328C14.4959 35.328 13.9199 34.368 13.8239 34.272C13.5359 33.888 13.3439 33.504 13.0559 33.12C12.5759 32.256 12.4799 31.296 12.5759 30.336C12.8639 29.376 13.3439 28.512 14.1119 27.84C14.9759 26.88 15.4559 25.824 15.7439 24.576C15.7439 24.288 15.8399 23.904 15.8399 23.616C15.8399 23.232 16.0319 22.848 16.1279 22.464C16.2239 22.272 16.4159 21.984 16.6079 21.888C16.7039 21.792 16.7999 21.696 16.7999 21.504C16.7999 21.408 16.7999 21.216 16.7039 21.12L12.8639 14.112L18.4319 21.024C18.5279 21.12 18.6239 21.216 18.7199 21.216C18.8159 21.216 18.9119 21.312 19.0079 21.312C19.1039 21.312 19.1999 21.312 19.2959 21.216C19.3919 21.216 19.4879 21.12 19.5839 21.024C19.6799 20.928 19.6799 20.832 19.6799 20.736C19.6799 20.64 19.6799 20.544 19.5839 20.448L18.4319 19.008L16.9919 17.28L14.2079 13.824L10.3679 9.024L14.5919 13.536L17.5679 16.896L19.1039 18.528C19.5839 19.104 20.0639 19.584 20.5439 20.256L20.6399 20.352V20.16C21.1199 20.352 21.1199 20.64 21.1199 20.832Z" fill="#FF007A"/>
<path d="M22.3679 37.152C22.0799 36.96 21.8879 36.672 21.5999 36.384C21.8879 36.672 22.0799 36.864 22.3679 37.152Z" fill="#FF007A"/>
</svg>
