<svg width="48" height="48" viewBox="0 0 48 48" fill="none" xmlns="http://www.w3.org/2000/svg">
<path d="M24 48C37.2548 48 48 37.2548 48 24C48 10.7452 37.2548 0 24 0C10.7452 0 0 10.7452 0 24C0 37.2548 10.7452 48 24 48Z" fill="var(--color-currency-bg, #599DE9)"/>
<path d="M21.823 38.9922L8.54297 11.9431C8.32717 11.5115 8.65164 11.0008 9.12981 11.0008H13.7314C13.9782 11.0008 14.2095 11.1405 14.3182 11.3563L24.0166 30.9798C24.8814 32.7403 27.3824 32.7403 28.2472 30.9798L37.9145 11.3718C38.0232 11.156 38.2545 11.0163 38.5013 11.0163H39.0727C39.4127 11.0163 39.6285 11.3718 39.4748 11.6652L26.055 38.9922C25.1903 40.7511 22.6877 40.7511 21.823 38.9922Z" fill="var(--color-currency-fg, #FFF)"/>
</svg>
