<svg width="48" height="48" viewBox="0 0 48 48" fill="none" xmlns="http://www.w3.org/2000/svg">
<path d="M24 48C37.2548 48 48 37.2548 48 24C48 10.7452 37.2548 0 24 0C10.7452 0 0 10.7452 0 24C0 37.2548 10.7452 48 24 48Z" fill="white"/>
<path d="M22.3929 45C21.2348 44.7947 20.0638 44.6406 18.9314 44.3583C10.2968 42.2533 3.88841 34.8088 3.09058 25.9909C2.08685 15.0294 9.5247 5.31293 20.4498 3.32344C31.5165 1.30827 42.5832 8.93253 44.6291 19.9838C46.7395 31.3689 39.6491 42.048 28.3252 44.5251C27.4244 44.7177 26.5107 44.8332 25.61 44.9873C24.5419 45 23.4739 45 22.3929 45ZM5.05942 24.0142C5.03368 34.3852 13.4881 42.8695 23.8728 42.9081C34.2317 42.9335 42.7118 34.5264 42.7504 24.1682C42.789 13.7587 34.3861 5.3001 23.9886 5.26159C13.5782 5.22309 5.08515 13.6431 5.05942 24.0142Z" fill="#0089DB"/>
<path d="M15.4312 24.0015C15.7657 23.9887 15.9974 23.963 16.229 23.963C18.2879 23.963 20.3468 23.9759 22.3929 23.9502C22.8819 23.9502 23.1907 24.0657 23.358 24.5535C23.4996 24.9899 23.7312 25.4006 23.9885 25.9525C24.1429 25.6445 24.2459 25.4263 24.3488 25.2209C25.7644 22.0891 27.1541 18.9572 28.5954 15.8382C28.6983 15.5943 29.02 15.2991 29.2388 15.2991C31.5293 15.2606 33.8199 15.2734 36.1104 15.2863C36.1876 15.2863 36.2776 15.3248 36.4835 15.3633C36.1876 16.0821 35.9046 16.7752 35.5828 17.5582C36.2263 17.5838 36.7924 17.6095 37.4875 17.648C37.2041 18.2769 36.9727 18.8289 36.6896 19.368C36.6379 19.4578 36.4321 19.5091 36.3035 19.5091C36.0073 19.5348 35.6986 19.5476 35.4027 19.5091C34.7206 19.4193 34.4118 19.7273 34.3346 20.4461C34.9137 20.4718 35.4927 20.4975 36.1877 20.536C35.9046 21.1649 35.7115 21.704 35.4284 22.1789C35.3383 22.3329 34.9651 22.4228 34.7592 22.3843C33.6397 22.1789 33.1636 22.718 32.7518 23.6935C31.272 27.1462 29.6892 30.5348 28.1707 33.9618C27.9648 34.4368 27.7075 34.6165 27.167 34.6036C25.0309 34.5651 22.8819 34.5779 20.7457 34.5908C20.3339 34.5908 20.0895 34.4881 19.9093 34.0774C18.4938 30.907 17.0654 27.7367 15.6371 24.5663C15.547 24.4251 15.5084 24.2583 15.4312 24.0015Z" fill="#0089DB"/>
<path d="M10.49 17.5965C11.1849 17.5965 11.7511 17.5965 12.4331 17.5965C12.0985 16.7878 11.8154 16.0947 11.4937 15.3246C11.854 15.3118 12.0857 15.2861 12.3173 15.2861C14.3762 15.2861 16.4223 15.2989 18.4812 15.2733C18.983 15.2604 19.3176 15.376 19.4334 15.8894C19.768 17.3398 20.6965 17.5107 22.11 17.6221C23.287 17.6221 24.2847 17.6093 25.3785 17.6093C25.4429 17.6093 25.541 17.6093 25.7131 17.6093C25.4686 18.1612 25.1984 18.803 24.9153 19.3164C24.8509 19.4319 24.5936 19.509 24.4263 19.509C20.2055 19.5218 15.9976 19.5218 11.7768 19.4961C11.5709 19.4961 11.2749 19.2908 11.1591 19.0982C10.9275 18.6618 10.7602 18.1869 10.49 17.5965Z" fill="#0089DB"/>
<path d="M11.8281 20.5488C16.036 20.5488 20.141 20.5488 24.4004 20.5488C24.1301 21.1521 23.9242 21.6784 23.6411 22.1661C23.5511 22.3073 23.2422 22.3843 23.0363 22.3843C19.7421 22.3971 16.4349 22.3843 13.1407 22.3971C12.7675 22.3971 12.5487 22.2688 12.42 21.9222C12.2528 21.4858 12.0469 21.0622 11.8281 20.5488Z" fill="#0089DB"/>
</svg>
