<svg width="48" height="48" viewBox="0 0 48 48" fill="none" xmlns="http://www.w3.org/2000/svg">
<circle cx="24" cy="24" r="24" fill="#000"/>
<path d="M35.4835 14.0023L31.6304 15.9655L13.0242 25.4425C12.9613 24.9627 12.9296 24.4792 12.9294 23.9952C12.932 22.0642 13.439 20.1673 14.4002 18.4925C15.3614 16.8177 16.7434 15.4231 18.4095 14.4468C20.0755 13.4705 21.9677 12.9463 23.8987 12.9263C25.8296 12.9063 27.7323 13.3911 29.4182 14.3327L31.6236 13.209L31.9526 13.0411C29.9323 11.5747 27.5458 10.6955 25.0571 10.5006C22.5683 10.3057 20.0741 10.8027 17.8501 11.9366C15.6261 13.0706 13.7589 14.7974 12.455 16.9262C11.151 19.055 10.4611 21.5029 10.4613 23.9993C10.4613 24.3441 10.4744 24.6875 10.5006 25.0296C10.5373 25.514 10.4298 25.9985 10.1918 26.422C9.95379 26.8455 9.59583 27.1891 9.16297 27.4097L8 28.0027V30.7686L11.4239 29.0235L12.5327 28.4576L13.6253 27.9011L33.2401 17.9069L35.4442 16.7845L40 14.4627V11.6981L35.4835 14.0023Z" fill="#FFF"/>
<path d="M40 17.2306L14.7395 30.0923L12.5355 31.2174L8 33.5284V36.2917L12.5043 33.9969L16.3574 32.0338L34.9826 22.5432C35.0455 23.0262 35.0772 23.5128 35.0773 23.9999C35.0761 25.9332 34.5693 27.8325 33.6072 29.5094C32.645 31.1862 31.261 32.5822 29.5926 33.5589C27.9241 34.5355 26.0293 35.0587 24.0961 35.0767C22.1629 35.0946 20.2586 34.6066 18.5723 33.6611L18.437 33.7329L16.046 34.9514C18.0659 36.4178 20.4518 37.2973 22.9402 37.4927C25.4286 37.688 27.9226 37.1917 30.1466 36.0585C32.3706 34.9253 34.238 33.1993 35.5425 31.0713C36.847 28.9432 37.5379 26.496 37.5387 23.9999C37.5387 23.652 37.5251 23.304 37.4994 22.9602C37.4628 22.4759 37.5701 21.9916 37.8079 21.5682C38.0456 21.1447 38.4032 20.8009 38.8357 20.5801L40 19.9871V17.2306Z" fill="#FFF"/>
</svg>
