<svg width="48" height="48" viewBox="0 0 48 48" fill="none" xmlns="http://www.w3.org/2000/svg">
<circle cx="24" cy="24" r="24" fill="#FFF"/>
<path d="M33.0185 13.4379H36.7053L29.0328 21.0346C26.2543 23.7842 21.7494 23.7842 18.9689 21.0346L11.2935 13.4379H14.9832L20.8123 19.2087C21.6616 20.0457 22.8062 20.5149 23.9986 20.5149C25.1911 20.5149 26.3356 20.0457 27.1849 19.2087L33.0185 13.4379Z" fill="#23292F"/>
<path d="M14.935 34.5621H11.2457L18.968 26.9186C21.7465 24.1689 26.2514 24.1689 29.0319 26.9186L36.7542 34.5621H33.0674L27.1885 28.7445C26.3392 27.9075 25.1947 27.4382 24.0022 27.4382C22.8097 27.4382 21.6652 27.9075 20.8159 28.7445L14.935 34.5621Z" fill="#23292F"/>
</svg>
