<svg width="49" height="48" viewBox="0 0 49 48" fill="none" xmlns="http://www.w3.org/2000/svg">
<circle cx="24.5" cy="24" r="24" fill="#49C1BF"/>
<path d="M35.8049 21.224L31.1963 23.2788L18.9704 29.5018L31.1963 35.38V25.6638L35.8049 23.587V37.9411L31.1963 39.9959L13.1949 31.3805V26.8013L25.6557 20.6883L13.1949 14.7001V10.0548L17.8769 8L35.8049 16.6301V21.224V21.224Z" fill="#49C1BF"/>
<path d="M13.1949 10.0548L31.1963 18.6849L35.8049 16.6301L17.8769 8L13.1949 10.0548Z" fill="#7FD4D2"/>
<path d="M31.1965 18.6654L35.8051 16.6106V21.2045L31.1965 23.2593V18.6654V18.6654Z" fill="#BEE9E8"/>
<path d="M13.1949 10.0588V14.7041L25.6557 20.6923L13.1949 26.8053V31.3846L31.1963 40V35.3914L18.9704 29.5059L31.1963 23.2828V18.6889L13.1949 10.0588Z" fill="#FFF"/>
<path d="M31.1965 39.9657L35.8051 37.9109V23.5568L31.1965 25.6336V39.9657V39.9657Z" fill="#BEE9E8"/>
</svg>
